<?xml version="1.0" standalone="no"?>
<!DOCTYPE svg PUBLIC "-//W3C//DTD SVG 20010904//EN"
 "http://www.w3.org/TR/2001/REC-SVG-20010904/DTD/svg10.dtd">
<svg version="1.0" xmlns="http://www.w3.org/2000/svg"
 width="120.000000pt" height="115.000000pt" viewBox="0 0 120.000000 115.000000"
 preserveAspectRatio="xMidYMid meet">

<g transform="translate(0.000000,115.000000) scale(0.100000,-0.100000)"
fill="#000000" stroke="none">
<path d="M894 919 c-4 -7 16 -32 47 -60 30 -26 52 -48 49 -48 -3 -1 -34 8 -68
19 -117 37 -279 22 -393 -36 -86 -43 -176 -151 -179 -214 -1 -8 -20 -29 -43
-45 -63 -46 -100 -125 -105 -229 -5 -94 18 -196 43 -196 19 0 19 3 -1 87 -26
114 -3 220 66 293 l33 35 11 -45 c15 -56 34 -85 79 -116 102 -69 247 -20 234
78 -7 51 -42 92 -105 124 -44 22 -62 26 -112 22 -33 -2 -60 -3 -60 -1 0 18 47
86 82 120 79 77 220 122 338 108 68 -8 170 -35 170 -45 0 -5 -19 -20 -42 -34
-74 -44 -105 -73 -91 -87 9 -9 22 -4 60 23 26 19 72 47 100 64 30 16 53 36 53
45 0 17 -133 149 -150 149 -5 0 -12 -5 -16 -11z m-336 -388 c36 -19 72 -65 72
-94 0 -8 -9 -26 -21 -41 -59 -75 -237 17 -227 119 2 24 9 31 33 37 42 9 101 1
143 -21z"/>
</g>
</svg>
