<svg xmlns="http://www.w3.org/2000/svg" xmlns:xlink="http://www.w3.org/1999/xlink" width="1920" zoomAndPan="magnify" viewBox="0 0 1440 809.999993" height="1080" preserveAspectRatio="xMidYMid meet" version="1.0"><path fill="#202937" d="M 739.160156 441.675781 C 739.160156 441.675781 599.089844 673.539062 599.089844 673.539062 C 592.074219 685.148438 600.433594 699.964844 613.996094 699.964844 C 613.996094 699.964844 894.140625 699.964844 894.140625 699.964844 C 907.703125 699.964844 916.0625 685.148438 909.050781 673.539062 C 909.050781 673.539062 768.976562 441.675781 768.976562 441.675781 C 762.203125 430.457031 745.9375 430.457031 739.160156 441.675781 Z M 739.160156 441.675781 " fill-opacity="1" fill-rule="nonzero"/><path fill="#fff6ec" d="M 396.898438 459.726562 C 394.148438 442.484375 405.914062 426.277344 423.179688 423.53125 C 423.179688 423.53125 1049.988281 323.804688 1049.988281 323.804688 C 1067.253906 321.058594 1083.480469 332.8125 1086.230469 350.054688 C 1088.980469 367.300781 1077.214844 383.503906 1059.949219 386.253906 C 1059.949219 386.253906 433.140625 485.976562 433.140625 485.976562 C 415.875 488.722656 399.648438 476.972656 396.898438 459.726562 Z M 396.898438 459.726562 " fill-opacity="1" fill-rule="nonzero"/><path fill="#202937" d="M 436.335938 367.914062 C 436.433594 342.484375 457.148438 321.949219 482.609375 322.046875 C 508.070312 322.140625 528.632812 342.832031 528.535156 368.261719 C 528.441406 393.691406 507.722656 414.226562 482.261719 414.128906 C 456.800781 414.035156 436.238281 393.34375 436.335938 367.914062 Z M 436.335938 367.914062 " fill-opacity="1" fill-rule="nonzero"/><path fill="#202937" d="M 719.507812 353.171875 C 719.507812 353.171875 712.714844 310.5625 712.714844 310.5625 C 710.671875 297.757812 719.410156 285.722656 732.234375 283.679688 C 732.234375 283.679688 776.457031 276.644531 776.457031 276.644531 C 789.28125 274.605469 801.332031 283.332031 803.375 296.140625 C 803.375 296.140625 810.167969 338.746094 810.167969 338.746094 C 812.210938 351.554688 803.472656 363.589844 790.648438 365.628906 C 790.648438 365.628906 746.425781 372.667969 746.425781 372.667969 C 733.601562 374.707031 721.550781 365.980469 719.507812 353.171875 Z M 719.507812 353.171875 " fill-opacity="1" fill-rule="nonzero"/></svg>