<svg xmlns="http://www.w3.org/2000/svg" xmlns:xlink="http://www.w3.org/1999/xlink" width="1920" zoomAndPan="magnify" viewBox="0 0 1440 809.999993" height="1080" preserveAspectRatio="xMidYMid meet" version="1.0"><defs><clipPath id="5383871955"><path d="M 412.914062 43.703125 L 1136.066406 43.703125 L 1136.066406 766.855469 L 412.914062 766.855469 Z M 412.914062 43.703125 " clip-rule="nonzero"/></clipPath></defs><g clip-path="url(#5383871955)"><path fill="#202937" d="M 892.875 685.066406 C 912.003906 653.707031 927.570312 614.464844 938.585938 569.375 C 983.675781 558.359375 1022.917969 542.792969 1054.277344 523.664062 C 1023.511719 596.160156 965.367188 654.300781 892.875 685.066406 Z M 494.785156 523.664062 C 526.144531 542.792969 565.386719 558.359375 610.476562 569.375 C 621.492188 614.464844 637.058594 653.707031 656.1875 685.066406 C 583.695312 654.300781 525.550781 596.160156 494.785156 523.664062 Z M 656.1875 125.578125 C 637.058594 156.933594 621.492188 196.175781 610.476562 241.265625 C 565.386719 252.285156 526.144531 267.851562 494.785156 286.976562 C 525.550781 214.484375 583.695312 156.34375 656.1875 125.578125 Z M 1054.277344 286.976562 C 1022.917969 267.851562 983.675781 252.285156 938.585938 241.265625 C 927.570312 196.175781 912.003906 156.933594 892.875 125.578125 C 965.367188 156.34375 1023.511719 214.484375 1054.277344 286.976562 Z M 774.53125 101.5625 C 811.230469 101.5625 850.527344 149.816406 875.019531 229.316406 C 843.324219 224.992188 809.675781 222.675781 774.53125 222.675781 C 739.386719 222.675781 705.738281 224.992188 674.042969 229.316406 C 698.535156 149.816406 737.832031 101.5625 774.53125 101.5625 Z M 470.773438 405.320312 C 470.773438 368.621094 519.027344 329.324219 598.527344 304.832031 C 594.203125 336.527344 591.886719 370.175781 591.886719 405.320312 C 591.886719 440.464844 594.203125 474.113281 598.527344 505.8125 C 519.027344 481.316406 470.773438 442.019531 470.773438 405.320312 Z M 774.53125 530.105469 C 732.945312 530.105469 694.355469 526.546875 659.492188 520.359375 C 653.304688 485.5 649.746094 446.90625 649.746094 405.320312 C 649.746094 363.734375 653.304688 325.144531 659.492188 290.28125 C 694.355469 284.09375 732.945312 280.535156 774.53125 280.535156 C 816.117188 280.535156 854.707031 284.09375 889.570312 290.28125 C 895.757812 325.144531 899.316406 363.734375 899.316406 405.320312 C 899.316406 446.90625 895.757812 485.5 889.570312 520.359375 C 854.707031 526.546875 816.117188 530.105469 774.53125 530.105469 Z M 774.53125 709.078125 C 737.832031 709.078125 698.535156 660.824219 674.042969 581.328125 C 705.738281 585.648438 739.386719 587.964844 774.53125 587.964844 C 809.675781 587.964844 843.324219 585.648438 875.019531 581.328125 C 850.527344 660.824219 811.230469 709.078125 774.53125 709.078125 Z M 950.535156 505.8125 C 954.859375 474.113281 957.175781 440.464844 957.175781 405.320312 C 957.175781 370.175781 954.859375 336.527344 950.535156 304.832031 C 1030.035156 329.324219 1078.289062 368.621094 1078.289062 405.320312 C 1078.289062 442.019531 1030.035156 481.316406 950.535156 505.8125 Z M 774.53125 43.703125 C 575.132812 43.703125 412.914062 205.921875 412.914062 405.320312 C 412.914062 604.71875 575.132812 766.9375 774.53125 766.9375 C 973.929688 766.9375 1136.148438 604.71875 1136.148438 405.320312 C 1136.148438 205.921875 973.929688 43.703125 774.53125 43.703125 " fill-opacity="1" fill-rule="nonzero"/></g></svg>