<svg xmlns="http://www.w3.org/2000/svg" xmlns:xlink="http://www.w3.org/1999/xlink" width="1920" zoomAndPan="magnify" viewBox="0 0 1440 809.999993" height="1080" preserveAspectRatio="xMidYMid meet" version="1.0"><defs><clipPath id="cc37ebed64"><path d="M 390 28.417969 L 1144 28.417969 L 1144 780 L 390 780 Z M 390 28.417969 " clip-rule="nonzero"/></clipPath></defs><g clip-path="url(#cc37ebed64)"><path fill="#fae4c2" d="M 787.101562 708.699219 C 799.84375 719.09375 807.226562 730.023438 808.089844 740.082031 C 838.714844 736.554688 868.523438 729.671875 896.90625 719.808594 C 898.421875 716.078125 902.96875 712.5625 912.074219 708.046875 C 908.46875 691.226562 895.421875 673.316406 874.433594 656.222656 C 846.65625 677.316406 817.273438 695.078125 787.101562 708.699219 Z M 732.289062 680.074219 C 733.878906 680.621094 735.472656 681.179688 737.0625 681.757812 C 757.429688 689.226562 774.097656 698.335938 786.160156 707.941406 C 816.058594 694.105469 845.171875 676.121094 872.71875 654.859375 C 851.308594 637.808594 822 621.625 786.328125 608.183594 C 780.675781 615.308594 774.945312 617.972656 767.15625 617.078125 C 755.519531 640.1875 743.804688 661.40625 732.289062 680.074219 Z M 664.292969 666.285156 C 685.507812 667.648438 708.542969 672.058594 730.683594 679.527344 C 741.789062 660.707031 753.125 639.386719 764.414062 616.140625 C 758.21875 612.304688 756.351562 607.046875 758.171875 598.59375 C 733.015625 590.878906 707.4375 585.285156 682.582031 581.816406 C 680.675781 591 676.523438 595.121094 669.113281 595.199219 C 661.65625 593.5 657.15625 588.289062 654.898438 578.800781 C 652.929688 578.648438 650.957031 578.511719 648.988281 578.375 C 652.488281 610.261719 657.59375 639.933594 664.292969 666.285156 Z M 596.570312 659.480469 C 600.796875 659.890625 605.40625 663.027344 612.480469 670.269531 C 626.421875 666.464844 643.835938 665.101562 662.761719 666.195312 C 655.609375 639.808594 650.0625 610.109375 646.183594 578.210938 C 607.40625 575.980469 572.113281 579.347656 545.273438 588.289062 C 560.261719 613.882812 577.460938 637.824219 596.570312 659.480469 Z M 580.75 695.214844 C 581.734375 690.515625 584.339844 686.089844 588.691406 682.121094 C 592.328125 678.816406 596.964844 675.996094 602.417969 673.710938 C 595.828125 666.679688 593.644531 662.421875 595.375 659.875 C 575.992188 638.308594 558.566406 614.457031 543.351562 588.9375 C 529.847656 593.652344 518.574219 599.820312 510.207031 607.441406 C 503.917969 613.183594 499.617188 619.445312 497.191406 626.050781 C 503.875 633.703125 507.054688 638.78125 507.8125 643.007812 C 529.621094 662.785156 554.0625 680.363281 580.75 695.214844 Z M 581.539062 722.671875 C 581.476562 722.503906 581.386719 722.292969 581.324219 722.140625 C 582.507812 721.550781 583.113281 721.246094 591.539062 723.6875 C 583.039062 714.199219 579.113281 704.609375 580.628906 695.941406 C 553.898438 681.273438 529.421875 663.859375 507.570312 644.234375 C 505.617188 645.992188 501.691406 644.191406 494.828125 638.386719 C 494.359375 654.660156 503.632812 672.40625 521.148438 689.742188 C 538.957031 703.53125 559.1875 714.640625 581.539062 722.671875 Z M 643.789062 756.964844 C 625.058594 749.375 609.859375 740.371094 599.027344 730.992188 C 591.585938 728.75 586.476562 726.445312 582.460938 723.566406 C 560.308594 715.730469 540.242188 704.804688 522.621094 691.183594 C 527.453125 695.835938 532.878906 700.472656 538.878906 705.019531 L 542.257812 707.578125 C 561.824219 721.382812 562.582031 721.914062 574.734375 729.1875 C 593.644531 739.855469 593.644531 739.855469 604.054688 744.855469 C 610.285156 747.691406 618.605469 751.433594 624.910156 754.085938 C 630.621094 756.449219 636.925781 757.433594 643.789062 756.964844 Z M 715.589844 776.769531 C 710.226562 775.9375 707.269531 774.984375 705.042969 773.375 C 687.359375 770.847656 669.007812 766.359375 651.414062 759.90625 C 649.335938 759.148438 647.304688 758.375 645.320312 757.585938 C 638.804688 758.132812 632.820312 757.285156 627.394531 755.085938 L 637.121094 758.800781 C 654.230469 764.722656 654.5625 764.84375 662.914062 767.222656 C 677.6875 771.210938 677.6875 771.210938 687.734375 773.453125 C 703.859375 776.636719 703.859375 776.636719 712.695312 777.921875 L 723.347656 779.316406 C 720.710938 779.027344 718.105469 778.179688 715.589844 776.769531 Z M 877.613281 653.796875 C 898.9375 671.148438 912.195312 689.347656 915.863281 706.441406 C 925.410156 703.015625 930.378906 702.746094 932.488281 705.519531 C 959.519531 693.167969 984.875 677.984375 1008 660.3125 C 1005.832031 634.792969 987.132812 607.078125 954.792969 580.742188 C 931.273438 607.835938 905.253906 632.445312 877.613281 653.796875 Z M 782.039062 586.394531 C 789.191406 590.757812 791.070312 596.484375 788.117188 604.988281 C 824.363281 618.640625 854.125 635.066406 875.871094 652.386719 C 903.285156 630.871094 929.078125 606.078125 952.414062 578.832031 C 921.820312 554.480469 879.554688 531.382812 827.941406 512.457031 C 823.910156 510.972656 819.863281 509.53125 815.816406 508.136719 C 804.90625 535.476562 793.570312 561.769531 782.039062 586.394531 Z M 648.59375 574.710938 C 650.59375 574.832031 652.59375 574.980469 654.59375 575.132812 C 656.050781 557.160156 671.628906 558.386719 678.371094 566.601562 C 681.765625 570.738281 682.265625 574.542969 682.734375 578.210938 C 707.964844 581.726562 733.957031 587.410156 759.519531 595.226562 C 764.382812 587.257812 770.171875 584.285156 778.855469 585.316406 C 790.054688 560.585938 801.101562 534.1875 811.742188 506.746094 C 755.609375 487.847656 697.207031 476.664062 643.425781 473.207031 C 643.503906 508.457031 645.230469 542.660156 648.59375 574.710938 Z M 543.230469 584.773438 C 570.503906 575.679688 606.359375 572.269531 645.746094 574.542969 C 641.988281 542.460938 639.910156 508.246094 639.546875 472.980469 C 585.992188 469.90625 537.257812 474.542969 500.175781 486.894531 C 511.101562 521.09375 525.605469 554.085938 543.230469 584.773438 Z M 481.292969 616.472656 C 483.339844 614.457031 487.265625 616.457031 494.386719 623.140625 C 496.859375 616.429688 501.222656 610.0625 507.617188 604.230469 C 516.101562 596.484375 527.558594 590.210938 541.273438 585.4375 C 523.378906 554.84375 508.648438 521.945312 497.523438 487.800781 C 478.871094 494.304688 463.308594 502.820312 451.761719 513.351562 C 440.726562 523.429688 434.136719 534.628906 431.636719 546.554688 C 445.152344 571.453125 461.835938 594.941406 481.292969 616.472656 Z M 518.726562 687.832031 C 500.933594 670.222656 491.507812 652.191406 491.992188 635.660156 C 485.160156 628.308594 481.78125 622.824219 481.023438 617.898438 C 461.535156 596.515625 444.820312 573.148438 431.285156 548.371094 C 428.605469 563.84375 432.726562 580.46875 442.910156 597.335938 C 449.257812 607.230469 457.792969 620.398438 464.640625 629.945312 C 483.703125 653.917969 485.703125 656.417969 501.660156 672.617188 C 507.054688 678 512.753906 683.058594 518.726562 687.832031 Z M 520.226562 689.304688 C 515.164062 685.273438 510.316406 681.027344 505.675781 676.558594 C 514.101562 684.210938 525.5 694.226562 534.289062 701.472656 C 529.164062 697.457031 524.46875 693.378906 520.226562 689.304688 Z M 957.476562 577.617188 C 990.101562 604.183594 1008.953125 632.15625 1011.152344 657.875 C 1038.457031 636.550781 1062.539062 611.699219 1082.417969 583.953125 C 1079.84375 553.601562 1057.582031 520.625 1019.121094 489.285156 C 1001.632812 520.625 980.8125 550.34375 957.476562 577.617188 Z M 817.300781 504.394531 C 821.394531 505.804688 825.46875 507.257812 829.53125 508.746094 C 881.585938 527.839844 924.226562 551.128906 955.097656 575.695312 C 978.25 548.28125 998.9375 518.441406 1016.304688 487.027344 C 979.886719 458.039062 929.609375 430.566406 868.203125 408.046875 C 863.414062 406.289062 858.597656 404.578125 853.777344 402.925781 C 842.546875 437.519531 830.242188 471.691406 817.300781 504.394531 Z M 643.425781 469.164062 C 697.664062 472.648438 756.582031 483.921875 813.195312 503 C 825.847656 470.191406 837.894531 435.929688 848.945312 401.273438 C 782.144531 378.769531 712.664062 365.480469 648.699219 361.371094 C 645.246094 397.546875 643.503906 433.855469 643.425781 469.164062 Z M 498.949219 482.96875 C 536.332031 470.511719 585.507812 465.828125 639.515625 468.933594 C 639.289062 433.597656 640.789062 397.273438 644.078125 361.085938 C 586.976562 357.796875 534.453125 361.902344 492.417969 373.375 C 491.523438 383.800781 487.8125 390.195312 480.039062 394.800781 C 483.628906 424.59375 490.023438 454.191406 498.949219 482.96875 Z M 429.800781 543.128906 C 432.316406 531.113281 438.96875 519.808594 450.109375 509.652344 C 461.746094 499.03125 477.445312 490.4375 496.265625 483.878906 C 487.175781 455.160156 480.628906 425.625 476.929688 395.863281 C 468.960938 396.652344 464.519531 393.015625 462.078125 383.726562 C 445.609375 390.664062 431.621094 399.136719 420.664062 409.121094 C 407.539062 421.09375 399.691406 434.429688 396.722656 448.613281 C 402.796875 481.484375 414.042969 513.289062 429.800781 543.128906 Z M 429.453125 544.976562 C 413.664062 515.277344 402.402344 483.574219 396.3125 450.78125 C 394.886719 458.964844 395.070312 467.417969 396.765625 476.042969 C 402.253906 499.621094 408.449219 526.351562 422.863281 558.738281 C 427.96875 569.117188 434.789062 582.96875 440.410156 593.074219 C 430.695312 576.496094 426.816406 560.191406 429.453125 544.976562 Z M 1021.121094 485.679688 C 1059.75 517.140625 1082.085938 550.265625 1084.675781 580.753906 C 1104.226562 552.78125 1119.53125 521.929688 1129.609375 488.773438 C 1127.136719 459.628906 1107.726562 428.230469 1074.070312 397.863281 C 1069.976562 406.136719 1064.824219 407.863281 1056.839844 403.636719 C 1047.640625 431.777344 1035.5625 459.28125 1021.121094 485.679688 Z M 855.050781 398.9375 C 859.898438 400.605469 864.734375 402.332031 869.550781 404.089844 C 931.214844 426.714844 981.722656 454.296875 1018.289062 483.40625 C 1032.652344 456.949219 1044.65625 429.398438 1053.839844 401.226562 C 1046.65625 393.210938 1044.066406 385.253906 1045.1875 374.617188 C 1007.636719 347.402344 958.597656 321.804688 900.195312 300.378906 C 895.058594 298.484375 889.90625 296.664062 884.722656 294.878906 C 876.234375 329.277344 866.1875 364.3125 855.050781 398.9375 Z M 649.109375 357.207031 C 713.347656 361.34375 783.128906 374.691406 850.199219 397.289062 C 861.15625 362.585938 871.082031 327.535156 879.554688 293.121094 C 815.4375 271.511719 749.003906 257.839844 686.570312 252.066406 C 682.113281 261.585938 674.71875 266.117188 661.808594 267.238281 C 656.335938 296.664062 652.109375 326.867188 649.109375 357.207031 Z M 476.976562 356.492188 C 485.25 355.765625 489.933594 359.691406 492.160156 369.269531 C 534.363281 357.75 587.113281 353.628906 644.457031 356.933594 C 647.320312 326.578125 651.457031 296.363281 656.882812 266.933594 C 644.867188 264.3125 639.5625 259.007812 639.136719 249.171875 C 579.203125 247.492188 524.90625 253.703125 482.566406 267.8125 C 477.597656 296.863281 475.824219 326.640625 476.976562 356.492188 Z M 396.054688 444.824219 C 399.023438 430.582031 406.90625 417.199219 420.089844 405.167969 C 431.089844 395.136719 445.136719 386.632812 461.6875 379.664062 C 462.230469 368.964844 465.839844 362.375 473.75 357.601562 C 472.519531 327.761719 474.234375 298 479.171875 268.964844 C 455.410156 277.253906 435.574219 288.105469 420.875 301.515625 C 409.785156 311.636719 402.222656 322.640625 397.949219 334.277344 C 396.570312 342.292969 396.296875 343.644531 393.097656 360.265625 C 390.175781 388.816406 391.28125 417.183594 396.054688 444.824219 Z M 395.628906 447.007812 C 390.855469 419.425781 389.734375 391.105469 392.660156 362.585938 C 392.539062 363.191406 392.933594 363.902344 392.3125 364.417969 C 390.296875 393.273438 388.566406 418.183594 393.207031 453.917969 L 395.886719 471.316406 C 394.371094 463.011719 394.265625 454.886719 395.628906 447.007812 Z M 1067.054688 367.191406 C 1074.023438 375.148438 1076.433594 383.195312 1075.128906 394.105469 C 1108.816406 424.472656 1128.246094 455.917969 1130.714844 485.058594 C 1132.398438 479.285156 1133.914062 473.4375 1135.277344 467.542969 C 1141.761719 439.308594 1144.125 411.257812 1142.777344 383.847656 C 1140.09375 352.28125 1116.941406 317.957031 1076.917969 285.359375 C 1076.917969 310.742188 1073.828125 337.71875 1067.339844 365.933594 C 1067.234375 366.359375 1067.144531 366.78125 1067.054688 367.191406 Z M 885.675781 291.042969 C 890.84375 292.816406 896.011719 294.648438 901.148438 296.53125 C 959.597656 317.972656 1008.648438 343.597656 1046.230469 370.828125 C 1050.398438 362.433594 1055.886719 360.554688 1064.023438 364.765625 C 1064.128906 364.34375 1064.21875 363.933594 1064.324219 363.496094 C 1070.796875 335.277344 1073.933594 308.335938 1073.992188 283.011719 C 1036.125 252.855469 983.796875 224.277344 919.925781 200.847656 C 914.9375 199.015625 909.921875 197.242188 904.90625 195.511719 C 901.359375 219.03125 896.375 245.019531 889.890625 273.238281 C 888.523438 279.164062 887.132812 285.089844 885.675781 291.042969 Z M 669.507812 229.914062 C 681.492188 232.609375 687.007812 238.246094 687.386719 248.203125 C 749.851562 253.976562 816.332031 267.660156 880.492188 289.269531 C 881.933594 283.316406 883.34375 277.375 884.707031 271.480469 C 891.191406 243.25 896.222656 217.273438 899.875 193.800781 C 830.394531 170.386719 758.109375 156.554688 691.554688 152.28125 C 683.613281 174.90625 676.28125 200.4375 669.792969 228.65625 C 669.703125 229.078125 669.613281 229.488281 669.507812 229.914062 Z M 483.25 263.949219 C 525.605469 249.839844 579.945312 243.613281 639.925781 245.308594 C 644.351562 235.503906 651.714844 230.820312 664.550781 229.609375 C 664.65625 229.199219 664.746094 228.777344 664.839844 228.351562 C 671.324219 200.136719 678.703125 174.617188 686.734375 151.992188 C 627.332031 148.566406 572.703125 152.839844 528.96875 164.765625 C 523.453125 173.054688 517.105469 178.496094 507.753906 182.9375 C 499.144531 202.289062 492.128906 223.398438 486.902344 246.128906 C 485.554688 252.039062 484.324219 257.976562 483.25 263.949219 Z M 399.371094 322.320312 C 399.570312 323.957031 399.570312 323.957031 398.570312 330.472656 C 402.84375 318.820312 410.421875 307.804688 421.511719 297.695312 C 436.226562 284.269531 456.0625 273.40625 479.855469 265.117188 C 480.929688 259.128906 482.160156 253.1875 483.507812 247.28125 C 488.734375 224.546875 495.78125 203.4375 504.417969 184.074219 C 496.933594 185.390625 494.84375 182.84375 497.402344 175.539062 C 480.265625 182.769531 465.714844 191.574219 454.320312 201.953125 C 446.652344 208.957031 440.726562 216.378906 436.453125 224.167969 C 431.621094 233.867188 424.984375 246.734375 420.632812 256.660156 C 406.8125 292.847656 405.691406 295.800781 399.675781 320.972656 L 399.238281 322.914062 C 399.28125 322.730469 399.328125 322.503906 399.371094 322.320312 Z M 1076.902344 281.953125 C 1116.820312 314.457031 1139.898438 348.675781 1142.566406 380.164062 C 1142.445312 378.164062 1142.292969 376.164062 1142.140625 374.148438 L 1140.261719 356.507812 C 1134.367188 321.867188 1131.109375 302.789062 1114.773438 261.386719 C 1106.058594 240.519531 1088.34375 218.957031 1062.839844 198.195312 C 1071.722656 223.304688 1076.570312 251.445312 1076.902344 281.953125 Z M 905.375 192.363281 C 910.378906 194.074219 915.378906 195.847656 920.347656 197.679688 C 984.039062 221.03125 1036.214844 249.539062 1073.980469 279.601562 C 1073.722656 249.160156 1068.992188 221.109375 1060.265625 196.121094 C 1026.957031 169.617188 980.964844 144.476562 924.773438 123.867188 C 920.394531 122.261719 916 120.699219 911.574219 119.183594 C 911.542969 139.640625 909.511719 164.175781 905.375 192.363281 Z M 692.632812 149.25 C 758.988281 153.523438 831.078125 167.296875 900.359375 190.648438 C 904.617188 162.523438 906.863281 138.050781 907.148438 117.683594 C 852.382812 99.226562 795.632812 87.542969 742.304688 82.617188 C 737.367188 87.664062 730.289062 89.96875 718.648438 90.316406 C 709.496094 106.847656 700.738281 126.546875 692.632812 149.25 Z M 522.984375 153.1875 C 530.410156 151.929688 532.726562 154.550781 530.5 161.707031 C 574.113281 149.808594 628.589844 145.550781 687.828125 148.960938 C 696.054688 126.261719 704.964844 106.558594 714.316406 90.058594 C 704.027344 88.375 700.300781 85.421875 701.800781 80.148438 C 650.59375 78.707031 604.222656 84.011719 568.050781 96.058594 C 551.046875 112.089844 535.863281 131.199219 522.984375 153.1875 Z M 499.023438 172.449219 C 504.722656 163.992188 510.921875 158.554688 519.742188 154.28125 C 532.710938 132.277344 548.003906 113.121094 565.15625 97.042969 C 545.410156 103.9375 528.847656 112.894531 516.390625 123.910156 L 512.738281 127.214844 C 487.265625 152.28125 474.476562 164.855469 452.140625 198.105469 L 438.683594 220.152344 C 442.910156 212.667969 448.683594 205.53125 456.0625 198.785156 C 467.429688 188.4375 481.929688 179.648438 499.023438 172.449219 Z M 1061.839844 195.40625 C 1086.785156 215.730469 1104.210938 236.808594 1113.015625 257.21875 L 1110.605469 251.703125 C 1100.011719 230.1875 1089.070312 207.941406 1068.8125 180.480469 C 1060.78125 170.375 1049.792969 157.097656 1041.199219 147.476562 C 1035.835938 141.808594 1029.714844 136.171875 1022.894531 130.59375 C 1039.535156 148.734375 1052.6875 170.554688 1061.839844 195.40625 Z M 911.574219 116.925781 C 915.953125 118.425781 920.332031 119.988281 924.699219 121.578125 C 980.496094 142.050781 1026.199219 167.007812 1059.28125 193.363281 C 1050.277344 168.617188 1037.304688 146.945312 1020.878906 128.988281 C 995.011719 108.394531 959.277344 88.875 915.636719 72.875 C 912.242188 71.617188 908.816406 70.402344 905.390625 69.222656 C 909.363281 80.738281 911.46875 96.785156 911.574219 116.925781 Z M 730.605469 70.886719 C 740.351562 72.496094 744.183594 75.402344 743.425781 80.585938 C 796.390625 85.480469 852.777344 97.089844 907.179688 115.425781 C 907.332031 95.375 905.558594 79.449219 901.953125 68.054688 C 854.488281 52.066406 805.117188 42.609375 759.65625 39.703125 C 749.820312 46.6875 740.0625 57.160156 730.605469 70.886719 Z M 570.324219 93.953125 C 606.238281 81.980469 652.320312 76.707031 703.179688 78.148438 C 708.664062 73.238281 715.648438 70.996094 726.53125 70.644531 C 736.214844 56.917969 746.230469 46.476562 756.367188 39.503906 C 711.105469 36.898438 669.886719 40.824219 638.546875 51.265625 C 613.753906 60.839844 590.765625 75.207031 570.324219 93.953125 Z M 567.445312 94.9375 C 588.054688 76.117188 611.269531 61.691406 636.289062 52.023438 C 634.925781 52.507812 633.5625 53.007812 632.226562 53.507812 C 602.828125 65.871094 601.675781 66.355469 586.476562 74.632812 C 551.941406 95.089844 551.320312 95.527344 520.058594 120.714844 C 532.304688 110.167969 548.382812 101.574219 567.445312 94.9375 Z M 1020.96875 128.535156 C 1027.09375 133.535156 1032.652344 138.59375 1037.578125 143.671875 L 1027.851562 133.945312 C 1021.078125 127.761719 1012.015625 119.53125 1005 113.636719 C 1010.605469 118.257812 1015.9375 123.230469 1020.96875 128.535156 Z M 904.921875 67.917969 C 908.316406 69.085938 911.679688 70.28125 915.042969 71.523438 C 958.140625 87.328125 993.4375 106.605469 1018.984375 126.941406 C 1013.558594 121.199219 1007.757812 115.851562 1001.617188 110.910156 L 991.191406 102.863281 C 971.628906 89.042969 970.871094 88.511719 958.734375 81.238281 C 940.167969 70.765625 939.804688 70.570312 929.410156 65.570312 C 912.648438 57.945312 910.5 56.960938 896.34375 51.644531 L 889.222656 49.097656 C 895.933594 51.445312 901.195312 57.839844 904.921875 67.917969 Z M 761.003906 38.761719 C 805.890625 41.640625 854.65625 50.976562 901.527344 66.765625 C 898.132812 56.75 893.222656 50.476562 886.875 48.292969 C 881.980469 46.746094 875.460938 44.640625 870.539062 43.203125 C 855.761719 39.230469 855.761719 39.230469 845.730469 36.988281 C 830.53125 33.988281 827.804688 33.457031 820.757812 32.503906 C 803.695312 30.335938 803.359375 30.304688 794.570312 29.65625 L 790.980469 29.410156 C 781.070312 28.789062 770.992188 31.988281 761.003906 38.761719 Z M 641.394531 50.1875 C 672.339844 39.867188 713.042969 35.988281 757.746094 38.566406 C 767.945312 31.867188 778.25 28.699219 788.417969 29.246094 C 781.691406 28.988281 772.703125 28.699219 765.976562 28.640625 C 746.035156 29.09375 744.835938 29.125 733.410156 30.125 C 710.832031 32.671875 708.980469 32.882812 694.769531 35.59375 C 669.398438 41.261719 666.140625 41.988281 647.699219 47.960938 C 645.59375 48.671875 643.488281 49.414062 641.394531 50.1875 Z M 639.167969 50.945312 C 640.242188 50.535156 641.320312 50.15625 642.410156 49.777344 L 637.046875 51.703125 C 637.742188 51.445312 638.457031 51.1875 639.167969 50.945312 Z M 781.355469 767.117188 C 792.039062 768.511719 792.039062 768.511719 796.238281 771.089844 C 791.296875 772.363281 789.039062 772.9375 776.402344 771.285156 C 761.050781 775.542969 741.410156 776.816406 720.152344 775.089844 C 720.105469 778.421875 722.894531 779.285156 725.726562 779.574219 C 721.816406 779.074219 716.589844 778.5 712.695312 777.921875 C 696.28125 775.269531 695.648438 775.164062 687.738281 773.453125 C 673.035156 770.027344 669.550781 769.226562 662.914062 767.222656 C 646.09375 762.070312 646.09375 762.070312 637.121094 758.800781 C 620.378906 752.296875 617.800781 751.296875 604.054688 744.855469 C 585.539062 735.523438 584.8125 735.144531 574.734375 729.1875 C 555.0625 716.882812 553.898438 716.140625 542.257812 707.578125 C 522.148438 691.742188 519.558594 689.695312 505.617188 676.484375 C 485.839844 656.207031 481.71875 651.980469 464.640625 629.945312 C 451.09375 610.351562 437.074219 590.089844 422.863281 558.738281 C 405.3125 515.292969 401.175781 502.546875 393.207031 453.917969 C 389.175781 409.515625 387.597656 378.40625 399.675781 320.972656 C 410.148438 282.542969 410.769531 280.238281 420.632812 256.660156 C 437.03125 222.246094 438.363281 219.441406 452.140625 198.105469 C 469.65625 173.660156 483.492188 154.355469 512.738281 127.214844 C 535.621094 107.847656 552.15625 93.847656 586.476562 74.632812 C 613.890625 60.839844 618.832031 58.355469 646.957031 48.21875 C 673.445312 40.15625 675.597656 39.503906 694.769531 35.59375 C 718.394531 31.578125 719.316406 31.425781 733.410156 30.125 C 754.65625 28.683594 754.65625 28.683594 765.976562 28.640625 C 784.992188 28.957031 784.992188 28.957031 794.570312 29.65625 C 811.878906 31.230469 812.210938 31.261719 820.757812 32.503906 C 837.183594 35.171875 837.820312 35.261719 845.730469 36.988281 C 860.414062 40.398438 863.914062 41.21875 870.539062 43.203125 C 887.375 48.371094 887.375 48.371094 896.34375 51.644531 C 913.089844 58.144531 915.667969 59.144531 929.410156 65.570312 C 947.929688 74.917969 948.65625 75.296875 958.734375 81.238281 C 978.007812 93.316406 979.585938 94.300781 991.191406 102.863281 C 1011.300781 118.683594 1013.878906 120.730469 1027.851562 133.945312 C 1047.625 154.234375 1051.734375 158.460938 1068.8125 180.480469 C 1082.359375 200.074219 1096.375 220.320312 1110.605469 251.703125 C 1128.152344 295.136719 1132.277344 307.878906 1140.261719 356.507812 C 1141.066406 365.402344 1142.472656 377.222656 1142.929688 386.148438 C 1142.929688 386.132812 1142.929688 386.132812 1142.929688 386.132812 C 1144.292969 413.59375 1141.914062 441.671875 1135.441406 469.890625 C 1134.078125 475.800781 1132.546875 481.632812 1130.882812 487.40625 C 1131.304688 495.425781 1130.441406 503.242188 1128.230469 510.820312 L 1126.882812 515.320312 C 1129.273438 507.503906 1130.214844 499.410156 1129.773438 491.121094 C 1119.699219 524.261719 1104.394531 555.070312 1084.828125 582.953125 C 1085.664062 598.242188 1081.433594 612.835938 1071.75 626.171875 L 1068.960938 629.960938 C 1079.023438 616.472656 1083.40625 601.667969 1082.570312 586.152344 C 1062.6875 613.820312 1038.59375 638.539062 1011.273438 659.738281 C 1012.210938 677.164062 1005.390625 693.515625 989.90625 707.65625 C 988.921875 708.320312 987.933594 708.988281 986.933594 709.65625 C 1002.285156 695.652344 1009.042969 679.4375 1008.121094 662.164062 C 984.996094 679.710938 959.628906 694.773438 932.59375 706.972656 C 928.484375 713.109375 928.484375 713.109375 919.816406 718.050781 C 915.863281 729.976562 910.832031 739.871094 901.253906 748.617188 C 900.074219 748.949219 898.890625 749.253906 897.695312 749.570312 C 907.121094 740.976562 912.074219 731.234375 912.953125 720.839844 C 903.785156 723.246094 903.785156 723.246094 897.648438 721.867188 C 868.597656 730.765625 838.789062 737.460938 808.132812 740.8125 C 808.496094 747.628906 805.832031 754.027344 799.785156 759.542969 C 798.511719 759.480469 797.253906 759.421875 795.980469 759.34375 C 801.84375 753.996094 804.421875 747.828125 804.058594 741.234375 C 767.050781 744.917969 728.878906 743.691406 690.523438 736.960938 C 728.847656 743.449219 767.023438 744.433594 804.011719 740.523438 C 803.195312 730.808594 796.054688 720.246094 783.734375 710.199219 C 753.15625 723.671875 721.789062 732.871094 690.523438 736.960938 C 721.46875 732.628906 752.535156 723.171875 782.828125 709.472656 C 771.160156 700.183594 755.050781 691.378906 735.378906 684.167969 C 733.835938 683.605469 732.304688 683.058594 730.757812 682.53125 C 716.890625 704.746094 703.34375 723.246094 690.523438 736.960938 C 702.800781 723.066406 715.832031 704.382812 729.210938 682 C 707.816406 674.785156 685.539062 670.527344 665.050781 669.210938 C 671.945312 695.636719 680.449219 718.597656 690.523438 736.960938 C 679.933594 718.566406 670.929688 695.578125 663.566406 669.117188 C 645.261719 668.074219 628.4375 669.375 614.96875 673.058594 C 620.605469 680.210938 620.605469 680.210938 622.453125 685.316406 C 643.183594 705.835938 666.066406 723.050781 690.523438 736.960938 C 665.761719 723.15625 642.59375 706.03125 621.300781 686.273438 C 615.390625 684.195312 615.390625 684.195312 607.753906 678.511719 C 599.980469 678.605469 595.496094 681.316406 591.980469 684.515625 C 587.78125 688.347656 585.265625 692.621094 584.3125 697.167969 C 616.695312 714.761719 652.335938 728.339844 690.523438 736.960938 C 652.277344 728.582031 616.617188 715.230469 584.175781 697.851562 C 582.71875 706.246094 586.507812 715.519531 594.738281 724.6875 C 603.191406 727.550781 604.421875 728.050781 608.9375 729.929688 C 635.847656 736.660156 662.339844 738.691406 690.523438 736.960938 C 662.566406 738.917969 636.304688 737.097656 612.058594 731.914062 C 609.785156 732.417969 606.601562 732.550781 604.300781 732.234375 C 612.4375 740.8125 627.121094 749.507812 645.246094 756.859375 C 658.382812 755.601562 673.550781 749.128906 690.523438 736.960938 C 674.066406 749.328125 659.398438 755.996094 646.714844 757.449219 C 648.640625 758.207031 650.59375 758.949219 652.59375 759.691406 C 669.613281 765.9375 687.34375 770.269531 704.4375 772.710938 C 705.328125 771.90625 706.542969 770.832031 707.4375 770.027344 C 701.222656 763.042969 695.527344 752.085938 690.523438 736.960938 C 695.964844 752.144531 702.101562 763.132812 708.722656 770.164062 C 711.148438 770.875 714.300781 772.042969 716.605469 773.042969 C 739.578125 776.027344 758.550781 774.800781 773.386719 770.695312 C 770.671875 769.9375 767.113281 768.679688 764.535156 767.527344 C 770.25 765.738281 770.25 765.738281 781.355469 767.117188 Z M 871.613281 765.101562 C 881.765625 762.722656 882.480469 762.84375 882.949219 762.9375 C 881.8125 763.828125 870.445312 767.496094 857.65625 770.511719 C 854.171875 771.46875 850.59375 772.363281 846.898438 773.148438 L 841.304688 774.316406 C 845.972656 773.390625 850.472656 772.316406 854.777344 771.117188 C 850.703125 771.875 849.414062 771.996094 848.972656 771.664062 C 850.488281 770.210938 863.808594 766.9375 871.613281 765.101562 Z M 871.613281 765.101562 " fill-opacity="1" fill-rule="nonzero"/><path fill="#231e44" d="M 624.910156 754.085938 C 618.621094 751.375 610.253906 747.75 604.054688 744.855469 C 585.539062 735.523438 584.8125 735.144531 574.734375 729.1875 C 555.0625 716.882812 553.898438 716.140625 542.257812 707.578125 L 538.878906 705.019531 C 557.761719 719.367188 582.21875 733.023438 611.375 744.84375 C 615.421875 748.933594 619.9375 752.023438 624.910156 754.085938 Z M 723.347656 779.316406 L 712.695312 777.921875 C 696.28125 775.269531 695.648438 775.164062 687.738281 773.453125 C 673.035156 770.027344 669.550781 769.226562 662.914062 767.222656 C 646.09375 762.070312 646.09375 762.070312 637.121094 758.796875 L 627.394531 755.085938 C 622.527344 753.117188 618.105469 750.054688 614.164062 745.964844 C 617.816406 747.402344 621.542969 748.84375 625.332031 750.222656 C 661.824219 763.601562 700.054688 772.390625 736.320312 776.589844 C 731.894531 778.847656 727.546875 779.773438 723.347656 779.316406 Z M 501.660156 672.617188 C 480.402344 650.160156 478.671875 648.328125 464.640625 629.945312 C 457.957031 620.277344 449.09375 607.335938 442.910156 597.335938 C 447.199219 604.457031 452.578125 611.625 458.972656 618.746094 C 463.777344 626.445312 468.15625 632.234375 473.613281 638.097656 C 481.78125 650.628906 491.160156 662.175781 501.660156 672.617188 Z M 610.375 743.8125 C 579.492188 731.292969 553.777344 716.730469 534.289062 701.472656 C 525.542969 694.183594 514.058594 684.257812 505.675781 676.558594 C 494.328125 665.617188 484.265625 653.386719 475.582031 640.007812 C 477.324219 641.507812 477.6875 641.765625 478.792969 642.160156 C 478.976562 641.945312 479.234375 641.660156 479.429688 641.445312 C 479.203125 640.007812 478.976562 639.492188 477.960938 637.296875 C 502.238281 658.28125 535.183594 678.558594 575.355469 696.304688 C 578.613281 702.214844 584.070312 706.714844 593.570312 711.351562 C 597.570312 725.21875 603.207031 736.128906 610.375 743.8125 Z M 737.320312 776.058594 C 700.480469 771.800781 661.640625 762.875 624.558594 749.28125 C 620.710938 747.871094 616.921875 746.417969 613.226562 744.949219 C 606.375 737.386719 601.027344 726.597656 597.28125 712.851562 C 606.464844 715.714844 611.117188 715.171875 612.347656 711.140625 C 656.488281 727.203125 702.4375 738.402344 746.761719 744.734375 C 746.535156 749.085938 750.398438 751.738281 759.703125 753.570312 C 752.109375 764.480469 744.578125 772.042969 737.320312 776.058594 Z M 459.351562 612.640625 C 457.488281 611.0625 457.109375 610.789062 456.019531 610.441406 C 455.398438 611.546875 455.277344 611.746094 457.382812 615.957031 C 450.546875 608.335938 444.863281 600.683594 440.410156 593.074219 C 434.984375 582.863281 427.757812 569.207031 422.863281 558.738281 C 410.433594 527.976562 403.601562 511.03125 396.765625 476.042969 C 401.144531 498.183594 415.527344 521.488281 438.621094 544.355469 C 442.394531 568.921875 449.410156 591.816406 459.351562 612.640625 Z M 589.371094 692.046875 C 579.566406 688.96875 575.1875 689.605469 574.765625 694.183594 C 534.242188 676.285156 501.011719 655.828125 476.535156 634.65625 C 472.003906 627.171875 467.351562 621.019531 461.472656 614.714844 C 451.667969 594.015625 444.742188 571.222656 441.0625 546.71875 C 474.019531 578.484375 523.785156 609.304688 586.886719 634.886719 C 585.933594 656.570312 586.8125 675.726562 589.371094 692.046875 Z M 769.445312 737.8125 C 758.597656 737.417969 751.867188 739.023438 747.65625 743.039062 C 702.949219 736.644531 656.609375 725.339844 612.074219 709.140625 C 609.453125 703.425781 603.707031 698.652344 593.402344 693.667969 C 591.070312 677.4375 590.386719 658.359375 591.480469 636.734375 C 597.480469 639.113281 603.585938 641.445312 609.816406 643.734375 C 669.792969 665.722656 732.605469 680.164062 792.191406 687.058594 C 784.722656 707.09375 777.082031 724.082031 769.445312 737.8125 Z M 438.136719 540.976562 C 414.558594 517.640625 400.023438 493.863281 395.886719 471.3125 L 393.207031 453.917969 C 391.054688 430.171875 388.371094 400.621094 392.3125 364.417969 C 392.71875 362.25 392.871094 361.523438 393.796875 355.964844 C 392.949219 384.617188 409.285156 415.851562 440.105469 446.355469 C 434.46875 479.785156 434 511.546875 438.136719 540.976562 Z M 587.023438 631.898438 C 523.664062 606.214844 473.6875 575.253906 440.5625 543.355469 C 436.515625 514.019531 437.046875 482.300781 442.699219 448.902344 C 474.355469 479.390625 520.46875 509.078125 578.339844 534.628906 C 578.808594 544.945312 584.054688 552.207031 595.886719 558.917969 C 591.039062 585.574219 588.128906 610.003906 587.023438 631.898438 Z M 793.207031 684.300781 C 733.378906 677.378906 670.277344 662.875 610.058594 640.796875 C 603.800781 638.492188 597.660156 636.144531 591.628906 633.75 C 592.886719 611.914062 595.886719 587.53125 600.785156 560.875 C 613.496094 564.011719 621.121094 561.753906 625.484375 553.539062 C 681.734375 573.996094 740.289062 588.273438 796.753906 596.347656 C 797.027344 605.867188 802.4375 611.304688 814.847656 614.5625 C 807.921875 640.703125 800.664062 664.011719 793.207031 684.300781 Z M 399.101562 323.550781 L 399.238281 322.914062 L 399.675781 320.972656 C 410.359375 281.769531 410.769531 280.238281 420.632812 256.660156 C 425.285156 246.871094 431.316406 233.714844 436.453125 224.167969 C 433.105469 230.261719 430.773438 236.566406 429.40625 243.035156 C 416.058594 267.539062 405.875 294.074219 399.386719 322.292969 C 399.28125 322.699219 399.191406 323.125 399.101562 323.550781 Z M 440.757812 442.613281 C 409.90625 412.09375 393.570312 380.847656 394.417969 352.175781 C 395.828125 343.402344 397.113281 334.625 398.644531 325.867188 C 398.75 325.457031 398.84375 325.035156 398.933594 324.609375 C 405.417969 296.394531 415.617188 269.84375 428.984375 245.308594 C 423.726562 275.648438 439.605469 309.578125 473.003906 342.644531 C 460.550781 369.207031 450.835938 396.816406 444.351562 425.035156 C 443 430.945312 441.804688 436.808594 440.757812 442.613281 Z M 603.175781 523.460938 C 590.523438 520.320312 583.3125 522.566406 579.082031 530.945312 C 521.164062 505.378906 475.035156 475.679688 443.347656 445.160156 C 444.394531 439.339844 445.609375 433.476562 446.957031 427.582031 C 453.441406 399.347656 463.125 371.722656 475.535156 345.113281 C 509.828125 378.164062 561.59375 410.214844 627.242188 436.839844 C 617.96875 465.328125 609.953125 493.96875 603.464844 522.203125 C 603.375 522.609375 603.269531 523.035156 603.175781 523.460938 Z M 823.515625 579.453125 C 810.132812 579.800781 802.390625 583.773438 797.632812 592.710938 C 741.125 584.621094 682.539062 570.34375 626.257812 549.871094 C 625.742188 539.75 620.148438 532.21875 608.101562 525.429688 C 608.207031 525.003906 608.300781 524.59375 608.390625 524.171875 C 614.875 495.953125 622.847656 467.285156 632.015625 438.75 C 638.257812 441.234375 644.625 443.660156 651.109375 446.039062 C 706.359375 466.296875 763.929688 480.40625 819.4375 488.347656 C 820.074219 498.757812 825.757812 504.925781 837.910156 508.351562 C 833.730469 532.066406 829.03125 555.449219 823.804688 578.195312 C 823.710938 578.605469 823.605469 579.027344 823.515625 579.453125 Z M 1140.261719 356.507812 L 1142.140625 374.148438 C 1140.035156 348.507812 1134.65625 323.503906 1126.304688 299.515625 C 1125.246094 292.847656 1123.183594 285.832031 1119.441406 276.101562 C 1118.410156 271.238281 1116.847656 266.34375 1114.773438 261.386719 C 1126.125 291.9375 1135.09375 316.0625 1140.261719 356.507812 Z M 431.226562 239.761719 C 432.636719 233.019531 435.105469 226.472656 438.683594 220.152344 L 452.140625 198.105469 C 473.003906 168.980469 483.492188 154.355469 512.738281 127.214844 L 516.390625 123.910156 C 516.042969 124.230469 515.695312 124.546875 515.347656 124.867188 C 503.34375 135.808594 496.160156 148.007812 493.449219 160.976562 C 468.777344 183.90625 447.714844 210.347656 431.226562 239.761719 Z M 474.703125 339.082031 C 441.378906 306.105469 425.558594 272.269531 430.800781 242.003906 C 447.289062 212.546875 468.382812 185.996094 493.070312 162.964844 C 488.917969 186.90625 499.722656 213.378906 523.195312 239.566406 C 517.605469 248.523438 516.996094 255.324219 521.210938 262.296875 C 503.269531 286.484375 487.582031 312.230469 474.703125 339.082031 Z M 628.5 433.003906 C 563.050781 406.457031 511.421875 374.480469 477.21875 341.535156 C 490.039062 314.636719 505.648438 288.800781 523.5 264.523438 C 530.410156 268.402344 536.5 266.964844 543.878906 259.734375 C 570.277344 282.601562 606.148438 304.667969 649.867188 323.972656 C 647.410156 334.1875 650.625 341.1875 660.550781 347.386719 C 648.804688 375.359375 638.015625 404.09375 628.5 433.003906 Z M 844.199219 469.785156 C 831.515625 470.328125 824.332031 474.695312 820.152344 484.363281 C 764.808594 476.453125 707.390625 462.390625 652.292969 442.1875 C 645.835938 439.808594 639.488281 437.386719 633.257812 434.914062 C 642.683594 405.972656 653.320312 377.164062 664.871094 349.128906 C 676.675781 351.628906 684.21875 348.933594 690.128906 340.113281 C 744.472656 359.886719 801.300781 372.890625 855.246094 379.132812 C 852.429688 409.136719 848.730469 439.582031 844.199219 469.785156 Z M 1068.8125 180.480469 C 1086.585938 206.167969 1096.375 220.320312 1110.605469 251.703125 L 1113.015625 257.21875 C 1115.273438 262.464844 1116.96875 267.660156 1118.0625 272.796875 C 1115.894531 268.085938 1114.953125 266.507812 1113.726562 265.480469 C 1113.515625 265.644531 1113.226562 265.859375 1113 266.007812 C 1112.96875 266.328125 1112.925781 266.753906 1112.894531 267.085938 C 1101.042969 242.414062 1085.90625 219.167969 1067.871094 197.878906 C 1066.492188 181.695312 1057.265625 164.480469 1041.199219 147.476562 C 1049.730469 157.160156 1061.144531 170.085938 1068.8125 180.480469 Z M 496.207031 158.449219 C 498.902344 145.550781 506.042969 133.445312 517.96875 122.5625 C 518.648438 121.941406 519.347656 121.320312 520.058594 120.714844 C 552.214844 94.875 552.214844 94.875 586.476562 74.632812 C 616.285156 59.628906 616.285156 59.628906 632.226562 53.507812 C 618.253906 58.796875 606.511719 65.507812 597.601562 73.632812 C 592.480469 78.3125 588.476562 83.285156 585.570312 88.480469 C 568.898438 97.027344 565.292969 104.300781 568.960938 105.242188 C 570.582031 105.667969 572.898438 105.03125 574.960938 104.484375 C 546.109375 119.046875 519.589844 137.1875 496.207031 158.449219 Z M 545.441406 232.171875 C 539.046875 228.59375 533.167969 229.882812 525.757812 236.519531 C 502.449219 210.5 491.707031 184.195312 495.828125 160.417969 C 520.753906 137.671875 549.230469 118.410156 580.296875 103.242188 C 576.703125 123.957031 587.554688 147.140625 610.375 169.738281 C 587.039062 188.480469 565.21875 209.457031 545.441406 232.171875 Z M 676.128906 311.972656 C 665.203125 309.636719 657.867188 312.152344 651.59375 320.351562 C 608.164062 301.183594 572.535156 279.269531 546.304688 256.554688 C 551.289062 247.597656 551.683594 240.929688 547.578125 234.261719 C 567.234375 211.425781 588.917969 190.316406 612.089844 171.417969 C 635.53125 193.984375 670.886719 215.878906 715.726562 234.066406 C 701.921875 258.628906 688.617188 284.800781 676.128906 311.972656 Z M 855.609375 375.148438 C 802.027344 368.949219 745.5625 356.039062 691.585938 336.398438 C 693.175781 326.335938 689.765625 319.519531 680.175781 313.59375 C 692.433594 286.332031 705.464844 260.054688 718.984375 235.367188 C 723.257812 237.066406 727.605469 238.734375 732.03125 240.355469 C 769.765625 254.191406 809.089844 263.828125 847.003906 269.253906 C 848.035156 278.9375 852.277344 284.316406 861.171875 287.238281 C 860.21875 315.652344 858.355469 345.171875 855.609375 375.148438 Z M 1005 113.636719 C 1011.921875 119.636719 1021.167969 127.667969 1027.851562 133.945312 L 1037.578125 143.671875 C 1054.339844 160.949219 1063.992188 178.511719 1065.386719 194.96875 C 1043.578125 169.796875 1017.683594 147.429688 988.34375 128.730469 C 987.328125 116.667969 979.296875 103.664062 965.355469 91.101562 C 969.628906 92.832031 970.949219 93.238281 972.113281 93.238281 C 972.039062 92.738281 971.628906 92.132812 971.28125 91.785156 C 983.449219 97.847656 994.707031 105.167969 1005 113.636719 Z M 889.222656 49.097656 L 896.34375 51.644531 C 913.089844 58.144531 915.667969 59.144531 929.410156 65.570312 C 947.929688 74.917969 948.65625 75.296875 958.734375 81.238281 C 978.007812 93.316406 979.585938 94.300781 991.191406 102.863281 L 1001.617188 110.910156 C 991.90625 103.089844 981.296875 96.316406 969.902344 90.679688 C 964.902344 87.101562 959.824219 84.269531 953.414062 81.480469 C 937.867188 70.222656 917.574219 59.628906 893.40625 50.765625 C 891.285156 49.976562 889.148438 49.21875 887.011719 48.492188 C 887.769531 48.640625 888.496094 48.855469 889.222656 49.097656 Z M 790.980469 29.410156 L 794.570312 29.65625 C 811.878906 31.230469 812.210938 31.261719 820.757812 32.503906 C 837.183594 35.171875 837.820312 35.261719 845.730469 36.988281 C 860.414062 40.398438 863.914062 41.21875 870.539062 43.203125 C 875.449219 44.703125 881.992188 46.6875 886.875 48.292969 C 886.222656 48.082031 885.554688 47.898438 884.875 47.761719 C 855.277344 37.792969 824.46875 31.898438 796.117188 30.0625 C 794.417969 29.730469 792.707031 29.519531 790.980469 29.410156 Z M 647.699219 47.960938 C 674.066406 40.003906 676.21875 39.351562 694.769531 35.59375 C 718.394531 31.578125 719.316406 31.425781 733.410156 30.125 C 754.65625 28.683594 754.65625 28.683594 765.976562 28.640625 C 772.703125 28.746094 781.691406 28.941406 788.417969 29.246094 C 790.3125 29.351562 792.191406 29.578125 794.070312 29.941406 C 768.765625 28.488281 745.488281 30.304688 726.863281 35.398438 C 719.074219 35.320312 713.074219 35.914062 707.421875 37.320312 C 686.78125 38.003906 666.761719 41.609375 647.699219 47.960938 Z M 589.886719 97.347656 C 605.601562 87.207031 600.601562 85.085938 599.980469 84.875 C 597.296875 83.964844 591.539062 86.058594 589.085938 86.9375 C 591.949219 81.8125 595.902344 76.902344 600.964844 72.265625 C 610.164062 63.886719 622.40625 57.023438 637.046875 51.703125 L 642.410156 49.777344 C 662.597656 42.6875 683.886719 38.640625 705.875 37.851562 C 705.632812 37.972656 705.328125 38.140625 705.101562 38.277344 C 705.101562 38.503906 705.117188 38.792969 705.117188 39.019531 C 706.648438 39.59375 708.359375 39.792969 713.40625 39.972656 C 706.117188 43.050781 699.921875 46.808594 695.054688 51.234375 C 689.238281 56.550781 685.765625 62.449219 684.449219 68.734375 C 651.292969 74.328125 619.5 84.011719 589.886719 97.347656 Z M 613.574219 167.175781 C 591.039062 144.871094 580.324219 121.972656 583.871094 101.515625 C 615.117188 86.632812 648.914062 75.859375 684.265625 69.691406 C 682.023438 82.632812 688.796875 97.074219 703.027344 111.167969 C 671.65625 126.140625 641.546875 145.066406 613.574219 167.175781 Z M 717.621094 230.714844 C 673.339844 212.757812 638.410156 191.132812 615.269531 168.84375 C 643.0625 146.550781 672.960938 127.414062 704.101562 112.210938 C 717.195312 124.835938 736.273438 137.125 760.234375 147.703125 C 755.671875 154.734375 755.714844 159.25 760.398438 162.8125 C 745.851562 183.4375 731.484375 206.257812 717.621094 230.714844 Z M 861.914062 251.566406 C 853.882812 252.308594 849.503906 256.476562 847.277344 265.464844 C 809.832031 260.097656 770.992188 250.597656 733.714844 236.929688 C 729.347656 235.324219 725.046875 233.6875 720.832031 232.003906 C 734.410156 207.425781 748.457031 184.480469 762.640625 163.722656 C 769.1875 164.675781 774.296875 162.21875 779.734375 155.523438 C 806.058594 165.101562 833.59375 171.390625 859.71875 174.417969 C 861.386719 198.285156 862.097656 224.230469 861.914062 251.566406 Z M 1068.960938 629.960938 L 1071.75 626.171875 C 1068.355469 630.839844 1064.28125 635.371094 1059.523438 639.71875 C 1058.808594 640.703125 1058.082031 641.691406 1057.355469 642.660156 C 1061.839844 638.566406 1065.703125 634.339844 1068.960938 629.960938 Z M 1126.882812 515.320312 L 1128.230469 510.820312 C 1124.351562 524.09375 1116.332031 536.597656 1103.863281 547.976562 C 1103.515625 549.207031 1103.148438 550.433594 1102.769531 551.644531 C 1114.984375 540.523438 1122.925781 528.292969 1126.882812 515.320312 Z M 960.476562 167.222656 C 954.945312 159.796875 948.382812 154.78125 940.988281 152.292969 C 940.15625 153.28125 939.035156 154.597656 938.199219 155.597656 C 939.003906 158.386719 940.546875 161.949219 941.867188 164.523438 C 921.53125 173.417969 892.617188 174.796875 861.535156 171.390625 C 858.019531 131.988281 851.839844 98.347656 842.925781 73.464844 C 851.109375 98.257812 856.597656 131.835938 859.492188 171.160156 C 834 168.222656 807.132812 162.070312 781.464844 152.734375 C 784.25 145.519531 784.25 145.519531 782.039062 139.382812 C 801.828125 110.832031 822.847656 88.558594 842.925781 73.464844 C 822.210938 88.316406 800.601562 110.347656 779.085938 137.714844 C 771.507812 138.277344 771.507812 138.277344 764.507812 143.15625 C 739.0625 134.777344 720.453125 122.804688 707.679688 110.484375 C 751.230469 89.722656 797.101562 76.675781 842.925781 73.464844 C 796.722656 76.3125 750.503906 89.011719 706.632812 109.46875 C 692.753906 95.726562 686.160156 81.632812 688.328125 69.007812 C 737.804688 60.933594 790.222656 61.917969 842.925781 73.464844 C 790.28125 61.582031 737.925781 60.28125 688.507812 68.070312 C 689.796875 61.949219 693.191406 56.1875 698.859375 51.007812 C 703.601562 46.6875 709.648438 43.019531 716.769531 40.019531 C 725.378906 39.914062 727.015625 39.792969 732.578125 39.324219 C 770.824219 42.097656 806.996094 53.429688 842.925781 73.464844 C 807.421875 53.28125 771.660156 41.808594 737.121094 38.335938 C 735.242188 36.972656 732.199219 35.835938 729.894531 35.550781 C 748.050781 30.59375 770.765625 28.820312 795.449219 30.230469 C 812.148438 34.019531 828.320312 48.113281 842.925781 73.464844 C 829.046875 48.15625 813.527344 34.09375 797.449219 30.351562 C 825.105469 32.140625 855.140625 37.882812 884.023438 47.613281 C 873.613281 46.082031 859.839844 54.292969 842.925781 73.464844 C 860.582031 54.550781 875.070312 46.566406 886.117188 48.324219 C 888.191406 49.035156 890.285156 49.777344 892.359375 50.535156 C 915.921875 59.1875 935.714844 69.523438 950.882812 80.511719 C 949.472656 80.132812 947.609375 79.632812 946.214844 79.253906 C 915.015625 70.949219 880.691406 68.175781 842.925781 73.464844 C 881.085938 68.480469 915.757812 71.554688 946.050781 81.464844 C 952.082031 85.042969 952.082031 85.042969 960.082031 88.785156 C 976.128906 102.152344 983.964844 114.835938 984.964844 126.59375 C 943.6875 100.894531 895.753906 82.40625 842.925781 73.464844 C 895.785156 82.738281 943.714844 101.542969 985.027344 127.535156 C 985.511719 136.429688 982.023438 144.761719 974.128906 151.976562 C 975.175781 152.886719 976.207031 153.808594 977.234375 154.734375 C 985.34375 147.355469 988.90625 138.792969 988.417969 129.699219 C 1017.757812 148.597656 1043.671875 171.175781 1065.492188 196.515625 C 1066.265625 210.941406 1060.628906 224.472656 1047.792969 236.171875 C 1048.566406 237.308594 1049.308594 238.445312 1050.066406 239.597656 C 1063.054688 227.746094 1068.765625 214.046875 1067.976562 199.4375 C 1086.011719 220.867188 1101.164062 244.234375 1113.03125 269.011719 C 1114.636719 278.070312 1115.894531 282.027344 1119.378906 291.890625 C 1118.0625 307.410156 1110.667969 321.957031 1096.605469 334.792969 C 1097.011719 336.019531 1097.421875 337.277344 1097.832031 338.503906 C 1112 325.578125 1119.441406 310.925781 1120.773438 295.316406 C 1121.957031 297.816406 1123.804688 301.046875 1125.472656 303.257812 C 1135.441406 327.519531 1141.003906 354.644531 1142.730469 382.4375 C 1143.867188 403.757812 1135.535156 423.777344 1116.578125 441.066406 C 1116.621094 442.339844 1116.667969 443.628906 1116.710938 444.917969 C 1135.714844 427.59375 1144.082031 407.53125 1142.929688 386.148438 C 1142.140625 377.253906 1141.398438 365.359375 1140.261719 356.507812 C 1132.441406 310.652344 1129.03125 296.574219 1110.605469 251.703125 C 1100.011719 230.1875 1089.070312 207.941406 1068.8125 180.480469 C 1050.066406 156.917969 1047.1875 153.296875 1027.851562 133.945312 C 1007.847656 115.714844 1006.210938 114.226562 991.191406 102.863281 C 971.628906 89.042969 970.871094 88.511719 958.734375 81.238281 C 940.171875 70.765625 939.804688 70.570312 929.410156 65.570312 C 912.652344 57.945312 910.5 56.960938 896.34375 51.644531 C 879.222656 45.703125 878.886719 45.582031 870.539062 43.203125 C 855.761719 39.230469 855.761719 39.230469 845.730469 36.988281 C 830.53125 33.988281 827.804688 33.457031 820.757812 32.503906 C 803.695312 30.335938 803.359375 30.304688 794.570312 29.65625 C 776.144531 28.640625 775.796875 28.625 765.976562 28.640625 C 746.035156 29.09375 744.835938 29.125 733.410156 30.125 C 710.832031 32.671875 708.980469 32.882812 694.769531 35.59375 C 669.277344 41.292969 666.003906 42.019531 646.957031 48.21875 C 620.058594 58.21875 613.664062 60.597656 586.476562 74.632812 C 560.003906 90.316406 542.5 100.679688 512.738281 127.214844 C 491.355469 148.25 474.476562 164.855469 452.140625 198.105469 C 432.53125 230.578125 430.9375 233.230469 420.632812 256.660156 C 406.8125 292.847656 405.691406 295.800781 399.675781 320.972656 C 390.570312 369.480469 386.960938 398.394531 393.207031 453.917969 C 401.007812 499.789062 404.433594 513.851562 422.863281 558.738281 C 433.4375 580.242188 444.378906 602.472656 464.640625 629.945312 C 483.386719 653.507812 486.28125 657.132812 505.617188 676.484375 C 525.605469 694.714844 527.242188 696.199219 542.257812 707.578125 C 561.824219 721.382812 562.582031 721.914062 574.734375 729.1875 C 593.644531 739.855469 593.644531 739.855469 604.054688 744.855469 C 620.816406 752.496094 622.953125 753.464844 637.121094 758.800781 C 654.230469 764.722656 654.566406 764.84375 662.914062 767.222656 C 677.6875 771.210938 677.6875 771.210938 687.738281 773.453125 C 703.859375 776.636719 703.859375 776.636719 712.695312 777.921875 C 716.605469 778.421875 721.800781 779.152344 725.726562 779.574219 C 730.105469 780.03125 734.621094 779.136719 739.214844 776.90625 C 776.886719 781.042969 812.316406 780.164062 841.304688 774.316406 L 846.898438 773.148438 C 816.921875 779.636719 779.8125 780.726562 740.261719 776.390625 C 747.851562 772.421875 755.6875 764.890625 763.550781 754.011719 C 775.339844 753.996094 778.554688 753.253906 785.054688 749.054688 C 838.972656 753.433594 888.738281 750.222656 927.652344 739.417969 C 926.699219 740.371094 925.425781 741.660156 924.46875 742.628906 C 938.167969 742.054688 957.519531 727.308594 958.339844 726.6875 C 954.339844 725.6875 950.882812 724.839844 930.109375 737.675781 C 890.859375 748.570312 840.65625 751.8125 786.28125 747.386719 C 785.265625 741.871094 785.265625 741.871094 776.886719 738.917969 C 781.492188 724.582031 789.328125 707.609375 796.949219 687.589844 C 868.808594 695.457031 935.699219 692.273438 986.828125 678.074219 C 986.40625 679.300781 985.828125 680.921875 985.40625 682.152344 C 986.039062 683.136719 986.890625 684.4375 987.539062 685.410156 C 999.738281 685.363281 1017.441406 671.605469 1020.773438 659.601562 C 1019.773438 658.84375 1018.46875 657.84375 1017.46875 657.101562 C 1005.132812 659.539062 997.316406 665.859375 988.691406 675.269531 C 937.335938 689.53125 870.160156 692.726562 797.996094 684.832031 C 805.574219 664.570312 812.9375 641.265625 819.910156 615.125 C 834.457031 614.730469 839.578125 610.699219 845.550781 601.835938 C 914.226562 607.425781 977.644531 603.335938 1027.246094 589.574219 C 1027.246094 611.988281 1048.734375 593.894531 1048.945312 593.699219 C 1061.429688 582.378906 1064.976562 565.238281 1055.15625 563.648438 C 1052.71875 563.238281 1037.367188 565.664062 1028.273438 585.921875 C 978.660156 599.699219 915.195312 603.804688 846.472656 598.199219 C 845.519531 591 844.625 584.195312 828.605469 580.027344 C 828.714844 579.605469 828.804688 579.179688 828.910156 578.753906 C 834.125 556.039062 838.789062 532.640625 842.914062 508.910156 C 857.019531 508.230469 861.871094 503.457031 866.839844 493.683594 C 933.5625 499.105469 995.164062 495.136719 1043.335938 481.769531 C 1049.777344 507.167969 1068.386719 487.257812 1070.296875 484.195312 C 1079.933594 468.738281 1073.191406 451.023438 1059.371094 455.492188 C 1057.265625 456.175781 1046.535156 460.464844 1043.414062 477.800781 C 995.375 491.136719 933.957031 495.105469 867.417969 489.695312 C 865.902344 481.921875 864.476562 474.589844 849.066406 470.328125 C 853.476562 440.113281 856.992188 409.652344 859.582031 379.617188 C 925.335938 386.800781 986.527344 383.890625 1033.304688 370.90625 C 1045.15625 396.5 1058.6875 377.285156 1059.855469 374.300781 C 1066.160156 358.113281 1052.398438 339.128906 1039.972656 346.824219 C 1034.246094 350.386719 1032.941406 359.128906 1032.304688 363.328125 C 986.027344 379.875 925.242188 382.769531 859.929688 375.632812 C 862.445312 345.628906 864.050781 316.078125 864.71875 287.648438 C 874.796875 285.617188 876.976562 283.40625 879.386719 272.890625 C 924.972656 276.601562 967.039062 273.890625 999.9375 264.753906 C 1015.96875 288.785156 1023.304688 271.648438 1023.621094 268.933594 C 1025.304688 255.023438 1008.332031 236.761719 999.738281 243.21875 C 995.875 246.128906 996.84375 253.960938 997.300781 257.71875 C 965.808594 270.039062 924.257812 272.738281 879.25 269.070312 C 876.25 258.433594 874.007812 255.707031 865.066406 251.933594 C 864.929688 224.546875 863.855469 198.574219 861.824219 174.664062 C 893.679688 178.132812 923.320312 176.722656 945.988281 170.433594 C 956.519531 181.921875 958.855469 181.585938 964.492188 180.785156 C 964.992188 173.753906 965.023438 173.328125 960.476562 167.222656 Z M 960.476562 167.222656 " fill-opacity="1" fill-rule="nonzero"/></g></svg>