<svg xmlns="http://www.w3.org/2000/svg" xmlns:xlink="http://www.w3.org/1999/xlink" width="1920" zoomAndPan="magnify" viewBox="0 0 1440 809.999993" height="1080" preserveAspectRatio="xMidYMid meet" version="1.0"><defs><filter x="0%" y="0%" width="100%" height="100%" id="8732985e21"><feColorMatrix values="0 0 0 0 1 0 0 0 0 1 0 0 0 0 1 0 0 0 1 0" color-interpolation-filters="sRGB"/></filter><clipPath id="6ee0fcd2b1"><path d="M 452.292969 405.300781 L 578 405.300781 L 578 498.316406 L 452.292969 498.316406 Z M 452.292969 405.300781 " clip-rule="nonzero"/></clipPath><mask id="ba83f28f4b"><g filter="url(#8732985e21)"><rect x="-144" width="1728" fill="#000000" y="-80.999999" height="971.999992" fill-opacity="0.42"/></g></mask><clipPath id="99823d9b4f"><path d="M 0.558594 0.800781 L 91.519531 0.800781 L 91.519531 42.800781 L 0.558594 42.800781 Z M 0.558594 0.800781 " clip-rule="nonzero"/></clipPath><clipPath id="af93ce8234"><rect x="0" width="92" y="0" height="43"/></clipPath><mask id="5a9b57660f"><g filter="url(#8732985e21)"><rect x="-144" width="1728" fill="#000000" y="-80.999999" height="971.999992" fill-opacity="0.35"/></g></mask><clipPath id="d6382bd897"><path d="M 0.519531 0.199219 L 644.441406 0.199219 L 644.441406 222.199219 L 0.519531 222.199219 Z M 0.519531 0.199219 " clip-rule="nonzero"/></clipPath><clipPath id="e101bce1bc"><rect x="0" width="645" y="0" height="223"/></clipPath><clipPath id="3026799e3c"><path d="M 126 520 L 872 520 L 872 769.414062 L 126 769.414062 Z M 126 520 " clip-rule="nonzero"/></clipPath><clipPath id="29c2b844ea"><path d="M 120 514 L 878 514 L 878 769.414062 L 120 769.414062 Z M 120 514 " clip-rule="nonzero"/></clipPath><mask id="7f8e850b21"><g filter="url(#8732985e21)"><rect x="-144" width="1728" fill="#000000" y="-80.999999" height="971.999992" fill-opacity="0.19"/></g></mask><clipPath id="778348c38f"><path d="M 0.0390625 0.398438 L 517 0.398438 L 517 199.601562 L 0.0390625 199.601562 Z M 0.0390625 0.398438 " clip-rule="nonzero"/></clipPath><clipPath id="f34ddc6fca"><rect x="0" width="517" y="0" height="200"/></clipPath><mask id="94040d374a"><g filter="url(#8732985e21)"><rect x="-144" width="1728" fill="#000000" y="-80.999999" height="971.999992" fill-opacity="0.62"/></g></mask><clipPath id="c679fa0e1c"><path d="M 0.398438 0.558594 L 658.960938 0.558594 L 658.960938 220.878906 L 0.398438 220.878906 Z M 0.398438 0.558594 " clip-rule="nonzero"/></clipPath><clipPath id="c8dcb19870"><rect x="0" width="659" y="0" height="221"/></clipPath><mask id="688625714d"><g filter="url(#8732985e21)"><rect x="-144" width="1728" fill="#000000" y="-80.999999" height="971.999992" fill-opacity="0.35"/></g></mask><clipPath id="29c147554c"><path d="M 0.078125 0.921875 L 644.238281 0.921875 L 644.238281 223.160156 L 0.078125 223.160156 Z M 0.078125 0.921875 " clip-rule="nonzero"/></clipPath><clipPath id="8ec7cad49b"><rect x="0" width="645" y="0" height="224"/></clipPath><clipPath id="7e519bc94e"><path d="M 136 281 L 892.78125 281 L 892.78125 542 L 136 542 Z M 136 281 " clip-rule="nonzero"/></clipPath><mask id="d9cd3b8fa1"><g filter="url(#8732985e21)"><rect x="-144" width="1728" fill="#000000" y="-80.999999" height="971.999992" fill-opacity="0.19"/></g></mask><clipPath id="ca1c4f5b53"><path d="M 0.601562 0.359375 L 517.558594 0.359375 L 517.558594 199.320312 L 0.601562 199.320312 Z M 0.601562 0.359375 " clip-rule="nonzero"/></clipPath><clipPath id="bff97b4eac"><rect x="0" width="518" y="0" height="200"/></clipPath><clipPath id="1faf081d3a"><path d="M 872 374 L 892.78125 374 L 892.78125 394 L 872 394 Z M 872 374 " clip-rule="nonzero"/></clipPath><clipPath id="9a82a4ef03"><path d="M 140 41.277344 L 868 41.277344 L 868 292 L 140 292 Z M 140 41.277344 " clip-rule="nonzero"/></clipPath><clipPath id="cd11f2107b"><path d="M 134 41.277344 L 874 41.277344 L 874 298 L 134 298 Z M 134 41.277344 " clip-rule="nonzero"/></clipPath><mask id="db6c12d5ec"><g filter="url(#8732985e21)"><rect x="-144" width="1728" fill="#000000" y="-80.999999" height="971.999992" fill-opacity="0.52"/></g></mask><clipPath id="f11918c2d2"><path d="M 0.800781 0.480469 L 644.960938 0.480469 L 644.960938 224.398438 L 0.800781 224.398438 Z M 0.800781 0.480469 " clip-rule="nonzero"/></clipPath><clipPath id="157909ee21"><rect x="0" width="645" y="0" height="225"/></clipPath><mask id="c0c650aaf3"><g filter="url(#8732985e21)"><rect x="-144" width="1728" fill="#000000" y="-80.999999" height="971.999992" fill-opacity="0.19"/></g></mask><clipPath id="c24f8a7169"><path d="M 0.519531 0.761719 L 516.761719 0.761719 L 516.761719 203.558594 L 0.519531 203.558594 Z M 0.519531 0.761719 " clip-rule="nonzero"/></clipPath><clipPath id="0d32bc3445"><rect x="0" width="517" y="0" height="204"/></clipPath><mask id="404f838407"><g filter="url(#8732985e21)"><rect x="-144" width="1728" fill="#000000" y="-80.999999" height="971.999992" fill-opacity="0.16"/></g></mask><clipPath id="32e1c9d346"><path d="M 0.160156 0.359375 L 70 0.359375 L 70 36.601562 L 0.160156 36.601562 Z M 0.160156 0.359375 " clip-rule="nonzero"/></clipPath><clipPath id="1385ad44e8"><rect x="0" width="70" y="0" height="37"/></clipPath></defs><g clip-path="url(#6ee0fcd2b1)"><path fill="#000000" d="M 560.445312 423.449219 C 554.730469 424.832031 548.789062 425.535156 543 426.617188 C 537.1875 427.695312 531.421875 428.953125 525.65625 430.335938 C 524.953125 430.511719 524.652344 429.457031 525.355469 429.28125 C 531.195312 427.773438 537.035156 426.390625 542.949219 425.160156 C 548.613281 424.003906 554.480469 422.722656 560.269531 422.21875 C 560.972656 422.144531 561.121094 423.273438 560.445312 423.449219 Z M 492.523438 463.632812 C 484.851562 462.425781 477.183594 461.144531 469.464844 460.238281 C 469.0625 460.1875 468.960938 460.894531 469.363281 460.96875 C 477.03125 462.578125 484.800781 463.78125 492.546875 465.0625 C 500.292969 466.347656 508.035156 467.703125 515.804688 468.832031 C 516.683594 468.960938 517.085938 467.628906 516.15625 467.453125 C 508.3125 466.042969 500.390625 464.863281 492.523438 463.632812 Z M 476.28125 484.839844 C 470.542969 483.058594 464.828125 481.246094 459.113281 479.414062 C 458.359375 479.160156 458.058594 480.367188 458.8125 480.59375 C 464.449219 482.402344 470.089844 484.1875 475.730469 485.945312 C 478.4375 486.777344 481.144531 487.605469 483.875 488.410156 C 487.183594 489.363281 490.566406 490.695312 493.949219 491.222656 C 494.351562 491.300781 494.675781 490.722656 494.226562 490.519531 C 491.242188 489.1875 487.886719 488.460938 484.753906 487.480469 C 481.945312 486.601562 479.113281 485.71875 476.28125 484.839844 Z M 459.136719 474.488281 C 458.460938 474.285156 458.183594 475.34375 458.863281 475.566406 C 470.339844 479.1875 481.84375 482.703125 493.347656 486.199219 C 493.875 486.347656 494.074219 485.542969 493.574219 485.367188 C 482.09375 481.675781 470.640625 478.03125 459.136719 474.488281 Z M 515.605469 461.921875 C 499.589844 459.183594 483.550781 456.597656 467.535156 453.882812 C 466.933594 453.78125 466.957031 454.535156 467.558594 454.660156 C 467.558594 454.660156 499.363281 460.414062 515.304688 463.355469 C 516.558594 463.582031 516.859375 462.148438 515.605469 461.921875 Z M 560.394531 416.742188 C 548.289062 418.574219 536.257812 420.8125 524.253906 423.199219 C 523.75 423.300781 523.976562 424.054688 524.476562 423.953125 C 536.535156 421.792969 548.613281 419.78125 560.71875 417.847656 C 561.449219 417.746094 561.121094 416.640625 560.394531 416.742188 Z M 574.933594 448.855469 C 574.855469 448.980469 574.757812 449.03125 574.632812 449.058594 C 574.503906 449.132812 574.378906 449.183594 574.230469 449.183594 C 572.875 449.359375 571.523438 449.535156 570.195312 449.710938 C 572.300781 454.183594 573.027344 460.515625 569.792969 464.585938 C 569.742188 464.636719 569.695312 464.6875 569.644531 464.738281 C 569.542969 464.839844 569.394531 464.914062 569.21875 464.9375 C 567.738281 465.265625 566.257812 465.59375 564.804688 465.917969 C 567.3125 470.515625 567.136719 475.96875 564.753906 480.59375 C 564.679688 480.769531 564.53125 480.84375 564.40625 480.894531 C 564.304688 480.945312 564.203125 480.996094 564.078125 481.019531 C 541.195312 486.699219 518.414062 492.808594 495.429688 498.109375 C 495.179688 498.234375 494.878906 498.261719 494.550781 498.160156 C 480.742188 494.1875 467.183594 489.441406 453.472656 485.242188 C 452.621094 484.992188 452.722656 483.859375 453.347656 483.585938 C 456.707031 479.011719 456.554688 472.804688 452.820312 468.457031 C 452.292969 467.828125 452.621094 467.050781 453.148438 466.722656 C 453.222656 466.648438 453.324219 466.597656 453.421875 466.570312 C 456.804688 465.742188 460.113281 464.585938 463.5 463.808594 C 464.550781 463.582031 465.003906 465.113281 463.949219 465.417969 C 461.316406 466.195312 458.636719 466.746094 455.953125 467.324219 C 462.246094 469.183594 468.535156 471.019531 474.800781 472.929688 C 478.285156 473.984375 481.746094 475.015625 485.230469 476.070312 C 486.933594 476.597656 488.664062 477.125 490.367188 477.652344 C 491.570312 478.03125 492.847656 478.28125 494 478.808594 C 500.066406 477.578125 506.132812 476.320312 512.222656 475.214844 C 506.03125 473.882812 499.816406 472.578125 493.625 471.296875 C 488.964844 470.316406 484.300781 469.3125 479.640625 468.230469 C 475.027344 467.148438 470.515625 465.667969 465.929688 464.664062 C 465.90625 464.664062 465.878906 464.636719 465.855469 464.636719 C 465.527344 464.585938 465.226562 464.335938 465.078125 463.910156 C 464.550781 462.226562 464.601562 460.316406 464.476562 458.554688 L 464.050781 452.699219 C 463.972656 451.820312 465.476562 451.59375 465.605469 452.472656 C 465.90625 454.410156 466.207031 456.34375 466.507812 458.253906 C 466.78125 459.988281 467.28125 461.847656 467.15625 463.605469 C 467.15625 463.65625 467.132812 463.707031 467.132812 463.757812 C 471.570312 464.6875 476.15625 465.191406 480.617188 466.019531 C 485.179688 466.875 489.765625 467.726562 494.328125 468.582031 C 503.675781 470.367188 513.050781 471.949219 522.421875 473.53125 C 522.5 473.558594 522.597656 473.558594 522.675781 473.582031 C 524.703125 469.511719 524.578125 464.761719 522.5 460.71875 C 522.347656 460.542969 522.199219 460.363281 522.046875 460.214844 C 522.023438 460.1875 522.023438 460.1875 521.996094 460.164062 C 519.941406 460.039062 517.835938 459.585938 515.804688 459.308594 C 514.351562 459.109375 512.875 458.882812 511.421875 458.65625 C 511.394531 458.65625 511.371094 458.65625 511.320312 458.65625 C 492.648438 455.566406 474 452.347656 455.300781 449.308594 C 454.226562 449.132812 454.675781 447.550781 455.730469 447.699219 C 455.929688 447.726562 456.128906 447.75 456.332031 447.777344 C 456.078125 443.503906 455.929688 439.257812 455.777344 434.984375 C 455.402344 434.933594 455.050781 434.859375 454.675781 434.808594 C 454.527344 434.785156 454.398438 434.734375 454.324219 434.632812 C 453.796875 434.332031 453.699219 433.351562 454.476562 433.125 C 458.386719 431.96875 462.320312 430.761719 466.332031 430.035156 C 464.875 428.050781 464.226562 425.257812 464.101562 422.972656 C 463.898438 419.882812 464.675781 416.867188 466.230469 414.226562 C 466.253906 414 466.40625 413.800781 466.707031 413.726562 C 473.347656 412.140625 480.039062 410.257812 486.78125 409.101562 C 490.917969 408.121094 495.878906 407.191406 498.585938 406.589844 C 501.445312 405.960938 503.976562 405.582031 506.910156 405.507812 C 513.226562 405.355469 519.640625 406.011719 525.933594 406.285156 C 539.339844 406.914062 551.824219 407.769531 566.210938 409.429688 C 566.785156 409.503906 566.960938 410.03125 566.859375 410.457031 C 566.910156 410.9375 566.636719 411.414062 566.058594 411.386719 C 565.707031 411.4375 565.355469 411.515625 565.007812 411.5625 C 564.429688 414.304688 564.128906 417.066406 564.28125 419.855469 C 564.40625 422.34375 564.980469 424.707031 565.53125 427.121094 C 565.933594 427.070312 566.335938 426.992188 566.734375 426.917969 C 567.761719 426.765625 568.265625 428.324219 567.1875 428.527344 C 563.453125 429.203125 559.691406 429.910156 555.957031 430.636719 C 562.222656 430.964844 568.363281 431.640625 574.554688 432.898438 C 574.707031 432.925781 574.804688 432.972656 574.90625 433.050781 C 575.257812 433.175781 575.457031 433.527344 575.484375 433.878906 C 578.089844 438.601562 577.839844 444.28125 574.933594 448.855469 Z M 563.703125 411.789062 C 549.117188 414.175781 534.527344 416.566406 519.96875 419.152344 C 519.96875 419.179688 519.941406 419.230469 519.941406 419.253906 C 518.664062 422.167969 518.238281 425.359375 518.664062 428.527344 C 518.863281 429.933594 519.238281 431.289062 519.714844 432.621094 C 520.09375 433.628906 520.644531 434.53125 521.09375 435.511719 C 535.507812 432.546875 549.867188 429.605469 564.40625 427.320312 C 562.523438 422.421875 562.675781 416.867188 563.703125 411.789062 Z M 471.144531 414.226562 C 486.90625 415.410156 502.671875 416.566406 518.4375 417.996094 C 518.488281 417.972656 518.539062 417.945312 518.613281 417.945312 C 532.121094 415.058594 545.78125 412.820312 559.441406 410.683594 C 559.792969 410.632812 560.117188 410.609375 560.46875 410.558594 C 549.339844 409.476562 538.214844 408.648438 527.035156 408.097656 C 520.617188 407.769531 514.203125 407.316406 507.761719 407.015625 C 506.808594 406.964844 505.882812 406.964844 504.980469 407.015625 C 500.992188 407.84375 497.007812 408.699219 493.023438 409.503906 C 490.167969 410.230469 487.03125 411.011719 484.953125 411.4375 C 480.339844 412.46875 475.730469 413.296875 471.144531 414.226562 Z M 518.386719 419.832031 C 511.847656 419.253906 505.304688 418.675781 498.761719 418.074219 C 497.8125 423.425781 498.085938 428.550781 500.042969 433.628906 C 506.132812 434.257812 512.222656 434.832031 518.335938 435.3125 C 517.234375 433.199219 516.832031 430.488281 516.734375 428.351562 C 516.609375 425.410156 517.183594 422.496094 518.386719 419.832031 Z M 496.910156 417.921875 C 492.398438 417.519531 487.886719 417.09375 483.375 416.664062 C 482.046875 421.792969 482.496094 427.167969 484.777344 431.96875 C 489.3125 432.496094 493.851562 433.023438 498.386719 433.503906 C 496.28125 428.652344 495.578125 423.046875 496.910156 417.921875 Z M 468.285156 429.933594 C 473.046875 430.535156 477.808594 431.113281 482.597656 431.691406 C 480.464844 426.84375 480.015625 421.640625 481.367188 416.464844 C 476.605469 416.011719 471.84375 415.535156 467.082031 415.058594 C 466.980469 415.082031 466.855469 415.082031 466.78125 415.058594 C 465.652344 417.445312 465.175781 420.007812 465.453125 422.644531 C 465.753906 425.484375 467.109375 427.519531 468.285156 429.933594 Z M 511.746094 443.277344 C 493.550781 440.640625 475.304688 438.152344 457.15625 435.1875 C 457.332031 439.433594 457.53125 443.679688 457.609375 447.925781 C 475.527344 450.4375 493.398438 453.050781 511.269531 455.890625 C 511.292969 455.792969 511.320312 455.714844 511.371094 455.617188 C 513.175781 451.722656 513.375 447.296875 511.746094 443.277344 Z M 513 441.039062 C 531.421875 438 549.941406 435.761719 568.492188 433.679688 C 562.902344 432.773438 557.285156 431.867188 551.621094 431.515625 C 551.597656 431.515625 551.597656 431.515625 551.574219 431.515625 C 541.394531 433.527344 531.246094 435.636719 521.121094 437.75 C 521.070312 437.75 521.019531 437.75 520.96875 437.773438 C 520.84375 437.824219 520.667969 437.847656 520.492188 437.824219 C 502.921875 436.367188 485.480469 433.953125 468.035156 431.441406 C 467.933594 431.464844 467.835938 431.441406 467.710938 431.417969 C 467.660156 431.441406 467.632812 431.441406 467.582031 431.464844 C 464.5 432.269531 461.417969 433 458.335938 433.777344 C 476.40625 435.988281 494.453125 438.277344 512.472656 440.839844 C 512.699219 440.863281 512.847656 440.941406 513 441.039062 Z M 553.703125 449.886719 C 556.257812 449.535156 558.789062 449.207031 561.347656 448.882812 C 562.398438 444.785156 562.199219 440.539062 560.34375 436.769531 C 557.789062 437.070312 555.230469 437.371094 552.675781 437.671875 C 554.453125 441.417969 555.132812 445.941406 553.703125 449.886719 Z M 540.84375 451.695312 C 544.53125 451.167969 548.214844 450.640625 551.898438 450.136719 C 552.824219 445.992188 553.101562 442.019531 551.347656 438 C 551.320312 437.949219 551.296875 437.875 551.296875 437.824219 C 547.636719 438.25 543.976562 438.703125 540.320312 439.15625 C 541.949219 443.078125 542.398438 447.699219 540.84375 451.695312 Z M 529.941406 453.355469 C 533 452.875 536.082031 452.398438 539.164062 451.945312 C 540.417969 447.625 540.746094 443.527344 539.039062 439.308594 C 535.808594 439.683594 532.574219 440.085938 529.367188 440.460938 C 531.320312 444.507812 531.621094 449.183594 529.941406 453.355469 Z M 528.464844 453.605469 C 529.515625 449.28125 529.816406 444.859375 527.9375 440.664062 C 527.9375 440.664062 527.9375 440.664062 527.9375 440.640625 C 523.101562 441.214844 518.238281 441.769531 513.375 442.296875 C 515.355469 446.746094 515.457031 451.695312 513.476562 456.167969 C 518.464844 455.265625 523.449219 454.410156 528.464844 453.605469 Z M 538.691406 454.132812 C 531.796875 455.136719 524.90625 456.144531 517.988281 457.125 C 519.464844 457.25 520.96875 457.351562 522.375 457.652344 C 527.8125 456.445312 533.25 455.265625 538.691406 454.132812 Z M 493.625 481.347656 C 493.523438 481.246094 493.449219 481.148438 493.398438 481.019531 C 492.144531 480.796875 490.96875 480.292969 489.765625 479.914062 C 488.0625 479.363281 486.332031 478.835938 484.628906 478.308594 C 481.167969 477.226562 477.710938 476.144531 474.226562 475.066406 C 468.085938 473.15625 461.96875 471.195312 455.878906 469.183594 C 458.511719 473.835938 458.210938 479.464844 454.902344 483.8125 C 468.285156 487.480469 481.519531 491.601562 494.851562 495.445312 C 496.933594 490.796875 497.558594 485.242188 493.625 481.347656 Z M 520.042969 483.660156 C 519.742188 481.046875 518.914062 478.632812 517.585938 476.421875 C 510.46875 478.15625 503.222656 479.363281 496.054688 480.769531 C 499.765625 484.992188 499.039062 491.074219 496.957031 496.023438 C 504.527344 493.988281 512.097656 491.976562 519.667969 489.992188 C 519.691406 489.214844 519.941406 488.433594 520.042969 487.605469 C 520.191406 486.296875 520.167969 484.964844 520.042969 483.660156 Z M 544.628906 470.894531 C 542.296875 471.523438 539.96875 472.152344 537.636719 472.804688 C 535.304688 473.457031 532.976562 474.109375 530.644531 474.765625 C 528.363281 475.417969 526.058594 476.070312 523.777344 476.773438 C 523 477 522.046875 477.175781 521.269531 477 C 520.644531 476.851562 520.21875 476.75 519.414062 476.546875 C 520.59375 478.535156 521.519531 480.945312 521.871094 483.234375 C 522.121094 484.839844 522.375 487.480469 521.820312 489.441406 C 530.042969 487.277344 538.261719 485.144531 546.484375 483.03125 C 547.160156 478.808594 546.710938 474.6875 544.628906 470.894531 Z M 564.253906 472.953125 C 564.203125 470.917969 563.503906 468.003906 561.824219 466.621094 C 556.558594 467.855469 551.296875 469.136719 546.058594 470.515625 C 548.113281 474.160156 549.015625 478.484375 548.238281 482.578125 C 553.175781 481.324219 558.113281 480.066406 563.078125 478.835938 C 563.929688 476.949219 564.304688 474.992188 564.253906 472.953125 Z M 569.59375 457.222656 C 569.59375 454.835938 569.042969 452.5 567.964844 450.363281 C 567.914062 450.289062 567.890625 450.1875 567.863281 450.113281 C 560.695312 451.695312 553.375 452.800781 546.160156 454.257812 C 538.738281 455.765625 531.347656 457.351562 523.953125 458.984375 C 523.953125 459.035156 523.953125 459.058594 523.953125 459.109375 C 526.15625 462.625 526.757812 466.824219 525.808594 470.742188 C 525.632812 472.074219 525.28125 473.355469 524.804688 474.636719 C 539.292969 470.339844 553.902344 466.597656 568.589844 463.054688 C 569.042969 461.117188 569.59375 459.257812 569.59375 457.222656 Z M 573.703125 435.210938 C 569.769531 435.636719 565.808594 436.089844 561.875 436.566406 C 563.777344 440.5625 563.953125 444.484375 562.953125 448.65625 C 566.6875 448.175781 570.445312 447.699219 574.179688 447.246094 C 574.179688 447.246094 574.203125 447.246094 574.203125 447.246094 C 575.757812 443.605469 575.984375 438.601562 573.703125 435.210938 Z M 573.703125 435.210938 " fill-opacity="1" fill-rule="nonzero"/></g><g mask="url(#ba83f28f4b)"><g transform="matrix(1, 0, 0, 1, 112, 388)"><g clip-path="url(#af93ce8234)"><path fill="#010101" d="M 35.167969 3.394531 L 2.863281 20.398438 L 89.238281 40.417969 Z M 35.167969 3.394531 " fill-opacity="1" fill-rule="nonzero"/><g clip-path="url(#99823d9b4f)"><path stroke-linecap="butt" transform="matrix(0.417753, 0, 0, 0.417844, -33.53825, -402.714211)" fill="none" stroke-linejoin="miter" d="M 164.466155 971.913654 L 87.136506 1012.607997 L 293.897474 1060.51944 Z M 164.466155 971.913654 " stroke="#000000" stroke-width="1" stroke-opacity="1" stroke-miterlimit="10"/></g></g></g></g><path stroke-linecap="butt" transform="matrix(0.417753, 0, 0, 0.417844, 78.46175, -14.714221)" fill-opacity="1" fill="#ffffff" fill-rule="nonzero" stroke-linejoin="miter" d="M 1874.928796 1522.06792 L 1871.356858 1353.681401 L 660.039803 1632.044546 L 197.810476 1359.776672 C 197.810476 1359.776672 187.739855 1351.278818 179.127932 1355.298705 C 170.516008 1359.318592 169.79601 1366.881588 169.79601 1366.881588 L 163.437587 1505.072212 C 163.437587 1505.072212 162.57733 1513.915963 169.001207 1517.991941 C 175.434436 1522.058571 648.893861 1818.49251 648.893861 1818.49251 Z M 1874.928796 1522.06792 " stroke="#000000" stroke-width="1" stroke-opacity="1" stroke-miterlimit="10"/><path stroke-linecap="butt" transform="matrix(0.417753, 0, 0, 0.417844, 78.46175, -14.714221)" fill-opacity="1" fill="#f26822" fill-rule="nonzero" stroke-linejoin="miter" d="M 1293.750198 998.033593 L 1888.599406 1299.684037 L 664.995633 1591.780237 L 148.373734 1281.426271 Z M 1293.750198 998.033593 " stroke="#000000" stroke-width="1" stroke-opacity="1" stroke-miterlimit="10"/><g mask="url(#5a9b57660f)"><g transform="matrix(1, 0, 0, 1, 179, 415)"><g clip-path="url(#e101bce1bc)"><path fill="#f9a11b" d="M 180.058594 219.867188 C 179.601562 219.867188 179.148438 219.746094 178.75 219.503906 L 3.980469 114.496094 C 3.097656 113.964844 2.621094 112.957031 2.777344 111.941406 C 2.929688 110.925781 3.679688 110.097656 4.675781 109.851562 L 437.273438 2.792969 C 437.863281 2.644531 438.488281 2.71875 439.03125 2.992188 L 640.792969 105.332031 C 641.742188 105.8125 642.292969 106.835938 642.167969 107.894531 C 642.042969 108.949219 641.269531 109.820312 640.234375 110.066406 L 180.648438 219.796875 C 180.453125 219.839844 180.253906 219.867188 180.058594 219.867188 Z M 11.867188 113.304688 L 180.480469 214.613281 L 632.328125 106.726562 L 437.582031 7.945312 Z M 11.867188 113.304688 " fill-opacity="1" fill-rule="nonzero"/><g clip-path="url(#d6382bd897)"><path stroke-linecap="butt" transform="matrix(0.417753, 0, 0, 0.417844, -100.53825, -429.714211)" fill="none" stroke-linejoin="miter" d="M 671.681328 1554.600934 C 670.587305 1554.600934 669.502633 1554.311129 668.548869 1553.731517 L 250.192663 1302.423145 C 248.079423 1301.151739 246.938647 1298.739807 247.312672 1296.309178 C 247.677346 1293.878549 249.472666 1291.896651 251.857074 1291.307691 L 1287.391775 1035.091318 C 1288.803719 1034.736072 1290.299818 1034.913695 1291.599555 1035.568095 L 1774.568563 1280.49139 C 1776.840764 1281.641265 1778.159202 1284.090592 1777.859982 1286.624055 C 1777.560762 1289.14817 1775.709339 1291.232902 1773.231424 1291.821862 L 673.093272 1554.43266 C 672.625741 1554.535494 672.148859 1554.600934 671.681328 1554.600934 Z M 269.071571 1299.57183 L 672.691195 1542.027102 L 1754.305764 1283.828831 L 1288.130474 1047.422087 Z M 269.071571 1299.57183 " stroke="#000000" stroke-width="1" stroke-opacity="1" stroke-miterlimit="10"/></g></g></g></g><g clip-path="url(#3026799e3c)"><path fill="#cd5928" d="M 871.757812 618.847656 L 871.757812 639.140625 L 351.867188 769.207031 L 131.238281 627.339844 C 131.238281 627.339844 115.277344 571.390625 140.445312 520.722656 L 356.265625 650.402344 L 867.429688 528.355469 L 867.429688 549.261719 L 354.195312 667.226562 L 158.6875 552.042969 C 154.660156 549.65625 149.539062 552.421875 149.328125 557.097656 L 146.714844 614.671875 C 146.621094 616.742188 147.644531 618.699219 149.394531 619.800781 L 349.539062 745.132812 Z M 871.757812 618.847656 " fill-opacity="1" fill-rule="nonzero"/></g><g clip-path="url(#29c2b844ea)"><path stroke-linecap="butt" transform="matrix(0.417753, 0, 0, 0.417844, 78.46175, -14.714221)" fill="none" stroke-linejoin="miter" d="M 1898.959896 1516.262455 L 1898.959896 1564.828298 L 654.466832 1876.107773 L 126.334316 1536.586255 C 126.334316 1536.586255 88.127672 1402.686627 148.373734 1281.426271 L 664.995633 1591.780237 L 1888.599406 1299.693385 L 1888.599406 1349.726954 L 660.039803 1632.044546 L 192.041141 1356.383139 C 182.40065 1350.67116 170.141983 1357.289951 169.63705 1368.480194 L 163.381483 1506.268829 C 163.157068 1511.223574 165.606931 1515.907209 169.79601 1518.543507 L 648.893861 1818.49251 Z M 1898.959896 1516.262455 " stroke="#000000" stroke-width="1" stroke-opacity="1" stroke-miterlimit="10"/></g><g mask="url(#7f8e850b21)"><g transform="matrix(1, 0, 0, 1, 347, 548)"><g clip-path="url(#f34ddc6fca)"><path fill="#f9a11b" d="M 2.539062 197.136719 L 7.195312 119.226562 L 513.226562 2.917969 L 514.71875 73.273438 Z M 2.539062 197.136719 " fill-opacity="1" fill-rule="nonzero"/><g clip-path="url(#778348c38f)"><path stroke-linecap="butt" transform="matrix(0.417753, 0, 0, 0.417844, -268.53825, -562.714211)" fill="none" stroke-linejoin="miter" d="M 648.893861 1818.501835 L 660.039803 1632.044523 L 1871.356858 1353.690726 L 1874.928796 1522.067896 Z M 648.893861 1818.501835 " stroke="#000000" stroke-width="1" stroke-opacity="1" stroke-miterlimit="10"/></g></g></g></g><path stroke-linecap="butt" transform="matrix(0.417753, 0, 0, 0.417844, 78.46175, -14.714221)" fill-opacity="1" fill="#e98d24" fill-rule="nonzero" stroke-linejoin="miter" d="M 1898.959896 1516.262455 L 1874.526719 1503.043571 L 1874.928796 1522.06792 Z M 1898.959896 1516.262455 " stroke="#000000" stroke-width="1" stroke-opacity="1" stroke-miterlimit="10"/><path stroke-linecap="butt" transform="matrix(0.417753, 0, 0, 0.417844, 78.46175, -14.714221)" fill-opacity="1" fill="#e98d24" fill-rule="nonzero" stroke-linejoin="miter" d="M 1888.599406 1349.717606 L 1871.441013 1357.16842 L 1871.356858 1353.69075 Z M 1888.599406 1349.717606 " stroke="#000000" stroke-width="1" stroke-opacity="1" stroke-miterlimit="10"/><path stroke-linecap="butt" transform="matrix(0.417753, 0, 0, 0.417844, 78.46175, -14.714221)" fill-opacity="1" fill="#fce586" fill-rule="nonzero" stroke-linejoin="miter" d="M 1251.803305 1086.854397 L 1572.464206 1263.103066 L 1450.092608 1306.134553 L 1146.627502 1115.414291 Z M 1251.803305 1086.854397 " stroke="#000000" stroke-width="1" stroke-opacity="1" stroke-miterlimit="10"/><path stroke-linecap="butt" transform="matrix(0.417753, 0, 0, 0.417844, 78.46175, -14.714221)" fill-opacity="1" fill="#fce586" fill-rule="nonzero" stroke-linejoin="miter" d="M 1050.269336 1150.649067 L 1354.061714 1331.141989 L 1341.746944 1338.340391 L 1038.300539 1156.678897 Z M 1050.269336 1150.649067 " stroke="#000000" stroke-width="1" stroke-opacity="1" stroke-miterlimit="10"/><path stroke-linecap="butt" transform="matrix(0.417753, 0, 0, 0.417844, 78.46175, -14.714221)" fill-opacity="1" fill="#e5e1d3" fill-rule="nonzero" stroke-linejoin="miter" d="M 195.454119 1397.582306 C 231.491418 1417.990243 267.10794 1439.080627 302.565501 1460.414073 C 320.341034 1471.006007 337.957607 1481.859702 355.658336 1492.591865 L 408.508055 1525.152949 L 461.133359 1558.078627 C 478.590971 1569.194082 496.132739 1580.169308 513.506196 1591.406294 C 548.346616 1613.749387 583.037426 1636.335542 617.298107 1659.604143 C 581.260807 1639.196206 545.644286 1618.105822 510.168024 1596.781725 C 492.39249 1586.180441 474.775917 1575.326747 457.084539 1564.603932 L 404.244171 1532.0335 L 351.628217 1499.089124 C 334.170605 1487.992367 316.638188 1476.998443 299.25538 1465.761457 C 264.40561 1443.418365 229.724151 1420.841558 195.454119 1397.582306 Z M 195.454119 1397.582306 " stroke="#000000" stroke-width="1" stroke-opacity="1" stroke-miterlimit="10"/><path stroke-linecap="butt" transform="matrix(0.417753, 0, 0, 0.417844, 78.46175, -14.714221)" fill-opacity="1" fill="#e5e1d3" fill-rule="nonzero" stroke-linejoin="miter" d="M 193.593345 1443.203348 C 229.630644 1463.611285 265.247166 1484.701669 300.714077 1506.025766 C 318.48026 1516.627049 336.096833 1527.480744 353.797562 1538.212907 L 406.647281 1570.773991 L 459.272585 1603.69967 C 476.730197 1614.805776 494.271965 1625.79035 511.645422 1637.027337 C 546.485842 1659.370429 581.176652 1681.956584 615.437333 1705.215837 C 579.400034 1684.817248 543.783512 1663.726864 508.30725 1642.402767 C 490.531716 1631.801484 472.924494 1620.947789 455.223765 1610.215626 L 402.383397 1577.654542 L 349.767444 1544.710166 C 332.309831 1533.613409 314.777414 1522.619486 297.403957 1511.382499 C 262.554187 1489.039407 227.863377 1466.4626 193.593345 1443.203348 Z M 193.593345 1443.203348 " stroke="#000000" stroke-width="1" stroke-opacity="1" stroke-miterlimit="10"/><path stroke-linecap="butt" transform="matrix(0.417753, 0, 0, 0.417844, 78.46175, -14.714221)" fill-opacity="1" fill="#e5e1d3" fill-rule="nonzero" stroke-linejoin="miter" d="M 195.454119 1490.497785 C 231.491418 1510.905722 267.10794 1531.996105 302.565501 1553.329552 C 320.341034 1563.930835 337.957607 1574.78453 355.658336 1585.507344 L 408.508055 1618.068428 L 461.133359 1651.003455 C 478.590971 1662.109561 496.132739 1673.094136 513.506196 1684.331122 C 548.346616 1706.674214 583.037426 1729.260369 617.298107 1752.519622 C 581.260807 1732.121033 545.644286 1711.03065 510.168024 1689.697203 C 492.39249 1679.09592 474.775917 1668.251574 457.084539 1657.519411 L 404.244171 1624.948979 L 351.628217 1592.013952 C 334.170605 1580.907846 316.638188 1569.923271 299.25538 1558.676936 C 264.40561 1536.343192 229.724151 1513.757037 195.454119 1490.497785 Z M 195.454119 1490.497785 " stroke="#000000" stroke-width="1" stroke-opacity="1" stroke-miterlimit="10"/><path stroke-linecap="butt" transform="matrix(0.417753, 0, 0, 0.417844, 78.46175, -14.714221)" fill-opacity="1" fill="#e5e1d3" fill-rule="nonzero" stroke-linejoin="miter" d="M 721.370537 1663.007024 C 813.698584 1637.401279 906.400657 1613.338049 999.242989 1589.826385 C 1045.622077 1577.92565 1092.141424 1566.58583 1138.585967 1554.993598 L 1278.15336 1521.030228 L 1417.917116 1487.917578 L 1487.887825 1471.707151 L 1522.877854 1463.620634 L 1557.905287 1455.702391 C 1651.299305 1434.499825 1744.824233 1413.858173 1838.723185 1394.787082 C 1746.404488 1420.420872 1653.693065 1444.493451 1560.860083 1467.995767 L 1526.047716 1476.839518 L 1491.197945 1485.524343 L 1421.498404 1502.837903 L 1281.931011 1536.782575 L 1142.157904 1569.86718 C 1095.498298 1580.61804 1048.913496 1591.63066 1002.179084 1602.082366 C 908.794416 1623.275584 815.260138 1643.917236 721.370537 1663.007024 Z M 721.370537 1663.007024 " stroke="#000000" stroke-width="1" stroke-opacity="1" stroke-miterlimit="10"/><path stroke-linecap="butt" transform="matrix(0.417753, 0, 0, 0.417844, 78.46175, -14.714221)" fill-opacity="1" fill="#e5e1d3" fill-rule="nonzero" stroke-linejoin="miter" d="M 721.370537 1705.758054 C 813.698584 1680.152309 906.400657 1656.089079 999.242989 1632.577415 C 1045.622077 1620.67668 1092.141424 1609.33686 1138.585967 1597.744628 L 1278.15336 1563.781258 L 1417.917116 1530.668608 L 1487.887825 1514.45818 L 1522.877854 1506.371664 L 1557.905287 1498.453421 C 1651.299305 1477.250855 1744.824233 1456.609203 1838.723185 1437.538112 C 1746.404488 1463.171902 1653.693065 1487.244481 1560.860083 1510.746796 L 1526.047716 1519.590548 L 1491.197945 1528.266024 L 1421.498404 1545.588932 L 1281.931011 1579.533605 L 1142.157904 1612.618209 C 1095.498298 1623.36907 1048.913496 1634.38169 1002.179084 1644.833396 C 908.794416 1666.017265 815.260138 1686.668265 721.370537 1705.758054 Z M 721.370537 1705.758054 " stroke="#000000" stroke-width="1" stroke-opacity="1" stroke-miterlimit="10"/><path stroke-linecap="butt" transform="matrix(0.417753, 0, 0, 0.417844, 78.46175, -14.714221)" fill-opacity="1" fill="#e5e1d3" fill-rule="nonzero" stroke-linejoin="miter" d="M 721.370537 1753.145977 C 813.698584 1727.540232 906.400657 1703.477002 999.242989 1679.965338 C 1045.622077 1668.073951 1092.141424 1656.734131 1138.585967 1645.13255 L 1278.15336 1611.16918 L 1417.917116 1578.056531 L 1487.887825 1561.846103 L 1522.877854 1553.759586 L 1557.905287 1545.841344 C 1651.299305 1524.638778 1744.824233 1503.997126 1838.723185 1484.926034 C 1746.404488 1510.559825 1653.693065 1534.632403 1560.860083 1558.144067 L 1526.047716 1566.97847 L 1491.197945 1575.663296 L 1421.498404 1592.976855 L 1281.931011 1626.921528 L 1142.157904 1659.996783 C 1095.498298 1670.747644 1048.913496 1681.760264 1002.179084 1692.21197 C 908.794416 1713.414536 815.260138 1734.046839 721.370537 1753.145977 Z M 721.370537 1753.145977 " stroke="#000000" stroke-width="1" stroke-opacity="1" stroke-miterlimit="10"/><path stroke-linecap="butt" transform="matrix(0.417753, 0, 0, 0.417844, 78.46175, -14.714221)" fill-opacity="1" fill="#f04d6e" fill-rule="nonzero" stroke-linejoin="miter" d="M 1588.416368 1460.582347 L 1675.087289 1438.725381 C 1675.087289 1438.725381 1688.103356 1488.441098 1676.022351 1528.396904 L 1642.799589 1500.519456 L 1611.671367 1542.101914 C 1611.680717 1542.101914 1611.4189 1477.774375 1588.416368 1460.582347 Z M 1588.416368 1460.582347 " stroke="#000000" stroke-width="1" stroke-opacity="1" stroke-miterlimit="10"/><path stroke-linecap="butt" transform="matrix(0.417753, 0, 0, 0.417844, 78.46175, -14.714221)" fill-opacity="1" fill="#f04d6e" fill-rule="nonzero" stroke-linejoin="miter" d="M 1041.292738 1633.147678 L 1128.356385 1613.478278 C 1128.356385 1613.478278 1141.363102 1662.352624 1129.282097 1702.30843 L 1096.059335 1674.430982 L 1064.931112 1716.01344 C 1064.931112 1716.022788 1064.285919 1650.339706 1041.292738 1633.147678 Z M 1041.292738 1633.147678 " stroke="#000000" stroke-width="1" stroke-opacity="1" stroke-miterlimit="10"/><path stroke-linecap="butt" transform="matrix(0.417753, 0, 0, 0.417844, 78.46175, -14.714221)" fill-opacity="1" fill="#ffffff" fill-rule="nonzero" stroke-linejoin="miter" d="M 1887.720447 1002.904201 L 1896.435228 1220.052882 L 1390.332779 1522.638183 C 1390.332779 1522.638183 1319.436358 1466.920681 1366.404536 1320.12002 Z M 1887.720447 1002.904201 " stroke="#000000" stroke-width="1" stroke-opacity="1" stroke-miterlimit="10"/><path stroke-linecap="butt" transform="matrix(0.417753, 0, 0, 0.417844, 78.46175, -14.714221)" fill-opacity="1" fill="#55c1ae" fill-rule="nonzero" stroke-linejoin="miter" d="M 1892.910043 985.515853 L 1353.753143 1313.351652 L 87.136506 1012.608021 L 653.39151 714.575475 Z M 1892.910043 985.515853 " stroke="#000000" stroke-width="1" stroke-opacity="1" stroke-miterlimit="10"/><g mask="url(#94040d374a)"><g transform="matrix(1, 0, 0, 1, 164, 298)"><g clip-path="url(#c8dcb19870)"><path fill="#07b28f" d="M 476.664062 218.675781 C 476.378906 218.675781 476.09375 218.640625 475.808594 218.574219 L 5.789062 106.953125 C 4.292969 106.597656 3.167969 105.34375 2.976562 103.8125 C 2.78125 102.285156 3.558594 100.792969 4.925781 100.074219 L 188.519531 3.425781 C 189.292969 3.015625 190.1875 2.894531 191.035156 3.085938 L 653.621094 104.21875 C 655.101562 104.542969 656.230469 105.730469 656.484375 107.226562 C 656.730469 108.71875 656.046875 110.214844 654.753906 111 L 478.589844 218.136719 C 478.007812 218.492188 477.335938 218.675781 476.664062 218.675781 Z M 17.109375 102.027344 L 476.042969 211.015625 L 643.003906 109.476562 L 190.769531 10.609375 Z M 17.109375 102.027344 " fill-opacity="1" fill-rule="nonzero"/><g clip-path="url(#c679fa0e1c)"><path stroke-linecap="butt" transform="matrix(0.417753, 0, 0, 0.417844, -85.53825, -312.714218)" fill="none" stroke-linejoin="miter" d="M 1345.777062 1271.741142 C 1345.094467 1271.741142 1344.411871 1271.657005 1343.729276 1271.498079 L 218.615611 1004.362572 C 215.034322 1003.511852 212.341343 1000.510959 211.883163 996.846318 C 211.415632 993.191026 213.276405 989.61987 216.549123 987.899733 L 656.028386 756.59731 C 657.879809 755.61571 660.021102 755.325904 662.050187 755.783984 L 1769.369617 997.81857 C 1772.913503 998.594502 1775.615833 1001.436468 1776.223623 1005.016972 C 1776.812713 1008.588127 1775.176354 1012.168631 1772.081298 1014.047695 L 1350.386919 1270.451039 C 1348.993676 1271.301759 1347.385369 1271.741142 1345.777062 1271.741142 Z M 245.713715 992.57402 L 1344.290313 1253.408588 L 1743.954625 1010.401751 L 661.414344 773.789338 Z M 245.713715 992.57402 " stroke="#000000" stroke-width="1" stroke-opacity="1" stroke-miterlimit="10"/></g></g></g></g><path stroke-linecap="butt" transform="matrix(0.417753, 0, 0, 0.417844, 78.46175, -14.714221)" fill-opacity="1" fill="#00b59c" fill-rule="nonzero" stroke-linejoin="miter" d="M 87.136506 1012.608021 C 87.136506 1012.608021 32.051989 1178.778927 97.066868 1234.776886 C 162.091097 1290.765497 1364.590515 1565.323772 1364.590515 1565.323772 L 1922.3084 1240.320591 L 1923.168658 1204.06682 L 1390.332779 1522.638183 C 1390.332779 1522.638183 1352.397303 1496.901558 1353.753143 1429.171138 C 1355.099633 1361.440718 1366.385835 1320.12002 1366.385835 1320.12002 L 1887.711097 1002.904201 L 1891.610306 985.226047 L 1353.743793 1313.342304 Z M 87.136506 1012.608021 " stroke="#000000" stroke-width="1" stroke-opacity="1" stroke-miterlimit="10"/><path stroke-linecap="butt" transform="matrix(0.417753, 0, 0, 0.417844, 78.46175, -14.714221)" fill-opacity="1" fill="#039e84" fill-rule="nonzero" stroke-linejoin="miter" d="M 1923.168658 1204.06682 L 1895.790035 1204.06682 L 1896.435228 1220.052882 Z M 1923.168658 1204.06682 " stroke="#000000" stroke-width="1" stroke-opacity="1" stroke-miterlimit="10"/><path stroke-linecap="butt" transform="matrix(0.417753, 0, 0, 0.417844, 78.46175, -14.714221)" fill-opacity="1" fill="#65c5b3" fill-rule="nonzero" stroke-linejoin="miter" d="M 288.932293 1060.519463 C 288.932293 1060.519463 200.475403 1221.408425 290.521899 1301.123717 L 337.686439 1314.202373 C 337.686439 1314.202373 259.169261 1220.146368 359.118066 1077.187971 Z M 288.932293 1060.519463 " stroke="#000000" stroke-width="1" stroke-opacity="1" stroke-miterlimit="10"/><path stroke-linecap="butt" transform="matrix(0.417753, 0, 0, 0.417844, 78.46175, -14.714221)" fill-opacity="1" fill="#65c5b3" fill-rule="nonzero" stroke-linejoin="miter" d="M 397.511723 1086.256088 C 397.511723 1086.256088 309.082885 1251.052754 399.12938 1330.758697 L 447.088724 1343.39797 C 447.088724 1343.39797 367.748691 1245.892341 467.706847 1102.933944 Z M 397.511723 1086.256088 " stroke="#000000" stroke-width="1" stroke-opacity="1" stroke-miterlimit="10"/><path stroke-linecap="butt" transform="matrix(0.417753, 0, 0, 0.417844, 78.46175, -14.714221)" fill-opacity="1" fill="#65c5b3" fill-rule="nonzero" stroke-linejoin="miter" d="M 923.886321 1210.704308 C 923.886321 1210.704308 836.523454 1382.848953 926.560599 1462.564245 L 973.687737 1473.829277 C 973.687737 1473.829277 894.123289 1370.331212 994.081445 1227.363467 Z M 923.886321 1210.704308 " stroke="#000000" stroke-width="1" stroke-opacity="1" stroke-miterlimit="10"/><path stroke-linecap="butt" transform="matrix(0.417753, 0, 0, 0.417844, 78.46175, -14.714221)" fill-opacity="1" fill="#65c5b3" fill-rule="nonzero" stroke-linejoin="miter" d="M 1032.484452 1236.440932 C 1032.484452 1236.440932 944.943923 1408.69776 1034.990419 1488.413053 L 1083.043268 1499.780919 C 1083.043268 1499.780919 1002.71207 1396.067837 1102.670225 1253.10944 Z M 1032.484452 1236.440932 " stroke="#000000" stroke-width="1" stroke-opacity="1" stroke-miterlimit="10"/><path stroke-linecap="butt" transform="matrix(0.417753, 0, 0, 0.417844, 78.46175, -14.714221)" fill-opacity="1" fill="#e5e1d3" fill-rule="nonzero" stroke-linejoin="miter" d="M 1874.498667 1060.248355 C 1836.806307 1087.695768 1798.197586 1113.656759 1759.261594 1139.094229 C 1739.877753 1151.948519 1720.166641 1164.260591 1700.614489 1176.843772 L 1641.443749 1213.742594 L 1581.777426 1249.828091 C 1561.71099 1261.5699 1541.831566 1273.601515 1521.587469 1285.062867 C 1481.295636 1308.275376 1440.66718 1330.964366 1399.131715 1352.138887 C 1436.814724 1324.672776 1475.423445 1298.711785 1514.350087 1273.274315 C 1533.733927 1260.410677 1553.45439 1248.107953 1572.997192 1235.534121 L 1632.177282 1198.653996 L 1691.862306 1162.577848 C 1711.919392 1150.82669 1731.817517 1138.823121 1752.052264 1127.35242 C 1792.353447 1104.13991 1832.972552 1081.450921 1874.498667 1060.248355 Z M 1874.498667 1060.248355 " stroke="#000000" stroke-width="1" stroke-opacity="1" stroke-miterlimit="10"/><path stroke-linecap="butt" transform="matrix(0.417753, 0, 0, 0.417844, 78.46175, -14.714221)" fill-opacity="1" fill="#e5e1d3" fill-rule="nonzero" stroke-linejoin="miter" d="M 1868.08414 1171.917073 C 1830.382429 1199.373836 1791.783059 1225.325478 1752.837716 1250.762948 C 1733.463226 1263.617238 1713.752114 1275.92931 1694.190611 1288.512491 L 1635.029222 1325.411313 L 1575.37225 1361.496809 C 1555.296463 1373.238619 1535.417039 1385.270234 1515.182292 1396.731585 C 1474.890459 1419.953444 1434.262004 1442.633085 1392.717188 1463.807605 C 1430.400197 1436.341494 1469.008918 1410.380504 1507.93556 1384.943033 C 1527.3194 1372.079395 1547.039863 1359.776672 1566.592015 1347.202839 L 1625.772106 1310.322714 L 1685.447779 1274.246566 C 1705.514215 1262.495409 1725.41234 1250.491839 1745.637737 1239.021139 C 1785.92957 1215.808629 1826.548674 1193.11964 1868.08414 1171.917073 Z M 1868.08414 1171.917073 " stroke="#000000" stroke-width="1" stroke-opacity="1" stroke-miterlimit="10"/><path stroke-linecap="butt" transform="matrix(0.417753, 0, 0, 0.417844, 78.46175, -14.714221)" fill-opacity="1" fill="#e5e1d3" fill-rule="nonzero" stroke-linejoin="miter" d="M 1869.879459 1116.825926 C 1831.457751 1143.095419 1792.652667 1168.72921 1753.436156 1193.717948 C 1714.322502 1218.846916 1674.844173 1243.386923 1635.291039 1267.805399 C 1595.616348 1292.046252 1555.876202 1316.156225 1515.771381 1339.677237 C 1475.750717 1363.347827 1435.327975 1386.364017 1394.521858 1408.716458 C 1432.934216 1382.437616 1471.739299 1356.803825 1510.94646 1331.824435 C 1550.069465 1306.695467 1589.547794 1282.15546 1629.110278 1257.736984 C 1668.775619 1233.524177 1708.534466 1209.414204 1748.639287 1185.893192 C 1788.659951 1162.23195 1829.082693 1139.206412 1869.879459 1116.825926 Z M 1869.879459 1116.825926 " stroke="#000000" stroke-width="1" stroke-opacity="1" stroke-miterlimit="10"/><path stroke-linecap="butt" transform="matrix(0.417753, 0, 0, 0.417844, 78.46175, -14.714221)" fill-opacity="1" fill="#ffffff" fill-rule="nonzero" stroke-linejoin="miter" d="M 1914.706344 963.845858 L 1911.143757 795.459339 L 699.817351 1073.822484 L 237.588024 801.563958 C 237.588024 801.563958 227.517404 793.056756 218.90548 797.076643 C 210.302907 801.096529 209.582909 808.659526 209.582909 808.659526 L 203.224486 946.85015 C 203.224486 946.85015 202.364229 955.703249 208.778756 959.769879 C 215.211984 963.836509 688.671409 1260.270448 688.671409 1260.270448 Z M 1914.706344 963.845858 " stroke="#000000" stroke-width="1" stroke-opacity="1" stroke-miterlimit="10"/><path stroke-linecap="butt" transform="matrix(0.417753, 0, 0, 0.417844, 78.46175, -14.714221)" fill-opacity="1" fill="#fecf09" fill-rule="nonzero" stroke-linejoin="miter" d="M 1333.527747 439.811531 L 1928.376954 741.461975 L 704.782532 1033.558175 L 188.151282 723.213558 Z M 1333.527747 439.811531 " stroke="#000000" stroke-width="1" stroke-opacity="1" stroke-miterlimit="10"/><g mask="url(#688625714d)"><g transform="matrix(1, 0, 0, 1, 196, 181)"><g clip-path="url(#8ec7cad49b)"><path fill="#f9a11b" d="M 179.675781 220.617188 C 179.222656 220.617188 178.765625 220.496094 178.367188 220.253906 L 3.597656 115.246094 C 2.714844 114.714844 2.238281 113.707031 2.394531 112.691406 C 2.550781 111.675781 3.296875 110.851562 4.296875 110.601562 L 436.890625 3.542969 C 437.480469 3.398438 438.105469 3.46875 438.648438 3.742188 L 640.410156 106.082031 C 641.359375 106.5625 641.910156 107.585938 641.785156 108.644531 C 641.660156 109.699219 640.886719 110.570312 639.851562 110.816406 L 180.265625 220.546875 C 180.074219 220.59375 179.871094 220.617188 179.675781 220.617188 Z M 11.484375 114.054688 L 180.097656 215.367188 L 631.949219 107.476562 L 437.195312 8.699219 Z M 11.484375 114.054688 " fill-opacity="1" fill-rule="nonzero"/><g clip-path="url(#29c147554c)"><path stroke-linecap="butt" transform="matrix(0.417753, 0, 0, 0.417844, -117.53825, -195.714218)" fill="none" stroke-linejoin="miter" d="M 711.458877 996.378889 C 710.374204 996.378889 709.280182 996.089084 708.326418 995.509472 L 289.970212 744.201101 C 287.856971 742.929695 286.716195 740.517762 287.09022 738.087133 C 287.464245 735.656504 289.250214 733.683955 291.643973 733.085646 L 1327.169323 476.869273 C 1328.581267 476.523376 1330.077367 476.69165 1331.377103 477.34605 L 1814.346112 722.269346 C 1816.618313 723.41922 1817.936751 725.868547 1817.637531 728.40201 C 1817.338311 730.926125 1815.486888 733.010857 1813.008973 733.599817 L 712.870821 996.210615 C 712.41264 996.322798 711.926408 996.378889 711.458877 996.378889 Z M 308.849119 741.349785 L 712.468744 983.814406 L 1794.092663 725.606787 L 1327.898672 489.209391 Z M 308.849119 741.349785 " stroke="#000000" stroke-width="1" stroke-opacity="1" stroke-miterlimit="10"/></g></g></g></g><path fill="#f9a11b" d="M 888.375 385.597656 L 888.375 405.890625 L 368.488281 535.957031 L 147.855469 394.09375 C 147.855469 394.09375 131.898438 338.144531 157.0625 287.476562 L 372.886719 417.152344 L 884.046875 295.105469 L 884.046875 316.015625 L 370.8125 433.976562 L 175.304688 318.792969 C 171.277344 316.40625 166.15625 319.171875 165.949219 323.847656 L 163.332031 381.421875 C 163.242188 383.492188 164.265625 385.453125 166.015625 386.550781 L 366.15625 511.882812 Z M 888.375 385.597656 " fill-opacity="1" fill-rule="nonzero"/><g clip-path="url(#7e519bc94e)"><path stroke-linecap="butt" transform="matrix(0.417753, 0, 0, 0.417844, 78.46175, -14.714221)" fill="none" stroke-linejoin="miter" d="M 1938.737444 958.040393 L 1938.737444 1006.606236 L 694.253731 1317.885711 L 166.111865 978.373542 C 166.111865 978.373542 127.914572 844.473914 188.151282 723.213558 L 704.782532 1033.558175 L 1928.376954 741.471323 L 1928.376954 791.514241 L 699.817351 1073.822484 L 231.81869 798.161077 C 222.178198 792.449098 209.919532 799.067889 209.423949 810.258132 L 203.159032 948.046767 C 202.943967 953.001511 205.393831 957.694496 209.582909 960.321445 L 688.671409 1260.270448 Z M 1938.737444 958.040393 " stroke="#000000" stroke-width="1" stroke-opacity="1" stroke-miterlimit="10"/></g><g mask="url(#d9cd3b8fa1)"><g transform="matrix(1, 0, 0, 1, 363, 315)"><g clip-path="url(#bff97b4eac)"><path fill="#f9a11b" d="M 3.15625 196.886719 L 7.8125 118.976562 L 513.847656 2.667969 L 515.335938 73.023438 Z M 3.15625 196.886719 " fill-opacity="1" fill-rule="nonzero"/><g clip-path="url(#ca1c4f5b53)"><path stroke-linecap="butt" transform="matrix(0.417753, 0, 0, 0.417844, -284.53825, -329.714218)" fill="none" stroke-linejoin="miter" d="M 688.671409 1260.27979 L 699.817351 1073.822478 L 1911.143757 795.468681 L 1914.706344 963.845851 Z M 688.671409 1260.27979 " stroke="#000000" stroke-width="1" stroke-opacity="1" stroke-miterlimit="10"/></g></g></g></g><path fill="#e98d24" d="M 888.375 385.597656 L 878.171875 380.074219 L 878.335938 388.023438 Z M 888.375 385.597656 " fill-opacity="1" fill-rule="nonzero"/><g clip-path="url(#1faf081d3a)"><path stroke-linecap="butt" transform="matrix(0.417753, 0, 0, 0.417844, 78.46175, -14.714221)" fill="none" stroke-linejoin="miter" d="M 1938.737444 958.040393 L 1914.313618 944.821509 L 1914.706344 963.845858 Z M 1938.737444 958.040393 " stroke="#000000" stroke-width="1" stroke-opacity="1" stroke-miterlimit="10"/></g><path stroke-linecap="butt" transform="matrix(0.417753, 0, 0, 0.417844, 78.46175, -14.714221)" fill-opacity="1" fill="#e98d24" fill-rule="nonzero" stroke-linejoin="miter" d="M 1928.376954 791.495544 L 1911.209211 798.946357 L 1911.143757 795.468688 Z M 1928.376954 791.495544 " stroke="#000000" stroke-width="1" stroke-opacity="1" stroke-miterlimit="10"/><path stroke-linecap="butt" transform="matrix(0.417753, 0, 0, 0.417844, 78.46175, -14.714221)" fill-opacity="1" fill="#fce586" fill-rule="nonzero" stroke-linejoin="miter" d="M 1291.580854 528.632335 L 1612.241755 704.881004 L 1489.860806 747.912491 L 1186.414401 557.192229 Z M 1291.580854 528.632335 " stroke="#000000" stroke-width="1" stroke-opacity="1" stroke-miterlimit="10"/><path stroke-linecap="butt" transform="matrix(0.417753, 0, 0, 0.417844, 78.46175, -14.714221)" fill-opacity="1" fill="#fce586" fill-rule="nonzero" stroke-linejoin="miter" d="M 1090.037534 592.427005 L 1393.839262 772.919927 L 1381.533843 780.118329 L 1078.078088 598.456835 Z M 1090.037534 592.427005 " stroke="#000000" stroke-width="1" stroke-opacity="1" stroke-miterlimit="10"/><path stroke-linecap="butt" transform="matrix(0.417753, 0, 0, 0.417844, 78.46175, -14.714221)" fill-opacity="1" fill="#e5e1d3" fill-rule="nonzero" stroke-linejoin="miter" d="M 235.231667 839.360244 C 271.268967 859.768181 306.885488 880.858564 342.3524 902.192011 C 360.118583 912.793294 377.744506 923.63764 395.435884 934.369803 L 448.285603 966.930887 L 500.910907 999.856565 C 518.36852 1010.97202 535.910288 1021.947246 553.293095 1033.193581 C 588.133515 1055.527325 622.824325 1078.122828 657.075656 1101.382081 C 621.038356 1080.983492 585.421835 1059.893109 549.945572 1038.559662 C 532.170039 1027.958379 514.562816 1017.114033 496.862088 1006.38187 L 444.021719 973.811438 L 391.405766 940.867062 C 373.948154 929.770305 356.415736 918.776381 339.042279 907.539395 C 304.192509 885.196303 269.501699 862.619496 235.231667 839.360244 Z M 235.231667 839.360244 " stroke="#000000" stroke-width="1" stroke-opacity="1" stroke-miterlimit="10"/><path stroke-linecap="butt" transform="matrix(0.417753, 0, 0, 0.417844, 78.46175, -14.714221)" fill-opacity="1" fill="#e5e1d3" fill-rule="nonzero" stroke-linejoin="miter" d="M 233.370893 884.981286 C 269.408193 905.389223 305.034065 926.479607 340.491626 947.813053 C 358.257809 958.414336 375.883733 969.258682 393.584461 979.990845 L 446.43418 1012.551929 L 499.050133 1045.477607 C 516.507746 1056.593062 534.049514 1067.568288 551.432321 1078.805274 C 586.272741 1101.148367 620.963551 1123.743871 655.224232 1147.003123 C 619.177582 1126.604534 583.561061 1105.514151 548.094149 1084.180705 C 530.309265 1073.579421 512.702042 1062.725727 495.001314 1052.002912 L 442.160946 1019.43248 L 389.554343 986.488104 C 372.08738 975.391347 354.564313 964.397423 337.181506 953.160437 C 302.331735 930.817345 267.640925 908.240538 233.370893 884.981286 Z M 233.370893 884.981286 " stroke="#000000" stroke-width="1" stroke-opacity="1" stroke-miterlimit="10"/><path stroke-linecap="butt" transform="matrix(0.417753, 0, 0, 0.417844, 78.46175, -14.714221)" fill-opacity="1" fill="#e5e1d3" fill-rule="nonzero" stroke-linejoin="miter" d="M 235.231667 932.275723 C 271.268967 952.693009 306.885488 973.783392 342.3524 995.10749 C 360.118583 1005.708773 377.744506 1016.562467 395.435884 1027.294631 L 448.285603 1059.846366 L 500.910907 1092.781393 C 518.36852 1103.887499 535.910288 1114.872074 553.293095 1126.10906 C 588.133515 1148.452152 622.824325 1171.038307 657.075656 1194.29756 C 621.038356 1173.898971 585.421835 1152.808588 549.945572 1131.48449 C 532.170039 1120.883207 514.562816 1110.029512 496.862088 1099.297349 L 444.021719 1066.726917 L 391.405766 1033.79189 C 373.948154 1022.685784 356.415736 1011.701209 339.042279 1000.464223 C 304.192509 978.12113 269.501699 955.544324 235.231667 932.275723 Z M 235.231667 932.275723 " stroke="#000000" stroke-width="1" stroke-opacity="1" stroke-miterlimit="10"/><path stroke-linecap="butt" transform="matrix(0.417753, 0, 0, 0.417844, 78.46175, -14.714221)" fill-opacity="1" fill="#e5e1d3" fill-rule="nonzero" stroke-linejoin="miter" d="M 761.148085 1104.794311 C 853.476133 1079.179217 946.178205 1055.115987 1039.020537 1031.613672 C 1085.399625 1019.712937 1131.918973 1008.373116 1178.372866 996.771536 L 1317.930908 962.808166 L 1457.704015 929.695516 L 1527.665373 913.494437 L 1562.655403 905.398572 L 1597.692186 897.480329 C 1691.076854 876.277763 1784.601781 855.636111 1878.500733 836.574369 C 1786.182036 862.19881 1693.470613 886.271389 1600.637632 909.783053 L 1565.834615 918.617456 L 1530.975494 927.302281 L 1461.275953 944.61584 L 1321.70856 978.560513 L 1181.935453 1011.654466 C 1135.275846 1022.395978 1088.691044 1033.408598 1041.956633 1043.860304 C 948.562614 1065.06287 855.037687 1085.704522 761.148085 1104.794311 Z M 761.148085 1104.794311 " stroke="#000000" stroke-width="1" stroke-opacity="1" stroke-miterlimit="10"/><path stroke-linecap="butt" transform="matrix(0.417753, 0, 0, 0.417844, 78.46175, -14.714221)" fill-opacity="1" fill="#e5e1d3" fill-rule="nonzero" stroke-linejoin="miter" d="M 761.148085 1147.535992 C 853.476133 1121.930247 946.178205 1097.867017 1039.020537 1074.355353 C 1085.399625 1062.463967 1131.918973 1051.124146 1178.372866 1039.522566 L 1317.930908 1005.559196 L 1457.704015 972.446546 L 1527.665373 956.236118 L 1562.655403 948.149601 L 1597.692186 940.231359 C 1691.076854 919.028793 1784.601781 898.387141 1878.500733 879.31605 C 1786.182036 904.94984 1693.470613 929.022419 1600.637632 952.534083 L 1565.834615 961.368485 L 1530.975494 970.053311 L 1461.275953 987.36687 L 1321.70856 1021.311543 L 1181.935453 1054.396147 C 1135.275846 1065.147007 1088.691044 1076.159628 1041.956633 1086.611334 C 948.562614 1107.804552 855.037687 1128.446203 761.148085 1147.535992 Z M 761.148085 1147.535992 " stroke="#000000" stroke-width="1" stroke-opacity="1" stroke-miterlimit="10"/><path stroke-linecap="butt" transform="matrix(0.417753, 0, 0, 0.417844, 78.46175, -14.714221)" fill-opacity="1" fill="#e5e1d3" fill-rule="nonzero" stroke-linejoin="miter" d="M 761.148085 1194.933263 C 853.476133 1169.31817 946.178205 1145.264288 1039.020537 1121.752624 C 1085.399625 1109.851889 1131.918973 1098.512069 1178.372866 1086.910488 L 1317.930908 1052.947118 L 1457.704015 1019.843817 L 1527.665373 1003.633389 L 1562.655403 995.537524 L 1597.692186 987.619282 C 1691.076854 966.416715 1784.601781 945.784412 1878.500733 926.713321 C 1786.182036 952.337763 1693.470613 976.410341 1600.637632 999.922005 L 1565.834615 1008.756408 L 1530.975494 1017.441233 L 1461.275953 1034.764141 L 1321.70856 1068.699466 L 1181.935453 1101.793418 C 1135.275846 1112.544279 1088.691044 1123.54755 1041.956633 1133.999256 C 948.562614 1155.192474 855.037687 1175.834126 761.148085 1194.933263 Z M 761.148085 1194.933263 " stroke="#000000" stroke-width="1" stroke-opacity="1" stroke-miterlimit="10"/><path stroke-linecap="butt" transform="matrix(0.417753, 0, 0, 0.417844, 78.46175, -14.714221)" fill-opacity="1" fill="#f04d6e" fill-rule="nonzero" stroke-linejoin="miter" d="M 1628.203267 902.360285 L 1714.874188 880.512667 C 1714.874188 880.512667 1727.880904 930.219036 1715.7999 970.184191 L 1682.577138 942.297394 L 1651.448915 983.879852 C 1651.458266 983.879852 1651.196448 919.552313 1628.203267 902.360285 Z M 1628.203267 902.360285 " stroke="#000000" stroke-width="1" stroke-opacity="1" stroke-miterlimit="10"/><path stroke-linecap="butt" transform="matrix(0.417753, 0, 0, 0.417844, 78.46175, -14.714221)" fill-opacity="1" fill="#f04d6e" fill-rule="nonzero" stroke-linejoin="miter" d="M 1081.070287 1074.925616 L 1168.143285 1055.256216 C 1168.143285 1055.256216 1181.14065 1104.130562 1169.059646 1144.086368 L 1135.836884 1116.20892 L 1104.708661 1157.791378 C 1104.708661 1157.800726 1104.063468 1092.117644 1081.070287 1074.925616 Z M 1081.070287 1074.925616 " stroke="#000000" stroke-width="1" stroke-opacity="1" stroke-miterlimit="10"/><path stroke-linecap="butt" transform="matrix(0.417753, 0, 0, 0.417844, 78.46175, -14.714221)" fill-opacity="1" fill="#ffffff" fill-rule="nonzero" stroke-linejoin="miter" d="M 161.464606 654.267823 L 166.280176 485.909351 L 1375.502692 773.256476 L 1839.742403 504.438225 C 1839.742403 504.438225 1849.869127 496.024508 1858.452999 500.100486 C 1867.027519 504.185813 1867.700764 511.74881 1867.700764 511.74881 L 1873.03997 649.976828 C 1873.03997 649.976828 1873.844123 658.839276 1867.382843 662.859163 C 1860.921563 666.87905 1385.274092 959.788576 1385.274092 959.788576 Z M 161.464606 654.267823 " stroke="#000000" stroke-width="1" stroke-opacity="1" stroke-miterlimit="10"/><g clip-path="url(#9a82a4ef03)"><path fill="#f0536d" d="M 390.324219 41.511719 L 140.890625 165.707031 L 651.136719 291.550781 L 867.914062 163.480469 Z M 390.324219 41.511719 " fill-opacity="1" fill-rule="nonzero"/></g><g clip-path="url(#cd11f2107b)"><path stroke-linecap="butt" transform="matrix(0.417753, 0, 0, 0.417844, 78.46175, -14.714221)" fill="none" stroke-linejoin="miter" d="M 746.523711 134.561887 L 149.439705 431.790455 L 1370.846082 732.964121 L 1889.758883 426.461767 Z M 746.523711 134.561887 " stroke="#000000" stroke-width="1" stroke-opacity="1" stroke-miterlimit="10"/></g><g mask="url(#db6c12d5ec)"><g transform="matrix(1, 0, 0, 1, 184, 54)"><g clip-path="url(#157909ee21)"><path fill="#ffffff" d="M 464.460938 221.992188 C 464.914062 221.996094 465.371094 221.875 465.773438 221.636719 L 641.316406 117.929688 C 642.203125 117.40625 642.683594 116.398438 642.539062 115.382812 C 642.394531 114.363281 641.652344 113.535156 640.65625 113.28125 L 208.863281 3.011719 C 208.273438 2.863281 207.648438 2.929688 207.105469 3.199219 L 4.589844 104.035156 C 3.636719 104.511719 3.082031 105.53125 3.199219 106.589844 C 3.316406 107.644531 4.082031 108.519531 5.117188 108.773438 L 463.875 221.917969 C 464.0625 221.96875 464.265625 221.992188 464.460938 221.992188 Z M 633.4375 116.683594 L 464.078125 216.742188 L 13.046875 105.496094 L 208.519531 8.167969 Z M 633.4375 116.683594 " fill-opacity="1" fill-rule="nonzero"/><g clip-path="url(#f11918c2d2)"><path stroke-linecap="butt" transform="matrix(0.417753, 0, 0, 0.417844, -105.53825, -68.714218)" fill="none" stroke-linejoin="miter" d="M 1364.440905 695.728743 C 1365.525577 695.738092 1366.6196 695.448286 1367.582714 694.878023 L 1787.790343 446.682727 C 1789.912935 445.430018 1791.063061 443.018086 1790.717088 440.587457 C 1790.371115 438.147479 1788.594497 436.165581 1786.210088 435.557924 L 752.601616 171.657023 C 751.189672 171.301777 749.693572 171.460703 748.393836 172.105754 L 263.620158 413.429849 C 261.338606 414.570375 260.010817 417.010352 260.291336 419.543816 C 260.571855 422.067931 262.404577 424.162012 264.882492 424.769669 L 1363.038312 695.551121 C 1363.487142 695.672652 1363.973374 695.728743 1364.440905 695.728743 Z M 1768.930138 443.700532 L 1363.524544 683.16426 L 283.864255 416.926215 L 751.778761 183.997141 Z M 1768.930138 443.700532 " stroke="#000000" stroke-width="1" stroke-opacity="1" stroke-miterlimit="10"/></g></g></g></g><path stroke-linecap="butt" transform="matrix(0.417753, 0, 0, 0.417844, 78.46175, -14.714221)" fill-opacity="1" fill="#ed184a" fill-rule="nonzero" stroke-linejoin="miter" d="M 137.480259 648.294084 L 137.115584 696.859927 L 1379.261642 1017.366445 L 1909.909475 681.780677 C 1909.909475 681.780677 1949.097934 548.170855 1889.758883 426.461767 L 1370.836731 732.964121 L 149.439705 431.790455 L 149.06568 481.833372 L 1375.502692 773.256476 L 1845.530438 501.082087 C 1855.208332 495.435548 1867.420246 502.147824 1867.841024 513.347416 L 1873.068022 651.182794 C 1873.264385 656.128189 1870.767768 660.802477 1866.559988 663.410729 L 1385.24604 959.797925 Z M 137.480259 648.294084 " stroke="#000000" stroke-width="1" stroke-opacity="1" stroke-miterlimit="10"/><g mask="url(#c0c650aaf3)"><g transform="matrix(1, 0, 0, 1, 143, 185)"><g clip-path="url(#0d32bc3445)"><path fill="#f9a11b" d="M 514.164062 201.328125 L 510.082031 123.386719 L 4.925781 3.324219 L 2.914062 73.667969 Z M 514.164062 201.328125 " fill-opacity="1" fill-rule="nonzero"/><g clip-path="url(#c24f8a7169)"><path stroke-linecap="butt" transform="matrix(0.417753, 0, 0, 0.417844, -64.53825, -199.714218)" fill="none" stroke-linejoin="miter" d="M 1385.274092 959.78857 L 1375.502692 773.256469 L 166.280176 485.918693 L 161.464606 654.267817 Z M 1385.274092 959.78857 " stroke="#000000" stroke-width="1" stroke-opacity="1" stroke-miterlimit="10"/></g></g></g></g><path stroke-linecap="butt" transform="matrix(0.417753, 0, 0, 0.417844, 78.46175, -14.714221)" fill-opacity="1" fill="#e98d24" fill-rule="nonzero" stroke-linejoin="miter" d="M 137.480259 648.294084 L 162.006942 635.252823 L 161.464606 654.267823 Z M 137.480259 648.294084 " stroke="#000000" stroke-width="1" stroke-opacity="1" stroke-miterlimit="10"/><path stroke-linecap="butt" transform="matrix(0.417753, 0, 0, 0.417844, 78.46175, -14.714221)" fill-opacity="1" fill="#e98d24" fill-rule="nonzero" stroke-linejoin="miter" d="M 149.06568 481.833372 L 166.177319 489.396369 L 166.280176 485.918699 Z M 149.06568 481.833372 " stroke="#000000" stroke-width="1" stroke-opacity="1" stroke-miterlimit="10"/><path stroke-linecap="butt" transform="matrix(0.417753, 0, 0, 0.417844, 78.46175, -14.714221)" fill-opacity="1" fill="#f7acbc" fill-rule="nonzero" stroke-linejoin="miter" d="M 787.80671 223.691193 L 465.846073 397.546627 L 587.899749 441.494275 L 892.758098 253.027019 Z M 787.80671 223.691193 " stroke="#000000" stroke-width="1" stroke-opacity="1" stroke-miterlimit="10"/><path stroke-linecap="butt" transform="matrix(0.417753, 0, 0, 0.417844, 78.46175, -14.714221)" fill-opacity="1" fill="#f7acbc" fill-rule="nonzero" stroke-linejoin="miter" d="M 988.863797 288.981635 L 683.734281 467.212202 L 695.992947 474.513439 L 1000.776491 295.095603 Z M 988.863797 288.981635 " stroke="#000000" stroke-width="1" stroke-opacity="1" stroke-miterlimit="10"/><path stroke-linecap="butt" transform="matrix(0.417753, 0, 0, 0.417844, 78.46175, -14.714221)" fill-opacity="1" fill="#e5e1d3" fill-rule="nonzero" stroke-linejoin="miter" d="M 1841.818241 542.253207 C 1805.631331 562.390036 1769.855849 583.218659 1734.229977 604.280997 C 1716.379639 614.7514 1698.67891 625.455518 1680.903376 636.056801 L 1627.810541 668.234593 L 1574.951472 700.767631 C 1557.409704 711.752206 1539.793131 722.596552 1522.326168 733.712007 C 1487.317437 755.793339 1452.467666 778.117734 1418.029323 801.133924 C 1454.216233 780.997095 1490.001065 760.168472 1525.617587 739.106134 C 1543.467925 728.635731 1561.168654 717.922265 1578.944188 707.320982 L 1632.018321 675.143189 L 1684.877391 642.591454 C 1702.419159 631.616228 1720.035732 620.762533 1737.502695 609.647079 C 1772.520777 587.584444 1807.379898 565.260048 1841.818241 542.253207 Z M 1841.818241 542.253207 " stroke="#000000" stroke-width="1" stroke-opacity="1" stroke-miterlimit="10"/><path stroke-linecap="butt" transform="matrix(0.417753, 0, 0, 0.417844, 78.46175, -14.714221)" fill-opacity="1" fill="#e5e1d3" fill-rule="nonzero" stroke-linejoin="miter" d="M 1843.342392 587.883598 C 1807.146132 608.020427 1771.380001 628.84905 1735.754129 649.911388 C 1717.90379 660.381791 1700.203062 671.085908 1682.418177 681.687191 L 1629.334693 713.855635 L 1576.466273 746.398022 C 1558.933855 757.382597 1541.307932 768.226943 1523.850319 779.342397 C 1488.841588 801.42373 1453.991818 823.748125 1419.553475 846.764314 C 1455.740384 826.627486 1491.515866 805.798862 1527.141738 784.736525 C 1544.992077 774.266122 1562.692806 763.552656 1580.458988 752.951372 L 1633.542473 720.77358 L 1686.401543 688.221845 C 1703.943311 677.246619 1721.559884 666.392924 1739.017496 655.277469 C 1774.035578 633.205486 1808.904049 610.890439 1843.342392 587.883598 Z M 1843.342392 587.883598 " stroke="#000000" stroke-width="1" stroke-opacity="1" stroke-miterlimit="10"/><path stroke-linecap="butt" transform="matrix(0.417753, 0, 0, 0.417844, 78.46175, -14.714221)" fill-opacity="1" fill="#e5e1d3" fill-rule="nonzero" stroke-linejoin="miter" d="M 1841.126295 635.168686 C 1804.939385 655.305515 1769.173254 676.143487 1733.538031 697.196476 C 1715.687693 707.666879 1697.986964 718.380345 1680.21143 728.981628 L 1627.118595 761.150072 L 1574.259526 793.692459 C 1556.717758 804.667685 1539.101185 815.521379 1521.643572 826.627486 C 1486.625491 848.708818 1451.77572 871.042562 1417.337377 894.049403 C 1453.533637 873.921922 1489.309119 853.093299 1524.925641 832.030961 C 1542.775979 821.560558 1560.476708 810.837744 1578.252242 800.236461 L 1631.326375 768.058668 L 1684.185445 735.506933 C 1701.727213 724.541055 1719.353137 713.678012 1736.810749 702.571906 C 1771.828831 680.490574 1806.687952 658.166179 1841.126295 635.168686 Z M 1841.126295 635.168686 " stroke="#000000" stroke-width="1" stroke-opacity="1" stroke-miterlimit="10"/><path stroke-linecap="butt" transform="matrix(0.417753, 0, 0, 0.417844, 78.46175, -14.714221)" fill-opacity="1" fill="#e5e1d3" fill-rule="nonzero" stroke-linejoin="miter" d="M 1313.947543 803.77957 C 1221.806508 777.482031 1129.291448 752.736355 1036.636128 728.542245 C 990.350546 716.286264 943.915355 704.609895 897.545617 692.662417 L 758.240041 657.661356 L 618.719402 623.511014 L 548.870251 606.777066 L 513.936325 598.42879 L 478.974347 590.248787 C 385.739289 568.363775 292.373322 547.030329 198.62398 527.258094 C 290.746314 553.583679 383.270724 578.329355 475.926044 602.532814 L 510.672957 611.628976 L 545.447923 620.556865 L 615.016555 638.403293 L 754.331481 673.376309 L 893.852121 707.507953 C 940.427572 718.614059 986.937569 729.972577 1033.587825 740.760832 C 1126.832234 762.645844 1220.198201 783.988639 1313.947543 803.77957 Z M 1313.947543 803.77957 " stroke="#000000" stroke-width="1" stroke-opacity="1" stroke-miterlimit="10"/><path stroke-linecap="butt" transform="matrix(0.417753, 0, 0, 0.417844, 78.46175, -14.714221)" fill-opacity="1" fill="#e5e1d3" fill-rule="nonzero" stroke-linejoin="miter" d="M 1313.629622 846.521251 C 1221.488587 820.223712 1128.973527 795.478036 1036.318207 771.283926 C 990.032625 759.027946 943.597433 747.351576 897.227696 735.404099 L 757.92212 700.403037 L 618.40148 666.252695 L 548.55233 649.518748 L 513.618404 641.170471 L 478.647075 632.990468 C 385.421368 611.096108 292.04605 589.77201 198.296708 569.999775 C 290.428393 596.316012 382.952803 621.071036 475.608123 645.274495 L 510.345686 654.370658 L 545.130002 663.298546 L 614.698634 681.135625 L 754.01356 716.11799 L 893.5342 750.249634 C 940.109651 761.346392 986.619648 772.714258 1033.269904 783.502513 C 1126.514313 805.387525 1219.88028 826.73032 1313.629622 846.521251 Z M 1313.629622 846.521251 " stroke="#000000" stroke-width="1" stroke-opacity="1" stroke-miterlimit="10"/><path stroke-linecap="butt" transform="matrix(0.417753, 0, 0, 0.417844, 78.46175, -14.714221)" fill-opacity="1" fill="#e5e1d3" fill-rule="nonzero" stroke-linejoin="miter" d="M 1313.283649 893.899825 C 1221.142614 867.602286 1128.618203 842.85661 1035.972234 818.6625 C 989.677302 806.40652 943.25146 794.73015 896.881723 782.782673 L 757.566797 747.781611 L 618.046157 713.631269 L 548.197006 696.897322 L 513.27243 688.549045 L 478.301102 680.369042 C 385.066044 658.48403 291.700077 637.150584 197.950735 617.378349 C 290.08242 643.703934 382.59748 668.44961 475.26215 692.653069 L 509.999713 701.749232 L 544.784029 710.67712 L 614.352661 728.523548 L 753.658236 763.496564 L 893.178876 797.628208 C 939.763678 808.734315 986.273675 820.092832 1032.923931 830.881087 C 1126.158989 852.775448 1219.534306 874.118242 1313.283649 893.899825 Z M 1313.283649 893.899825 " stroke="#000000" stroke-width="1" stroke-opacity="1" stroke-miterlimit="10"/><path stroke-linecap="butt" transform="matrix(0.417753, 0, 0, 0.417844, 78.46175, -14.714221)" fill-opacity="1" fill="#f04d6e" fill-rule="nonzero" stroke-linejoin="miter" d="M 448.416512 594.913726 L 361.913902 572.421056 C 361.913902 572.421056 348.533161 622.033939 360.305595 662.083231 L 393.734071 634.448846 L 424.553723 676.25567 C 424.563074 676.25567 425.301773 611.928131 448.416512 594.913726 Z M 448.416512 594.913726 " stroke="#000000" stroke-width="1" stroke-opacity="1" stroke-miterlimit="10"/><path stroke-linecap="butt" transform="matrix(0.417753, 0, 0, 0.417844, 78.46175, -14.714221)" fill-opacity="1" fill="#f04d6e" fill-rule="nonzero" stroke-linejoin="miter" d="M 994.259107 771.536338 L 907.335719 751.231235 C 907.335719 751.231235 893.98303 800.002746 905.755464 840.052038 L 939.18394 812.417653 L 970.003592 854.233825 C 970.003592 854.233825 971.125666 788.550743 994.259107 771.536338 Z M 994.259107 771.536338 " stroke="#000000" stroke-width="1" stroke-opacity="1" stroke-miterlimit="10"/><g mask="url(#404f838407)"><g transform="matrix(1, 0, 0, 1, 806, 279)"><g clip-path="url(#1385ad44e8)"><path fill="#010101" d="M 51.882812 2.828125 L 67.546875 10.777344 L 2.3125 34.183594 Z M 51.882812 2.828125 " fill-opacity="1" fill-rule="nonzero"/><g clip-path="url(#32e1c9d346)"><path stroke-linecap="butt" transform="matrix(0.417753, 0, 0, 0.417844, -727.538286, -293.714218)" fill="none" stroke-linejoin="miter" d="M 1865.74657 709.695513 L 1903.242567 728.719862 L 1747.087169 784.736518 Z M 1865.74657 709.695513 " stroke="#000000" stroke-width="1" stroke-opacity="1" stroke-miterlimit="10"/></g></g></g></g></svg>