<svg xmlns="http://www.w3.org/2000/svg" xmlns:xlink="http://www.w3.org/1999/xlink" width="1920" zoomAndPan="magnify" viewBox="0 0 1440 809.999993" height="1080" preserveAspectRatio="xMidYMid meet" version="1.0"><defs><clipPath id="a2d0a0b412"><path d="M 136.089844 447 L 452 447 L 452 506 L 136.089844 506 Z M 136.089844 447 " clip-rule="nonzero"/></clipPath><clipPath id="83ef8bc38f"><path d="M 422 720 L 681 720 L 681 777.5625 L 422 777.5625 Z M 422 720 " clip-rule="nonzero"/></clipPath><clipPath id="c6fec5b4c6"><path d="M 652 318 L 967.800781 318 L 967.800781 377 L 652 377 Z M 652 318 " clip-rule="nonzero"/></clipPath><clipPath id="5a96ee4ef3"><path d="M 652 318 L 967.800781 318 L 967.800781 377 L 652 377 Z M 652 318 " clip-rule="nonzero"/></clipPath><clipPath id="fa5288f7a4"><path d="M 136.089844 447 L 452 447 L 452 506 L 136.089844 506 Z M 136.089844 447 " clip-rule="nonzero"/></clipPath><clipPath id="ce37445f0d"><path d="M 422 720 L 681 720 L 681 777.5625 L 422 777.5625 Z M 422 720 " clip-rule="nonzero"/></clipPath><clipPath id="83b5f6f51f"><path d="M 652 32.183594 L 967.800781 32.183594 L 967.800781 176 L 652 176 Z M 652 32.183594 " clip-rule="nonzero"/></clipPath><clipPath id="b4c7b324d0"><path d="M 652 41 L 967.800781 41 L 967.800781 176 L 652 176 Z M 652 41 " clip-rule="nonzero"/></clipPath><clipPath id="148048a5d3"><path d="M 652 247 L 967.800781 247 L 967.800781 319 L 652 319 Z M 652 247 " clip-rule="nonzero"/></clipPath><clipPath id="0780388dd3"><path d="M 136.089844 132 L 481 132 L 481 448 L 136.089844 448 Z M 136.089844 132 " clip-rule="nonzero"/></clipPath><clipPath id="75ad01af6b"><path d="M 136.089844 135 L 426 135 L 426 448 L 136.089844 448 Z M 136.089844 135 " clip-rule="nonzero"/></clipPath></defs><path fill="#b8bebf" d="M 293.914062 576.882812 C 286.003906 576.882812 279.582031 570.476562 279.582031 562.546875 L 279.582031 505.210938 C 279.582031 497.285156 286.003906 490.878906 293.914062 490.878906 C 301.828125 490.878906 308.25 497.285156 308.25 505.210938 L 308.25 562.546875 C 308.25 570.476562 301.828125 576.882812 293.914062 576.882812 Z M 293.914062 576.882812 " fill-opacity="1" fill-rule="nonzero"/><path fill="#b8bebf" d="M 809.976562 433.539062 C 802.0625 433.539062 795.640625 427.132812 795.640625 419.207031 L 795.640625 376.203125 C 795.640625 368.277344 802.0625 361.871094 809.976562 361.871094 C 817.886719 361.871094 824.308594 368.277344 824.308594 376.203125 L 824.308594 419.207031 C 824.308594 427.132812 817.886719 433.539062 809.976562 433.539062 Z M 809.976562 433.539062 " fill-opacity="1" fill-rule="nonzero"/><path fill="#b8bebf" d="M 303.839844 573.535156 L 792.460938 437.898438 L 800.132812 465.535156 L 311.511719 601.171875 Z M 303.839844 573.535156 " fill-opacity="1" fill-rule="nonzero"/><g clip-path="url(#a2d0a0b412)"><path fill="#e9f1f2" d="M 422.929688 505.210938 L 164.902344 505.210938 C 149.0625 505.210938 136.230469 492.382812 136.230469 476.542969 L 136.230469 447.875 L 451.601562 447.875 L 451.601562 476.542969 C 451.601562 492.382812 438.769531 505.210938 422.929688 505.210938 Z M 422.929688 505.210938 " fill-opacity="1" fill-rule="nonzero"/></g><path fill="#e9f1f2" d="M 322.585938 591.21875 C 322.585938 592.15625 322.539062 593.09375 322.449219 594.027344 C 322.355469 594.960938 322.21875 595.890625 322.035156 596.808594 C 321.851562 597.730469 321.625 598.640625 321.351562 599.539062 C 321.078125 600.4375 320.761719 601.320312 320.402344 602.1875 C 320.042969 603.054688 319.644531 603.902344 319.199219 604.730469 C 318.757812 605.558594 318.277344 606.363281 317.753906 607.144531 C 317.230469 607.925781 316.671875 608.679688 316.078125 609.40625 C 315.480469 610.128906 314.851562 610.824219 314.1875 611.488281 C 313.523438 612.152344 312.828125 612.78125 312.105469 613.378906 C 311.378906 613.972656 310.625 614.53125 309.84375 615.054688 C 309.0625 615.574219 308.257812 616.058594 307.429688 616.5 C 306.601562 616.941406 305.753906 617.34375 304.886719 617.703125 C 304.019531 618.0625 303.136719 618.378906 302.238281 618.652344 C 301.339844 618.921875 300.429688 619.152344 299.507812 619.335938 C 298.589844 619.519531 297.660156 619.65625 296.726562 619.746094 C 295.792969 619.839844 294.855469 619.886719 293.914062 619.886719 C 292.976562 619.886719 292.039062 619.839844 291.105469 619.746094 C 290.171875 619.65625 289.242188 619.519531 288.324219 619.335938 C 287.402344 619.152344 286.492188 618.921875 285.59375 618.652344 C 284.695312 618.378906 283.8125 618.0625 282.945312 617.703125 C 282.078125 617.34375 281.230469 616.941406 280.402344 616.5 C 279.574219 616.058594 278.769531 615.574219 277.988281 615.054688 C 277.207031 614.53125 276.453125 613.972656 275.726562 613.378906 C 275 612.78125 274.308594 612.152344 273.644531 611.488281 C 272.980469 610.824219 272.347656 610.128906 271.753906 609.40625 C 271.15625 608.679688 270.597656 607.925781 270.078125 607.144531 C 269.554688 606.363281 269.074219 605.558594 268.632812 604.730469 C 268.1875 603.902344 267.789062 603.054688 267.429688 602.1875 C 267.070312 601.320312 266.753906 600.4375 266.480469 599.539062 C 266.207031 598.640625 265.980469 597.730469 265.796875 596.808594 C 265.613281 595.890625 265.476562 594.960938 265.382812 594.027344 C 265.292969 593.09375 265.246094 592.15625 265.246094 591.21875 C 265.246094 590.277344 265.292969 589.339844 265.382812 588.40625 C 265.476562 587.472656 265.613281 586.546875 265.796875 585.625 C 265.980469 584.703125 266.207031 583.792969 266.480469 582.894531 C 266.753906 581.996094 267.070312 581.113281 267.429688 580.246094 C 267.789062 579.378906 268.1875 578.53125 268.632812 577.703125 C 269.074219 576.875 269.554688 576.070312 270.078125 575.289062 C 270.597656 574.507812 271.15625 573.757812 271.753906 573.03125 C 272.347656 572.304688 272.980469 571.609375 273.644531 570.945312 C 274.308594 570.28125 275 569.652344 275.726562 569.054688 C 276.453125 568.460938 277.207031 567.902344 277.988281 567.378906 C 278.769531 566.859375 279.574219 566.375 280.402344 565.933594 C 281.230469 565.492188 282.078125 565.089844 282.945312 564.730469 C 283.8125 564.371094 284.695312 564.054688 285.59375 563.785156 C 286.492188 563.511719 287.402344 563.28125 288.324219 563.097656 C 289.242188 562.917969 290.171875 562.777344 291.105469 562.6875 C 292.039062 562.59375 292.976562 562.546875 293.914062 562.546875 C 294.855469 562.546875 295.792969 562.59375 296.726562 562.6875 C 297.660156 562.777344 298.589844 562.917969 299.507812 563.097656 C 300.429688 563.28125 301.339844 563.511719 302.238281 563.78125 C 303.136719 564.054688 304.019531 564.371094 304.886719 564.730469 C 305.753906 565.089844 306.601562 565.492188 307.429688 565.933594 C 308.257812 566.375 309.0625 566.859375 309.84375 567.378906 C 310.625 567.902344 311.378906 568.460938 312.105469 569.054688 C 312.828125 569.652344 313.523438 570.28125 314.1875 570.945312 C 314.851562 571.609375 315.480469 572.304688 316.078125 573.03125 C 316.671875 573.757812 317.230469 574.507812 317.753906 575.289062 C 318.277344 576.070312 318.757812 576.875 319.199219 577.703125 C 319.644531 578.53125 320.042969 579.378906 320.402344 580.246094 C 320.761719 581.113281 321.078125 581.996094 321.351562 582.894531 C 321.625 583.792969 321.851562 584.703125 322.035156 585.625 C 322.21875 586.546875 322.355469 587.472656 322.449219 588.40625 C 322.539062 589.339844 322.585938 590.277344 322.585938 591.21875 Z M 322.585938 591.21875 " fill-opacity="1" fill-rule="nonzero"/><g clip-path="url(#83ef8bc38f)"><path fill="#a2bdcd" d="M 680.960938 777.5625 L 422.929688 777.5625 L 422.929688 748.894531 C 422.929688 733.054688 435.761719 720.226562 451.601562 720.226562 L 652.289062 720.226562 C 668.128906 720.226562 680.960938 733.054688 680.960938 748.894531 Z M 680.960938 777.5625 " fill-opacity="1" fill-rule="nonzero"/></g><path fill="#a2bdcd" d="M 623.621094 720.226562 L 480.269531 720.226562 L 551.945312 519.546875 Z M 623.621094 720.226562 " fill-opacity="1" fill-rule="nonzero"/><path fill="#769fb6" d="M 594.949219 691.558594 C 571.195312 691.558594 551.945312 672.304688 551.945312 648.554688 L 551.945312 519.546875 L 480.269531 720.226562 L 623.621094 720.226562 L 613.386719 691.558594 Z M 594.949219 691.558594 " fill-opacity="1" fill-rule="nonzero"/><g clip-path="url(#c6fec5b4c6)"><path fill="#e9f1f2" d="M 938.988281 376.203125 L 680.960938 376.203125 C 665.121094 376.203125 652.289062 363.375 652.289062 347.535156 L 652.289062 318.867188 L 967.660156 318.867188 L 967.660156 347.535156 C 967.660156 363.375 954.828125 376.203125 938.988281 376.203125 Z M 938.988281 376.203125 " fill-opacity="1" fill-rule="nonzero"/></g><path fill="#e9f1f2" d="M 838.644531 447.875 C 838.644531 448.8125 838.597656 449.75 838.507812 450.683594 C 838.414062 451.621094 838.277344 452.546875 838.09375 453.46875 C 837.910156 454.386719 837.683594 455.296875 837.410156 456.195312 C 837.136719 457.09375 836.820312 457.976562 836.460938 458.847656 C 836.101562 459.714844 835.703125 460.5625 835.257812 461.390625 C 834.816406 462.21875 834.335938 463.019531 833.8125 463.800781 C 833.292969 464.582031 832.730469 465.335938 832.136719 466.0625 C 831.542969 466.789062 830.910156 467.484375 830.246094 468.144531 C 829.582031 468.808594 828.886719 469.441406 828.164062 470.035156 C 827.4375 470.632812 826.683594 471.191406 825.902344 471.710938 C 825.121094 472.234375 824.316406 472.714844 823.488281 473.15625 C 822.660156 473.601562 821.8125 474 820.945312 474.359375 C 820.078125 474.71875 819.195312 475.035156 818.296875 475.308594 C 817.398438 475.582031 816.488281 475.808594 815.566406 475.992188 C 814.648438 476.175781 813.71875 476.3125 812.785156 476.40625 C 811.851562 476.496094 810.914062 476.542969 809.976562 476.542969 C 809.035156 476.542969 808.097656 476.496094 807.164062 476.40625 C 806.230469 476.3125 805.300781 476.175781 804.382812 475.992188 C 803.460938 475.808594 802.550781 475.582031 801.652344 475.308594 C 800.753906 475.035156 799.871094 474.71875 799.003906 474.359375 C 798.136719 474 797.289062 473.601562 796.460938 473.15625 C 795.632812 472.714844 794.828125 472.234375 794.046875 471.710938 C 793.265625 471.191406 792.511719 470.632812 791.785156 470.035156 C 791.0625 469.441406 790.367188 468.808594 789.703125 468.144531 C 789.039062 467.484375 788.40625 466.789062 787.8125 466.0625 C 787.214844 465.335938 786.65625 464.582031 786.136719 463.800781 C 785.613281 463.019531 785.132812 462.21875 784.691406 461.390625 C 784.246094 460.5625 783.847656 459.714844 783.488281 458.847656 C 783.128906 457.976562 782.8125 457.09375 782.539062 456.195312 C 782.265625 455.296875 782.039062 454.386719 781.855469 453.46875 C 781.671875 452.546875 781.535156 451.621094 781.441406 450.683594 C 781.351562 449.75 781.304688 448.8125 781.304688 447.875 C 781.304688 446.9375 781.351562 446 781.441406 445.066406 C 781.535156 444.128906 781.671875 443.203125 781.855469 442.28125 C 782.039062 441.359375 782.265625 440.453125 782.539062 439.554688 C 782.8125 438.652344 783.128906 437.769531 783.488281 436.902344 C 783.847656 436.035156 784.246094 435.1875 784.691406 434.359375 C 785.132812 433.53125 785.613281 432.726562 786.136719 431.949219 C 786.65625 431.167969 787.214844 430.414062 787.8125 429.6875 C 788.40625 428.960938 789.039062 428.265625 789.703125 427.601562 C 790.367188 426.9375 791.0625 426.308594 791.785156 425.714844 C 792.511719 425.117188 793.265625 424.558594 794.046875 424.039062 C 794.828125 423.515625 795.632812 423.035156 796.460938 422.589844 C 797.289062 422.148438 798.136719 421.746094 799.003906 421.386719 C 799.871094 421.027344 800.753906 420.714844 801.652344 420.441406 C 802.550781 420.167969 803.460938 419.941406 804.382812 419.757812 C 805.300781 419.574219 806.230469 419.4375 807.164062 419.34375 C 808.097656 419.253906 809.035156 419.207031 809.976562 419.207031 C 810.914062 419.207031 811.851562 419.253906 812.785156 419.34375 C 813.71875 419.4375 814.648438 419.574219 815.566406 419.757812 C 816.488281 419.941406 817.398438 420.167969 818.296875 420.441406 C 819.195312 420.714844 820.078125 421.027344 820.945312 421.386719 C 821.8125 421.746094 822.660156 422.148438 823.488281 422.589844 C 824.316406 423.035156 825.121094 423.515625 825.902344 424.039062 C 826.683594 424.558594 827.4375 425.117188 828.164062 425.714844 C 828.886719 426.308594 829.582031 426.9375 830.246094 427.601562 C 830.910156 428.265625 831.542969 428.960938 832.136719 429.6875 C 832.730469 430.414062 833.292969 431.167969 833.8125 431.949219 C 834.335938 432.726562 834.816406 433.53125 835.257812 434.359375 C 835.703125 435.1875 836.101562 436.035156 836.460938 436.902344 C 836.820312 437.769531 837.136719 438.652344 837.410156 439.554688 C 837.683594 440.453125 837.910156 441.359375 838.09375 442.28125 C 838.277344 443.203125 838.414062 444.128906 838.507812 445.066406 C 838.597656 446 838.644531 446.9375 838.644531 447.875 Z M 838.644531 447.875 " fill-opacity="1" fill-rule="nonzero"/><g clip-path="url(#5a96ee4ef3)"><path fill="#d0d8da" d="M 680.960938 318.867188 L 652.289062 318.867188 L 652.289062 347.535156 C 652.289062 363.375 665.121094 376.203125 680.960938 376.203125 L 938.988281 376.203125 C 954.828125 376.203125 967.660156 363.375 967.660156 347.535156 L 709.628906 347.535156 C 693.789062 347.535156 680.960938 334.707031 680.960938 318.867188 Z M 680.960938 318.867188 " fill-opacity="1" fill-rule="nonzero"/></g><g clip-path="url(#fa5288f7a4)"><path fill="#d0d8da" d="M 164.902344 447.875 L 136.230469 447.875 L 136.230469 476.542969 C 136.230469 492.382812 149.0625 505.210938 164.902344 505.210938 L 422.929688 505.210938 C 438.769531 505.210938 451.601562 492.382812 451.601562 476.542969 L 193.570312 476.542969 C 177.730469 476.542969 164.902344 463.714844 164.902344 447.875 Z M 164.902344 447.875 " fill-opacity="1" fill-rule="nonzero"/></g><path fill="#d0d8da" d="M 293.945312 578.203125 C 293.6875 572.625 295.105469 567.378906 297.671875 562.851562 C 296.007812 562.636719 294.332031 562.492188 292.597656 562.578125 C 276.785156 563.308594 264.542969 576.726562 265.273438 592.535156 C 266.003906 608.347656 279.421875 620.589844 295.234375 619.855469 C 305.46875 619.382812 314.140625 613.5625 318.828125 605.25 C 305.328125 603.472656 294.589844 592.292969 293.945312 578.203125 Z M 293.945312 578.203125 " fill-opacity="1" fill-rule="nonzero"/><path fill="#d0d8da" d="M 809.976562 433.539062 C 809.976562 428.453125 811.40625 423.734375 813.746094 419.59375 C 812.496094 419.421875 811.265625 419.207031 809.976562 419.207031 C 794.132812 419.207031 781.304688 432.035156 781.304688 447.875 C 781.304688 463.714844 794.132812 476.542969 809.976562 476.542969 C 820.710938 476.542969 829.957031 470.566406 834.875 461.820312 C 820.839844 459.972656 809.976562 448.074219 809.976562 433.539062 Z M 809.976562 433.539062 " fill-opacity="1" fill-rule="nonzero"/><g clip-path="url(#ce37445f0d)"><path fill="#769fb6" d="M 465.933594 720.226562 L 451.601562 720.226562 C 435.761719 720.226562 422.929688 733.054688 422.929688 748.894531 L 422.929688 777.5625 L 680.960938 777.5625 L 680.960938 748.894531 L 494.605469 748.894531 C 478.765625 748.894531 465.933594 736.066406 465.933594 720.226562 Z M 465.933594 720.226562 " fill-opacity="1" fill-rule="nonzero"/></g><path fill="#e9f1f2" d="M 566.28125 662.886719 C 566.28125 663.828125 566.1875 664.761719 566.003906 665.683594 C 565.820312 666.609375 565.550781 667.503906 565.1875 668.375 C 564.828125 669.242188 564.386719 670.070312 563.863281 670.851562 C 563.339844 671.632812 562.746094 672.359375 562.082031 673.023438 C 561.414062 673.691406 560.691406 674.285156 559.910156 674.808594 C 559.125 675.328125 558.300781 675.769531 557.429688 676.132812 C 556.5625 676.492188 555.664062 676.761719 554.742188 676.945312 C 553.820312 677.128906 552.886719 677.222656 551.945312 677.222656 C 551.003906 677.222656 550.070312 677.128906 549.148438 676.945312 C 548.226562 676.761719 547.328125 676.492188 546.460938 676.132812 C 545.589844 675.769531 544.765625 675.328125 543.980469 674.808594 C 543.199219 674.285156 542.472656 673.691406 541.808594 673.023438 C 541.144531 672.359375 540.550781 671.632812 540.027344 670.851562 C 539.503906 670.070312 539.0625 669.242188 538.703125 668.375 C 538.339844 667.503906 538.070312 666.609375 537.886719 665.683594 C 537.703125 664.761719 537.609375 663.828125 537.609375 662.886719 C 537.609375 661.945312 537.703125 661.015625 537.886719 660.09375 C 538.070312 659.167969 538.339844 658.273438 538.703125 657.402344 C 539.0625 656.535156 539.503906 655.707031 540.027344 654.925781 C 540.550781 654.140625 541.144531 653.417969 541.808594 652.753906 C 542.472656 652.085938 543.199219 651.492188 543.980469 650.96875 C 544.765625 650.445312 545.589844 650.003906 546.460938 649.644531 C 547.328125 649.285156 548.226562 649.011719 549.148438 648.828125 C 550.070312 648.644531 551.003906 648.554688 551.945312 648.554688 C 552.886719 648.554688 553.820312 648.644531 554.742188 648.828125 C 555.664062 649.011719 556.5625 649.285156 557.429688 649.644531 C 558.300781 650.003906 559.125 650.445312 559.910156 650.96875 C 560.691406 651.492188 561.414062 652.085938 562.082031 652.753906 C 562.746094 653.417969 563.339844 654.140625 563.863281 654.925781 C 564.386719 655.707031 564.828125 656.535156 565.1875 657.402344 C 565.550781 658.273438 565.820312 659.167969 566.003906 660.09375 C 566.1875 661.015625 566.28125 661.945312 566.28125 662.886719 Z M 566.28125 662.886719 " fill-opacity="1" fill-rule="nonzero"/><path fill="#d0d8da" d="M 551.945312 677.222656 C 555.226562 677.222656 558.09375 675.933594 560.515625 674.082031 C 555.199219 666.929688 551.945312 658.15625 551.945312 648.554688 C 544.03125 648.554688 537.609375 654.976562 537.609375 662.886719 C 537.609375 670.800781 544.03125 677.222656 551.945312 677.222656 Z M 551.945312 677.222656 " fill-opacity="1" fill-rule="nonzero"/><g clip-path="url(#83b5f6f51f)"><path fill="#f9cdae" d="M 967.660156 175.523438 L 652.289062 175.523438 C 652.289062 96.355469 716.46875 32.183594 795.640625 32.183594 L 824.308594 32.183594 C 903.480469 32.183594 967.660156 96.355469 967.660156 175.523438 Z M 967.660156 175.523438 " fill-opacity="1" fill-rule="nonzero"/></g><g clip-path="url(#b4c7b324d0)"><path fill="#f6b98d" d="M 867.316406 132.523438 C 809.429688 132.523438 760.449219 94.390625 744.105469 41.886719 C 690.433594 62.597656 652.289062 114.546875 652.289062 175.523438 L 967.660156 175.523438 C 967.660156 160.546875 965.335938 146.097656 961.078125 132.523438 Z M 867.316406 132.523438 " fill-opacity="1" fill-rule="nonzero"/></g><path fill="#ef5350" d="M 910.320312 247.195312 L 709.628906 247.195312 C 693.789062 247.195312 680.960938 234.367188 680.960938 218.527344 L 680.960938 204.191406 C 680.960938 188.351562 693.789062 175.523438 709.628906 175.523438 L 910.320312 175.523438 C 926.160156 175.523438 938.988281 188.351562 938.988281 204.191406 L 938.988281 218.527344 C 938.988281 234.367188 926.160156 247.195312 910.320312 247.195312 Z M 910.320312 247.195312 " fill-opacity="1" fill-rule="nonzero"/><path fill="#e53935" d="M 834.6875 222.484375 L 867.316406 189.859375 L 935.019531 189.859375 C 930.058594 181.328125 920.914062 175.523438 910.320312 175.523438 L 709.628906 175.523438 C 693.789062 175.523438 680.960938 188.351562 680.960938 204.191406 L 680.960938 218.527344 C 680.960938 234.367188 693.789062 247.195312 709.628906 247.195312 L 910.320312 247.195312 C 924.796875 247.195312 936.652344 236.429688 938.589844 222.484375 Z M 750.800781 222.484375 C 734.960938 222.484375 722.128906 209.652344 722.128906 193.816406 L 722.128906 189.859375 L 781.304688 189.859375 L 813.929688 222.484375 Z M 750.800781 222.484375 " fill-opacity="1" fill-rule="nonzero"/><g clip-path="url(#148048a5d3)"><path fill="#f9cdae" d="M 910.320312 318.867188 L 709.628906 318.867188 C 677.964844 318.867188 652.289062 293.195312 652.289062 261.53125 L 652.289062 247.195312 L 967.660156 247.195312 L 967.660156 261.53125 C 967.660156 293.195312 941.984375 318.867188 910.320312 318.867188 Z M 910.320312 318.867188 " fill-opacity="1" fill-rule="nonzero"/></g><path fill="#ffdd99" d="M 838.644531 232.859375 L 781.304688 175.523438 L 895.984375 175.523438 Z M 838.644531 232.859375 " fill-opacity="1" fill-rule="nonzero"/><path fill="#f6b98d" d="M 946.6875 281.109375 L 745.996094 281.109375 C 722.703125 281.109375 702.734375 267.148438 693.761719 247.195312 L 652.289062 247.195312 L 652.289062 261.53125 C 652.289062 293.195312 677.964844 318.867188 709.628906 318.867188 L 910.320312 318.867188 C 936.28125 318.867188 957.953125 301.507812 965.023438 277.84375 C 959.230469 279.804688 953.136719 281.109375 946.6875 281.109375 Z M 946.6875 281.109375 " fill-opacity="1" fill-rule="nonzero"/><path fill="#f6b98d" d="M 910.320312 132.523438 C 910.320312 133.460938 910.226562 134.394531 910.042969 135.316406 C 909.859375 136.242188 909.589844 137.136719 909.226562 138.007812 C 908.867188 138.875 908.425781 139.703125 907.902344 140.484375 C 907.378906 141.269531 906.785156 141.992188 906.121094 142.65625 C 905.457031 143.324219 904.730469 143.917969 903.949219 144.441406 C 903.164062 144.960938 902.339844 145.40625 901.46875 145.765625 C 900.601562 146.125 899.703125 146.398438 898.78125 146.582031 C 897.859375 146.765625 896.925781 146.855469 895.984375 146.855469 C 895.042969 146.855469 894.109375 146.765625 893.1875 146.582031 C 892.265625 146.398438 891.367188 146.125 890.5 145.765625 C 889.628906 145.40625 888.804688 144.960938 888.019531 144.441406 C 887.238281 143.917969 886.511719 143.324219 885.847656 142.65625 C 885.183594 141.992188 884.589844 141.269531 884.066406 140.484375 C 883.542969 139.703125 883.101562 138.875 882.742188 138.007812 C 882.378906 137.136719 882.109375 136.242188 881.925781 135.316406 C 881.742188 134.394531 881.648438 133.460938 881.648438 132.523438 C 881.648438 131.582031 881.742188 130.648438 881.925781 129.726562 C 882.109375 128.800781 882.378906 127.90625 882.742188 127.035156 C 883.101562 126.167969 883.542969 125.339844 884.066406 124.558594 C 884.589844 123.773438 885.183594 123.050781 885.847656 122.386719 C 886.511719 121.71875 887.238281 121.125 888.019531 120.601562 C 888.804688 120.082031 889.628906 119.636719 890.5 119.277344 C 891.367188 118.917969 892.265625 118.644531 893.1875 118.460938 C 894.109375 118.277344 895.042969 118.1875 895.984375 118.1875 C 896.925781 118.1875 897.859375 118.277344 898.78125 118.460938 C 899.703125 118.644531 900.601562 118.917969 901.46875 119.277344 C 902.339844 119.636719 903.164062 120.082031 903.949219 120.601562 C 904.730469 121.125 905.457031 121.71875 906.121094 122.386719 C 906.785156 123.050781 907.378906 123.773438 907.902344 124.558594 C 908.425781 125.339844 908.867188 126.167969 909.226562 127.035156 C 909.589844 127.90625 909.859375 128.800781 910.042969 129.726562 C 910.226562 130.648438 910.320312 131.582031 910.320312 132.523438 Z M 910.320312 132.523438 " fill-opacity="1" fill-rule="nonzero"/><path fill="#f6b98d" d="M 867.316406 89.519531 C 867.316406 90.460938 867.222656 91.390625 867.039062 92.316406 C 866.855469 93.238281 866.582031 94.132812 866.222656 95.003906 C 865.863281 95.875 865.421875 96.699219 864.898438 97.484375 C 864.375 98.265625 863.78125 98.988281 863.117188 99.65625 C 862.449219 100.320312 861.726562 100.914062 860.945312 101.4375 C 860.160156 101.960938 859.335938 102.402344 858.464844 102.761719 C 857.59375 103.121094 856.699219 103.394531 855.777344 103.578125 C 854.851562 103.761719 853.921875 103.851562 852.980469 103.851562 C 852.039062 103.851562 851.105469 103.761719 850.183594 103.578125 C 849.257812 103.394531 848.363281 103.121094 847.492188 102.761719 C 846.625 102.402344 845.796875 101.960938 845.015625 101.4375 C 844.234375 100.914062 843.507812 100.320312 842.84375 99.65625 C 842.175781 98.988281 841.582031 98.265625 841.058594 97.484375 C 840.539062 96.699219 840.097656 95.875 839.734375 95.003906 C 839.375 94.132812 839.101562 93.238281 838.921875 92.316406 C 838.734375 91.390625 838.644531 90.460938 838.644531 89.519531 C 838.644531 88.578125 838.734375 87.644531 838.921875 86.722656 C 839.101562 85.800781 839.375 84.902344 839.734375 84.035156 C 840.097656 83.164062 840.539062 82.335938 841.058594 81.554688 C 841.582031 80.773438 842.175781 80.046875 842.84375 79.382812 C 843.507812 78.71875 844.234375 78.125 845.015625 77.601562 C 845.796875 77.078125 846.625 76.636719 847.492188 76.277344 C 848.363281 75.914062 849.257812 75.644531 850.183594 75.460938 C 851.105469 75.277344 852.039062 75.183594 852.980469 75.183594 C 853.921875 75.183594 854.851562 75.277344 855.777344 75.460938 C 856.699219 75.644531 857.59375 75.914062 858.464844 76.277344 C 859.335938 76.636719 860.160156 77.078125 860.945312 77.601562 C 861.726562 78.125 862.449219 78.71875 863.117188 79.382812 C 863.78125 80.046875 864.375 80.773438 864.898438 81.554688 C 865.421875 82.335938 865.863281 83.164062 866.222656 84.035156 C 866.582031 84.902344 866.855469 85.800781 867.039062 86.722656 C 867.222656 87.644531 867.316406 88.578125 867.316406 89.519531 Z M 867.316406 89.519531 " fill-opacity="1" fill-rule="nonzero"/><path fill="#f6b98d" d="M 781.304688 89.519531 C 781.304688 90.460938 781.210938 91.390625 781.027344 92.316406 C 780.84375 93.238281 780.574219 94.132812 780.214844 95.003906 C 779.851562 95.875 779.410156 96.699219 778.890625 97.484375 C 778.367188 98.265625 777.773438 98.988281 777.105469 99.65625 C 776.441406 100.320312 775.714844 100.914062 774.933594 101.4375 C 774.152344 101.960938 773.324219 102.402344 772.457031 102.761719 C 771.585938 103.121094 770.6875 103.394531 769.765625 103.578125 C 768.84375 103.761719 767.910156 103.851562 766.96875 103.851562 C 766.027344 103.851562 765.097656 103.761719 764.171875 103.578125 C 763.25 103.394531 762.355469 103.121094 761.484375 102.761719 C 760.613281 102.402344 759.789062 101.960938 759.003906 101.4375 C 758.222656 100.914062 757.5 100.320312 756.832031 99.65625 C 756.167969 98.988281 755.574219 98.265625 755.050781 97.484375 C 754.527344 96.699219 754.085938 95.875 753.726562 95.003906 C 753.367188 94.132812 753.09375 93.238281 752.910156 92.316406 C 752.726562 91.390625 752.632812 90.460938 752.636719 89.519531 C 752.632812 88.578125 752.726562 87.644531 752.910156 86.722656 C 753.09375 85.800781 753.367188 84.902344 753.726562 84.035156 C 754.085938 83.164062 754.527344 82.335938 755.050781 81.554688 C 755.574219 80.773438 756.167969 80.046875 756.832031 79.382812 C 757.5 78.71875 758.222656 78.125 759.003906 77.601562 C 759.789062 77.078125 760.613281 76.636719 761.484375 76.277344 C 762.355469 75.914062 763.25 75.644531 764.171875 75.460938 C 765.097656 75.277344 766.027344 75.183594 766.96875 75.183594 C 767.910156 75.183594 768.84375 75.277344 769.765625 75.460938 C 770.6875 75.644531 771.585938 75.914062 772.457031 76.277344 C 773.324219 76.636719 774.152344 77.078125 774.933594 77.601562 C 775.714844 78.125 776.441406 78.71875 777.105469 79.382812 C 777.773438 80.046875 778.367188 80.773438 778.890625 81.554688 C 779.410156 82.335938 779.851562 83.164062 780.214844 84.035156 C 780.574219 84.902344 780.84375 85.800781 781.027344 86.722656 C 781.210938 87.644531 781.304688 88.578125 781.304688 89.519531 Z M 781.304688 89.519531 " fill-opacity="1" fill-rule="nonzero"/><path fill="#f6b98d" d="M 824.308594 118.1875 C 824.308594 119.128906 824.21875 120.0625 824.035156 120.984375 C 823.851562 121.90625 823.578125 122.804688 823.21875 123.671875 C 822.859375 124.542969 822.417969 125.367188 821.894531 126.152344 C 821.371094 126.933594 820.777344 127.65625 820.109375 128.324219 C 819.445312 128.988281 818.722656 129.582031 817.9375 130.105469 C 817.15625 130.628906 816.328125 131.070312 815.460938 131.429688 C 814.589844 131.789062 813.695312 132.0625 812.769531 132.246094 C 811.847656 132.429688 810.914062 132.523438 809.976562 132.523438 C 809.035156 132.523438 808.101562 132.429688 807.179688 132.246094 C 806.253906 132.0625 805.359375 131.789062 804.488281 131.429688 C 803.621094 131.070312 802.792969 130.628906 802.011719 130.105469 C 801.226562 129.582031 800.503906 128.988281 799.839844 128.324219 C 799.171875 127.65625 798.578125 126.933594 798.054688 126.152344 C 797.53125 125.367188 797.089844 124.542969 796.730469 123.671875 C 796.371094 122.804688 796.097656 121.90625 795.914062 120.984375 C 795.730469 120.0625 795.640625 119.128906 795.640625 118.1875 C 795.640625 117.246094 795.730469 116.3125 795.914062 115.390625 C 796.097656 114.46875 796.371094 113.570312 796.730469 112.703125 C 797.089844 111.832031 797.53125 111.007812 798.054688 110.222656 C 798.578125 109.441406 799.171875 108.71875 799.839844 108.050781 C 800.503906 107.386719 801.226562 106.792969 802.011719 106.269531 C 802.792969 105.746094 803.621094 105.304688 804.488281 104.945312 C 805.359375 104.582031 806.253906 104.3125 807.179688 104.128906 C 808.101562 103.945312 809.035156 103.851562 809.976562 103.851562 C 810.914062 103.851562 811.847656 103.945312 812.769531 104.128906 C 813.695312 104.3125 814.589844 104.582031 815.460938 104.945312 C 816.328125 105.304688 817.15625 105.746094 817.9375 106.269531 C 818.722656 106.792969 819.445312 107.386719 820.109375 108.050781 C 820.777344 108.71875 821.371094 109.441406 821.894531 110.222656 C 822.417969 111.007812 822.859375 111.832031 823.21875 112.703125 C 823.578125 113.570312 823.851562 114.46875 824.035156 115.390625 C 824.21875 116.3125 824.308594 117.246094 824.308594 118.1875 Z M 824.308594 118.1875 " fill-opacity="1" fill-rule="nonzero"/><path fill="#f3a268" d="M 738.300781 132.523438 C 738.300781 133.460938 738.207031 134.394531 738.023438 135.316406 C 737.839844 136.242188 737.570312 137.136719 737.207031 138.007812 C 736.847656 138.875 736.40625 139.703125 735.882812 140.484375 C 735.359375 141.269531 734.765625 141.992188 734.101562 142.65625 C 733.4375 143.324219 732.710938 143.917969 731.929688 144.441406 C 731.144531 144.960938 730.320312 145.40625 729.449219 145.765625 C 728.582031 146.125 727.683594 146.398438 726.761719 146.582031 C 725.839844 146.765625 724.90625 146.855469 723.964844 146.855469 C 723.023438 146.855469 722.089844 146.765625 721.167969 146.582031 C 720.246094 146.398438 719.347656 146.125 718.480469 145.765625 C 717.609375 145.40625 716.785156 144.960938 716 144.441406 C 715.21875 143.917969 714.492188 143.324219 713.828125 142.65625 C 713.164062 141.992188 712.570312 141.269531 712.046875 140.484375 C 711.523438 139.703125 711.082031 138.875 710.722656 138.007812 C 710.359375 137.136719 710.089844 136.242188 709.90625 135.316406 C 709.722656 134.394531 709.628906 133.460938 709.628906 132.523438 C 709.628906 131.582031 709.722656 130.648438 709.90625 129.726562 C 710.089844 128.800781 710.359375 127.90625 710.722656 127.035156 C 711.082031 126.167969 711.523438 125.339844 712.046875 124.558594 C 712.570312 123.773438 713.164062 123.050781 713.828125 122.386719 C 714.492188 121.71875 715.21875 121.125 716 120.601562 C 716.785156 120.082031 717.609375 119.636719 718.480469 119.277344 C 719.347656 118.917969 720.246094 118.644531 721.167969 118.460938 C 722.089844 118.277344 723.023438 118.1875 723.964844 118.1875 C 724.90625 118.1875 725.839844 118.277344 726.761719 118.460938 C 727.683594 118.644531 728.582031 118.917969 729.449219 119.277344 C 730.320312 119.636719 731.144531 120.082031 731.929688 120.601562 C 732.710938 121.125 733.4375 121.71875 734.101562 122.386719 C 734.765625 123.050781 735.359375 123.773438 735.882812 124.558594 C 736.40625 125.339844 736.847656 126.167969 737.207031 127.035156 C 737.570312 127.90625 737.839844 128.800781 738.023438 129.726562 C 738.207031 130.648438 738.300781 131.582031 738.300781 132.523438 Z M 738.300781 132.523438 " fill-opacity="1" fill-rule="nonzero"/><path fill="#f3a268" d="M 895.984375 146.855469 C 903.898438 146.855469 910.320312 140.433594 910.320312 132.523438 L 881.648438 132.523438 C 881.648438 140.433594 888.070312 146.855469 895.984375 146.855469 Z M 895.984375 146.855469 " fill-opacity="1" fill-rule="nonzero"/><path fill="#f3a268" d="M 752.636719 89.519531 C 752.636719 97.429688 759.058594 103.851562 766.96875 103.851562 C 772 103.851562 776.203125 101.113281 778.765625 97.203125 C 772.160156 90.964844 766.210938 84.058594 761.035156 76.5625 C 756.105469 78.824219 752.636719 83.742188 752.636719 89.519531 Z M 752.636719 89.519531 " fill-opacity="1" fill-rule="nonzero"/><path fill="#f3a268" d="M 809.976562 132.523438 C 815.59375 132.523438 820.339844 129.210938 822.691406 124.496094 C 813.714844 121.183594 805.199219 116.953125 797.289062 111.824219 C 796.3125 113.773438 795.640625 115.863281 795.640625 118.1875 C 795.640625 126.101562 802.0625 132.523438 809.976562 132.523438 Z M 809.976562 132.523438 " fill-opacity="1" fill-rule="nonzero"/><path fill="#a9c7b9" d="M 297.644531 141.09375 L 269.890625 133.898438 C 231.574219 123.949219 208.566406 84.832031 218.515625 46.515625 L 246.265625 53.710938 C 284.582031 63.660156 307.589844 102.777344 297.644531 141.09375 Z M 297.644531 141.09375 " fill-opacity="1" fill-rule="nonzero"/><path fill="#83ae9b" d="M 269.890625 105.214844 C 242.566406 98.121094 223.289062 76.117188 217.941406 50.214844 C 210.355469 87.3125 232.804688 124.265625 269.890625 133.882812 L 297.644531 141.078125 C 301.382812 126.671875 300.453125 112.167969 295.824219 99.136719 C 288.925781 105.085938 279.367188 107.679688 269.890625 105.214844 Z M 269.890625 105.214844 " fill-opacity="1" fill-rule="nonzero"/><g clip-path="url(#0780388dd3)"><path fill="#f15574" d="M 365.589844 132.523438 C 344.675781 132.523438 325.136719 138.210938 308.25 147.988281 C 291.363281 138.210938 271.824219 132.523438 250.910156 132.523438 C 187.578125 132.523438 136.230469 183.867188 136.230469 247.195312 C 136.230469 310.523438 206.6875 447.875 270.019531 447.875 C 284.398438 447.875 297.082031 443.085938 308.25 435.203125 C 319.402344 443.085938 332.105469 447.875 346.480469 447.875 C 409.8125 447.875 480.269531 310.523438 480.269531 247.195312 C 480.269531 183.867188 428.921875 132.523438 365.589844 132.523438 Z M 365.589844 132.523438 " fill-opacity="1" fill-rule="nonzero"/></g><g clip-path="url(#75ad01af6b)"><path fill="#ee2f56" d="M 222.242188 168.355469 C 222.242188 157.191406 223.332031 146.3125 224.921875 135.589844 C 174.117188 147.371094 136.230469 192.8125 136.230469 247.195312 C 136.230469 310.523438 206.6875 447.875 270.019531 447.875 C 284.398438 447.875 297.082031 443.085938 308.25 435.203125 C 319.402344 443.085938 332.105469 447.875 346.480469 447.875 C 373.402344 447.875 401.570312 422.960938 425.109375 389.5625 C 311.460938 379.746094 222.242188 284.535156 222.242188 168.355469 Z M 222.242188 168.355469 " fill-opacity="1" fill-rule="nonzero"/></g><path fill="#f47c94" d="M 422.929688 261.53125 C 415.015625 261.53125 408.59375 255.109375 408.59375 247.195312 C 408.59375 223.488281 389.300781 204.191406 365.589844 204.191406 C 357.675781 204.191406 351.253906 197.769531 351.253906 189.859375 C 351.253906 181.945312 357.675781 175.523438 365.589844 175.523438 C 405.113281 175.523438 437.265625 207.675781 437.265625 247.195312 C 437.265625 255.109375 430.84375 261.53125 422.929688 261.53125 Z M 422.929688 261.53125 " fill-opacity="1" fill-rule="nonzero"/><path fill="#61947d" d="M 308.238281 161.191406 C 301.8125 161.191406 295.980469 156.847656 294.347656 150.339844 C 284.453125 110.734375 305.570312 69.421875 343.472656 54.269531 L 360.273438 47.546875 C 367.640625 44.625 375.96875 48.191406 378.90625 55.53125 C 381.847656 62.886719 378.277344 71.226562 370.921875 74.167969 L 354.121094 80.875 C 329.464844 90.738281 315.71875 117.597656 322.171875 143.371094 C 324.089844 151.054688 319.417969 158.839844 311.734375 160.761719 C 310.558594 161.0625 309.398438 161.191406 308.238281 161.191406 Z M 308.238281 161.191406 " fill-opacity="1" fill-rule="nonzero"/></svg>