<?xml version="1.0" encoding="UTF-8"?>
<svg xmlns="http://www.w3.org/2000/svg" width="1440" height="810" viewBox="0 0 1440 810" fill="none">
  <g clip-path="url(#clip0_3131_7943)">
    <rect width="1440" height="810" fill="#3B1100"></rect>
    <path d="M1191.34 998.393C1189.1 993.922 1186.36 990.195 1185.36 985.973C1184.86 983.488 1186.61 980.011 1188.22 977.651C1191.21 973.552 1194.33 968.957 1198.43 966.348C1205.03 962.125 1209.39 956.288 1213.87 950.202C1217.48 945.358 1222.34 941.508 1226.57 937.161C1230.43 933.31 1233.79 928.963 1237.9 925.361C1242.88 921.014 1248.11 916.667 1253.84 913.438C1257.33 911.45 1260.32 911.202 1260.56 905.613C1260.69 902.135 1265.67 897.167 1269.4 895.925C1283.47 891.205 1290.94 879.033 1301.4 870.215C1303.4 868.476 1306.14 867.482 1308.5 866.116C1310.37 864.998 1312.73 864.253 1313.85 862.638C1320.95 852.454 1331.53 847.61 1342.62 843.263C1343.61 842.89 1344.86 842.89 1345.85 842.517C1349.34 841.027 1353.95 837.922 1355.81 842.517C1357.31 846.119 1355.81 851.46 1354.32 855.434C1351.83 862.141 1346.6 867.234 1343.36 873.941C1339.88 881.393 1332.16 886.982 1326.31 893.192C1325.43 894.186 1323.44 894.434 1323.07 895.428C1319.71 906.855 1308.13 909.711 1300.53 916.667C1297.54 919.524 1295.43 923.25 1292.44 925.982C1282.23 935.173 1272.02 944.488 1261.19 953.059C1253.84 959.02 1245.13 963.367 1237.78 969.205C1229.94 975.415 1223.34 982.867 1215.49 989.202C1211.76 992.307 1206.78 994.046 1202.04 995.785C1198.81 997.027 1195.2 997.399 1191.46 998.269L1191.34 998.393Z" fill="#DD572C"></path>
    <path d="M1219.6 1127.81C1217.36 1126.07 1215.87 1124.83 1214.99 1124.21C1216.99 1120.61 1219.6 1117.63 1220.22 1114.27C1221.1 1108.93 1223.34 1106.2 1227.57 1106.45C1229.31 1101.61 1229.94 1096.89 1232.43 1093.41C1236.29 1088.19 1241.27 1083.84 1245.87 1079.25C1251.85 1073.16 1254.09 1074.28 1258.57 1081.24C1262.56 1087.32 1262.93 1092.54 1259.32 1098.5C1258.95 1099.12 1258.82 1100.24 1259.07 1100.98C1261.31 1109.31 1258.95 1115.39 1252.1 1119.99C1250.73 1120.86 1249.73 1124.96 1250.6 1125.95C1253.72 1129.8 1252.22 1131.79 1248.99 1134.15C1248.11 1134.77 1247.74 1136.26 1247.49 1137.5C1245.5 1144.95 1242.39 1151.41 1235.91 1156.5C1231.06 1160.35 1229.06 1166.44 1227.94 1172.77C1227.2 1177 1226.33 1182.71 1223.46 1184.82C1217.48 1189.04 1213.87 1195.13 1208.89 1199.97C1206.65 1202.21 1204.29 1204.82 1203.54 1207.8C1202.42 1212.15 1200.8 1212.89 1196.82 1210.28C1196.07 1214.88 1195.57 1218.85 1194.82 1223.33C1193.08 1223.2 1191.21 1222.95 1187.85 1222.58C1189.97 1225.31 1191.34 1227.05 1192.09 1227.92C1189.84 1232.39 1187.73 1236.49 1185.74 1240.71C1183.24 1245.81 1180.63 1250.65 1175.65 1248.04C1172.16 1252.64 1169.18 1256.61 1166.31 1260.46C1165.69 1260.09 1165.07 1259.72 1164.44 1259.34C1165.19 1256.36 1165.94 1253.26 1166.81 1249.78C1163.2 1250.15 1160.09 1250.4 1155.98 1250.77C1163.2 1253.88 1161.21 1257.98 1157.84 1263.82C1157.1 1258.1 1156.72 1253.63 1150.5 1254C1149.38 1254 1146.89 1249.9 1146.89 1247.67C1146.89 1244.07 1148.26 1240.34 1149.5 1236.86C1151.99 1229.54 1154.73 1222.21 1157.6 1215C1158.59 1212.64 1160.96 1210.9 1161.95 1208.67C1165.07 1201.09 1167.56 1193.27 1170.79 1185.69C1171.79 1183.21 1174.16 1181.34 1176.02 1179.23C1177.89 1177.37 1179.88 1175.63 1181.88 1173.89C1185.61 1170.66 1189.22 1166.94 1193.33 1164.33C1197.07 1161.97 1198.31 1160.23 1194.7 1156.75C1193.7 1155.76 1193.45 1153.77 1192.96 1152.28C1194.33 1152.03 1195.7 1151.54 1197.07 1151.41C1202.42 1151.41 1205.78 1149.8 1206.65 1143.71C1207.65 1136.38 1210.39 1129.68 1219.98 1128.06L1219.6 1127.81ZM1182.37 1208.92C1183.24 1207.92 1183.99 1206.93 1184.86 1205.94C1182.62 1204.45 1180.51 1202.83 1178.26 1201.34C1178.14 1201.34 1176.65 1202.96 1176.65 1203.08C1178.51 1205.07 1180.38 1206.93 1182.37 1208.92Z" fill="#DD572C"></path>
    <path d="M2008.37 801.778C2017.33 802.895 2025.05 803.392 2032.65 804.759C2037.38 805.628 2041.99 807.491 2046.47 809.23C2050.58 810.72 2054.44 812.832 2058.55 814.446C2061.16 815.44 2063.9 815.937 2066.64 816.93C2069.01 817.8 2071.5 818.545 2073.24 820.16C2077.35 823.762 2078.22 827.363 2072.12 830.22C2070.5 830.965 2069.5 833.077 2068.51 834.195C2070.75 837.051 2072.87 839.66 2074.86 842.268L2073.49 843.634C2069.88 842.889 2066.39 842.268 2062.53 841.523C2060.04 847.36 2056.68 848.478 2051.7 844.255C2050.58 843.386 2048.09 844.007 2046.22 844.131C2043.48 844.131 2040.24 845.621 2038.13 844.504C2027.67 839.287 2016.34 839.535 2005.38 837.672C2001.52 837.051 1997.79 835.561 1993.93 834.816C1980.48 832.332 1966.66 835.809 1953.09 832.332C1947.36 830.841 1942.13 829.723 1941.01 824.631C1933.79 824.631 1927.06 825.749 1920.84 824.383C1914.74 823.016 1909.01 819.166 1903.28 816.309C1901.91 815.688 1900.67 814.57 1899.17 814.322C1892.08 812.707 1888.09 809.23 1888.84 802.15C1889.21 798.797 1893.45 793.953 1896.81 793.083C1913.87 788.488 1931.05 787.37 1948.36 793.58C1953.46 795.443 1959.69 794.077 1965.29 794.698C1967.78 794.946 1970.39 796.064 1972.63 797.43C1976.25 799.542 1979.48 802.523 1983.72 798.424C1984.71 797.43 1987.58 796.934 1988.45 797.555C1992.06 800.66 1994.3 799.045 1998.16 797.555C2000.77 796.437 2005.75 800.536 2008.37 801.778Z" fill="#DD572C"></path>
    <path d="M1894.94 152.688C1894.69 150.452 1895.07 147.844 1894.07 145.981C1891.7 142.007 1891.46 139.523 1896.69 138.032C1898.18 137.659 1899.42 135.921 1900.42 134.554C1906.15 127.226 1911.25 119.402 1917.48 112.695C1920.72 109.217 1926.44 108.099 1930.43 104.994C1934.29 102.013 1937.15 97.7901 1940.39 94.1882C1940.76 93.6914 1940.76 92.8219 1941.26 92.4493C1945.49 87.4812 1949.1 81.7678 1954.08 77.7933C1957.82 74.8124 1964.05 71.4589 1967.78 72.5767C1972.76 74.0672 1976.5 79.7806 1980.85 83.6309C1979.98 84.0035 1979.11 84.3761 1978.36 84.6245C1977.74 86.9844 1976.5 89.3442 1976.37 91.7041C1975.87 101.144 1969.4 106.609 1963.17 113.067C1961.68 110.086 1960.43 107.975 1959.31 105.739C1958.44 105.739 1957.7 105.739 1956.82 105.739C1962.18 113.067 1958.44 118.78 1955.33 124.37C1952.22 129.835 1948.36 135.051 1944.62 140.765C1937.4 136.293 1935.66 140.889 1934.91 146.105C1933.91 153.309 1928.68 157.159 1923.95 161.879C1918.72 167.22 1911.13 170.201 1909.14 179.143C1907.64 185.726 1903.28 191.688 1894.57 190.943C1893.57 190.943 1891.58 192.433 1891.58 193.178C1891.46 201.5 1882.99 201.748 1879.01 206.344C1870.66 215.908 1858.83 217.771 1847.01 218.764C1845.51 218.889 1843.64 217.771 1842.52 216.653C1838.91 212.927 1839.91 202.742 1843.4 198.643C1848 193.303 1852.11 187.341 1856.47 181.752C1863.44 173.057 1869.29 163.245 1878.76 156.787C1879.88 156.042 1881 155.296 1881.74 154.303C1885.31 149.749 1889.67 149.21 1894.82 152.688H1894.94Z" fill="#DD572C"></path>
    <path d="M787.927 218.268C789.172 220.131 790.293 221.621 791.289 223.112C791.911 222.864 792.409 222.739 793.032 222.491C792.409 220.504 791.413 218.516 791.289 216.405C791.289 213.176 791.911 209.946 792.285 206.593C794.651 207.214 797.39 207.338 799.382 208.58C802.868 210.692 805.732 213.797 809.094 215.908C810.712 216.902 813.202 216.653 814.199 216.902C816.813 219.013 818.556 221.125 820.673 221.994C828.019 224.975 836.237 226.59 842.96 230.688C849.684 234.911 855.038 241.37 860.641 247.207C864.127 250.809 866.617 255.405 870.228 258.883C872.095 260.746 875.582 262.857 877.574 262.36C882.803 260.994 884.92 263.851 887.535 266.956C889.278 268.943 891.021 271.427 893.262 272.297C903.223 276.271 909.199 284.22 915.3 292.418C916.794 294.405 920.281 295.15 921.526 297.261C923.144 299.87 923.643 303.347 925.012 307.695C937.837 307.695 940.576 320.488 946.926 329.306C949.54 332.908 944.436 340.236 938.957 340.857C936.093 341.23 932.732 341.851 930.366 340.733C917.292 334.15 904.842 326.574 896.25 314.277C895.503 313.16 895.752 311.296 895.503 309.682C894.009 309.682 892.64 309.806 891.145 309.806C890.772 309.806 890.398 309.309 890.274 309.309C890.025 306.328 889.776 303.472 889.402 299.497C886.663 302.354 885.418 304.589 883.426 305.707C881.807 306.577 878.819 306.949 877.574 306.08C875.457 304.465 872.967 301.733 872.843 299.373C872.718 292.418 869.356 287.822 861.886 287.449C851.925 286.953 843.209 284.717 839.349 273.911L838.229 275.402C835.739 273.663 833.124 271.924 830.634 270.061C825.529 266.211 820.299 262.484 815.693 258.137C808.098 250.934 800.876 243.233 793.405 235.905C791.911 234.414 789.795 233.545 787.802 232.427C782.324 229.322 782.2 222.615 787.927 218.268Z" fill="#DD572C"></path>
    <path d="M1056.74 106.485C1053.38 103.505 1048.77 101.145 1047.03 97.4186C1045.16 93.444 1046.03 88.2275 1045.91 84.9982C1042.42 85.7434 1038.31 87.6065 1034.33 87.1097C1032.34 86.8612 1030.97 82.5141 1028.6 78.788C1022.13 77.7944 1003.45 57.3008 1002.08 46.4951C1004.95 48.8549 1006.94 50.5938 1008.81 52.2084C1009.43 51.96 1009.93 51.7116 1010.55 51.5874C1009.55 49.476 1008.81 46.9919 1007.44 45.1288C1003.83 40.6575 1004.07 39.0428 1009.55 37.0556C1016.65 34.5715 1023.37 36.683 1030.22 38.1734C1031.72 38.546 1033.33 38.4218 1034.58 39.0428C1037.07 40.2849 1039.44 41.6511 1041.55 43.39C1045.04 46.1225 1047.78 50.718 1051.51 51.96C1057.36 53.6989 1061.6 56.0587 1065.33 61.0269C1069.82 67.1129 1075.17 72.8262 1081.02 77.7944C1085.25 81.3963 1086.38 84.253 1082.39 87.9791C1083.89 92.6988 1095.34 88.8485 1090.11 97.9154C1100.94 100.648 1105.18 108.473 1108.29 117.912C1110.28 124.122 1113.89 129.836 1116.51 135.797C1119.5 142.38 1122.73 148.839 1124.72 155.794C1126.22 160.638 1114.64 174.425 1109.78 174.797C1108.91 174.797 1107.92 174.673 1107.29 174.176C1102.19 170.699 1097.21 167.097 1092.23 163.495C1091.85 163.246 1091.36 163.122 1091.11 162.75C1088.12 157.409 1085.5 151.82 1082.27 146.603C1080.52 143.746 1077.29 141.883 1075.29 139.151C1073.3 136.543 1072.06 133.313 1070.56 130.333C1068.2 125.613 1067.7 120.024 1061.85 116.919C1058.98 115.428 1058.11 110.212 1056.24 106.61C1056.49 106.61 1056.74 106.485 1057.12 106.361L1056.74 106.485Z" fill="#DD572C"></path>
    <path d="M1714.78 1379.82C1714.78 1379.82 1713.28 1380.44 1710.79 1381.68C1706.93 1370.63 1703.07 1359.95 1699.21 1349.02C1695.85 1350.26 1694.36 1348.64 1693.11 1344.55C1691.62 1340.07 1687.76 1336.47 1685.52 1332.13C1681.66 1324.67 1678.17 1316.97 1674.43 1309.4C1671.07 1302.57 1667.84 1295.73 1664.35 1289.03C1661.24 1282.94 1665.35 1271.27 1671.7 1268.78C1672.69 1268.41 1674.19 1267.79 1674.81 1268.16C1682.9 1272.88 1692.99 1273.87 1697.84 1284.43C1703.2 1296.11 1711.17 1306.66 1717.89 1317.72C1718.26 1318.34 1718.88 1318.84 1718.88 1319.46C1718.51 1333.24 1730.09 1341.44 1734.2 1352.99C1734.82 1354.98 1732.95 1357.59 1732.83 1360.07C1732.83 1361.93 1733.7 1365.54 1733.83 1365.54C1743.91 1364.05 1744.53 1373.73 1748.02 1378.7C1754.49 1387.77 1759.35 1398.08 1764.58 1408.14C1767.07 1413.11 1769.06 1418.32 1770.68 1423.66C1771.55 1426.52 1772.05 1429.87 1767.69 1431.24C1766.57 1431.61 1765.2 1434.1 1765.33 1435.46C1765.82 1441.18 1761.72 1442.29 1757.86 1443.04C1753.87 1443.78 1751.51 1442.17 1749.27 1437.95C1746.03 1431.99 1740.92 1426.64 1735.94 1421.8C1728.72 1414.85 1724.74 1406.28 1721.37 1397.08C1720.88 1395.72 1720.38 1394.23 1719.88 1392.86C1718.26 1388.76 1716.52 1384.54 1714.65 1379.94L1714.78 1379.82Z" fill="#DD572C"></path>
    <path d="M1792.97 628.761C1790.98 628.389 1789.61 628.14 1788.11 627.892C1788.11 626.898 1787.86 626.153 1788.11 625.656C1791.1 616.341 1799.69 610.379 1809.28 609.386C1813.64 608.889 1817.75 605.908 1821.98 604.169C1825.96 602.554 1830.07 601.312 1834.06 599.698C1835.8 598.953 1837.54 597.959 1839.29 597.214C1841.9 596.22 1845.51 593.86 1847.13 594.854C1851.86 597.711 1855.6 595.226 1859.83 594.357C1868.79 592.494 1877.76 590.879 1886.6 588.768C1895.19 586.656 1903.78 584.048 1912.62 581.688C1912.12 584.421 1911.75 586.284 1911.38 588.147C1913 587.029 1914.74 585.911 1916.36 584.918C1919.1 583.303 1921.84 580.446 1924.7 580.322C1935.28 579.949 1945.87 580.322 1956.45 580.819C1960.81 580.943 1965.91 587.526 1966.04 591.997C1966.04 594.109 1966.91 596.22 1966.91 596.717C1962.92 601.064 1960.06 607.15 1956.57 607.523C1949.73 608.392 1946.24 616.962 1938.4 614.602C1936.53 613.981 1933.91 615.472 1931.67 616.341C1927.69 617.831 1923.83 620.191 1920.47 615.72C1917.6 617.459 1914.99 619.074 1912.37 620.44C1910.75 621.309 1909.01 621.682 1907.27 622.303C1907.27 620.44 1907.02 618.577 1906.89 616.217C1906.02 617.335 1905.15 618.08 1904.53 619.074C1901.04 624.414 1896.56 625.905 1890.09 625.284C1881.99 624.538 1873.65 624.787 1865.56 625.905C1861.45 626.526 1857.96 630.376 1853.85 631.866C1850.37 633.233 1846.26 634.599 1842.9 633.854C1835.8 632.488 1830.57 635.841 1824.72 638.449C1823.1 639.195 1819.99 639.567 1819.24 638.698C1815.75 634.847 1812.52 636.089 1809.15 638.325C1805.92 640.437 1803.05 640.809 1800.19 637.704C1799.57 637.083 1798.7 636.214 1798.07 636.214C1791.97 636.711 1791.35 633.357 1793.09 628.637L1792.97 628.761Z" fill="#DD572C"></path>
    <path d="M1342.49 1410C1336.52 1386.16 1324.19 1363.18 1335.4 1336.1C1331.79 1336.35 1329.54 1336.47 1326.68 1336.72C1323.07 1309.15 1320.58 1281.45 1319.83 1253.01C1321.45 1255 1322.95 1256.86 1325.19 1259.59C1327.05 1256.12 1328.42 1253.51 1329.67 1251.27C1326.56 1248.04 1323.94 1245.19 1320.83 1241.96C1325.56 1240.34 1329.42 1237.61 1331.91 1238.48C1336.39 1239.97 1341.25 1242.83 1343.74 1246.68C1347.1 1251.77 1347.85 1258.35 1350.59 1263.94C1352.95 1268.78 1351.71 1271.52 1347.47 1273.75C1359.55 1280.96 1365.65 1322.32 1356.69 1338.59C1363.54 1338.83 1363.66 1343.18 1363.79 1348.52C1364.03 1355.48 1366.52 1362.31 1366.52 1369.26C1366.52 1376.34 1364.03 1383.3 1363.66 1390.38C1363.54 1393.98 1366.65 1397.58 1366.77 1401.19C1367.02 1405.04 1365.53 1409.01 1364.66 1412.86C1364.41 1414.1 1362.79 1415.1 1362.79 1416.21C1363.41 1424.66 1356.81 1423.67 1352.83 1422.42C1348.84 1421.06 1345.73 1416.96 1342.49 1413.85C1342.12 1413.48 1343.49 1411.25 1344.11 1409.88C1343.49 1409.88 1342.87 1410 1342.37 1410.13L1342.49 1410Z" fill="#DD572C"></path>
    <path d="M855.535 503.316C860.764 501.826 864.624 502.198 868.11 506.67C869.853 508.905 873.838 510.147 876.826 510.272C883.176 510.644 887.534 513.004 891.393 518.221C894.257 522.195 899.611 524.182 902.599 528.033C906.957 533.87 910.443 540.453 913.432 547.16C913.805 547.905 908.7 552.625 906.21 552.625C899.362 552.377 892.514 550.762 885.666 549.396C873.464 547.036 864.126 540.95 858.398 529.647C856.904 526.667 854.788 523.81 852.671 520.581C851.177 521.326 848.562 523.686 845.947 523.81C843.333 523.81 840.344 522.071 837.854 520.705C829.886 516.109 820.547 513.874 814.571 505.925C812.454 503.068 809.093 499.466 806.104 499.218C799.63 498.597 797.264 493.753 793.404 490.399C789.046 486.425 786.058 480.09 778.463 481.332C777.841 481.332 777.094 480.463 776.471 479.842C771.117 474.625 765.888 469.16 760.534 464.068C756.674 460.342 752.939 444.444 755.304 439.476C756.549 436.867 758.044 434.383 759.662 432.023C763.024 427.055 765.141 427.428 768.378 432.52C769.249 433.886 772.611 434.88 774.23 434.259C778.214 433.017 780.331 433.638 782.198 437.488C783.444 439.972 786.058 442.084 788.424 443.823C797.513 450.406 802.369 461.832 814.073 465.558C815.443 466.055 817.061 468.415 817.186 470.03C817.559 476.364 821.544 478.103 826.897 479.718C839.348 483.568 850.305 489.778 855.41 503.316H855.535Z" fill="#DD572C"></path>
    <path d="M1090.11 897.912C1089.74 892.323 1089.11 887.479 1096.71 888.597C1097.46 888.597 1098.45 885.367 1099.82 884.001C1101.69 882.014 1103.68 879.654 1106.17 878.536C1110.9 876.549 1116.13 875.68 1120.99 873.816C1129.46 870.463 1137.92 866.985 1146.14 863.011C1152.61 859.906 1158.59 856.18 1166.19 857.546C1168.18 857.918 1170.29 857.546 1172.04 858.167C1174.15 858.912 1177.02 859.906 1177.77 861.52C1178.64 863.259 1178.26 866.985 1176.89 868.103C1166.31 877.046 1157.97 888.721 1144.27 893.689C1143.65 893.938 1142.78 893.937 1142.4 894.434C1134.93 904.495 1122.98 908.221 1112.52 912.195C1104.3 915.3 1099.82 922.132 1091.98 925.237C1078.41 930.702 1065.46 938.154 1052.38 944.737C1043.54 949.208 1034.83 953.804 1026.11 958.399C1025.61 958.648 1025.74 960.262 1025.12 960.635C1023.12 961.753 1020.88 963.367 1019.02 963.119C1017.65 962.995 1015.65 960.138 1015.65 958.523C1015.65 954.052 1014.04 952.437 1009.68 951.568C1007.44 951.071 1004.57 947.718 1004.2 945.234C1003.95 943.246 1007.06 940.886 1008.81 938.775C1009.43 938.03 1011.05 937.781 1011.55 937.036C1017.77 926.106 1029.6 922.753 1039.44 916.667C1041.18 915.673 1043.17 914.679 1044.29 913.189C1048.52 907.227 1055.25 906.109 1061.47 903.874C1063.34 903.253 1065.33 902.508 1066.95 901.39C1072.06 897.415 1076.66 894.559 1082.27 901.017C1083.01 901.887 1087.62 899.278 1090.24 898.409L1090.11 897.912Z" fill="#DD572C"></path>
    <path d="M1054.75 240.128C1052.63 242.736 1051.39 244.475 1049.52 246.711C1051.51 246.711 1052.51 246.711 1053.51 246.711C1061.22 246.09 1063.71 247.704 1064.46 255.405C1064.84 259.007 1065.71 260.249 1069.07 260.125C1073.18 260 1075.42 261.615 1076.17 266.086C1076.79 269.067 1079.4 271.8 1081.52 275.402C1079.4 275.153 1077.78 274.905 1076.17 274.781L1075.42 276.395C1077.66 277.389 1079.9 279.128 1082.14 279.376C1088.49 279.749 1092.23 281.86 1091.85 289.064C1091.85 290.927 1093.6 294.032 1095.22 294.653C1102.31 297.137 1103.06 302.727 1105.05 307.695C1108.29 311.545 1112.27 314.898 1114.64 319.246C1118.13 325.332 1120.86 332.039 1123.48 338.621C1125.85 344.459 1128.34 350.421 1129.08 356.507C1129.58 360.109 1126.97 364.207 1125.35 369.672C1122.11 366.195 1119.62 363.462 1117.01 360.605C1110.03 364.207 1108.66 363.586 1103.93 356.879C1100.69 352.532 1096.21 349.054 1092.97 344.707C1089.61 340.112 1086.87 335.019 1084.01 330.176C1083.14 328.685 1083.01 326.201 1081.77 325.58C1072.68 321.233 1068.7 312.787 1063.96 304.838C1063.71 304.465 1063.59 303.969 1063.22 303.72C1049.77 296.889 1047.4 280.867 1036.95 271.8C1029.97 265.714 1029.35 255.157 1020.01 250.437C1016.77 248.822 1016.03 242.364 1013.79 238.389C1012.54 236.278 1010.67 233.669 1008.43 233.048C1001.46 230.937 1001.09 225.72 1001.96 220.38C1002.95 214.666 1006.07 211.561 1012.79 212.306C1017.77 212.927 1022.75 211.685 1024.12 218.516C1024.25 219.386 1026.24 220.007 1027.36 220.504C1034.95 223.857 1041.55 228.204 1046.41 235.284C1047.9 237.52 1051.39 238.513 1054.5 240.376L1054.75 240.128ZM1044.17 254.908C1043.42 254.536 1042.67 254.163 1041.93 253.79C1041.55 260.125 1037.82 259.131 1033.83 257.765C1033.58 258.262 1033.33 258.883 1033.09 259.379L1039.93 267.577C1040.56 267.453 1041.3 267.328 1041.93 267.204C1042.67 263.106 1043.42 259.131 1044.04 255.032L1044.17 254.908Z" fill="#DD572C"></path>
    <path d="M1757.86 136.667C1757.36 143.001 1759.35 152.068 1755.74 157.782C1751.63 164.116 1749.89 169.333 1750.39 176.536C1750.39 178.275 1746.03 181.256 1743.29 182.001C1736.19 183.74 1734.82 185.603 1739.06 191.068C1743.54 197.03 1737.06 199.762 1735.69 203.985C1733.7 210.196 1731.46 216.282 1728.6 222.119C1725.61 228.205 1721.87 233.918 1718.64 239.88C1716.64 243.482 1715.15 247.208 1713.41 250.934C1713.16 251.555 1713.41 252.549 1713.03 252.797C1704.69 260.25 1705.94 272.173 1699.71 280.619C1698.59 282.234 1697.22 283.6 1695.73 284.966C1690.75 289.562 1684.77 293.412 1682.4 300.492C1681.91 301.982 1678.42 302.355 1677.3 302.851C1675.68 305.708 1674.56 308.937 1672.44 311.173C1667.59 316.017 1663.73 311.422 1660.86 308.441C1659.37 306.95 1659.37 302.727 1660.24 300.367C1663.48 291.673 1667.09 283.103 1670.95 274.657C1671.7 273.043 1673.81 272.049 1675.18 270.683C1676.8 268.944 1678.17 266.957 1679.67 265.094C1679.17 264.597 1678.67 264.1 1678.17 263.603C1676.18 264.224 1674.19 264.721 1672.19 265.342C1672.69 260.25 1675.18 257.393 1680.29 256.027C1685.89 254.412 1685.77 253.543 1682.03 248.326C1681.28 247.208 1682.03 244.6 1682.65 242.861C1683.9 239.756 1685.89 237.024 1687.01 233.918C1688.38 230.192 1688.38 225.969 1690.25 222.616C1692.49 218.517 1695.48 214.667 1698.84 211.313C1701.83 208.208 1705.81 206.345 1704.32 200.508C1703.7 197.899 1706.56 194.422 1707.8 191.441C1711.66 182.25 1715.52 173.183 1719.51 163.992C1720.88 160.887 1720.75 155.546 1726.73 159.024C1727.48 159.396 1729.59 158.527 1730.09 157.657C1730.71 156.54 1730.71 154.677 1730.09 153.434C1727.23 145.734 1728.85 137.164 1735.69 132.941C1738.81 131.078 1744.04 131.947 1748.15 132.444C1751.01 132.817 1753.75 134.68 1757.86 136.419V136.667ZM1738.93 173.804C1739.8 173.804 1740.67 173.804 1741.67 173.804L1739.93 164.985C1739.06 165.11 1738.06 165.358 1737.19 165.482C1737.81 168.339 1738.43 171.071 1738.93 173.928V173.804Z" fill="#DD572C"></path>
    <path d="M1461.28 817.178C1453.93 817.054 1450.19 807.738 1453.06 802.646C1457.66 794.324 1462.89 786.5 1468 778.426C1470.74 773.955 1473.48 769.484 1476.34 765.012C1477.46 763.398 1478.83 761.783 1480.33 760.541C1484.68 756.815 1489.41 753.586 1493.52 749.611C1495.14 747.996 1494.89 744.519 1496.51 742.78C1499.62 739.178 1503.61 736.321 1506.97 732.719C1510.33 729.242 1513.2 725.391 1516.18 721.665C1519.17 718.063 1520.54 713.84 1525.77 711.481C1530.5 709.369 1532.99 702.91 1537.1 698.936C1540.84 695.21 1545.32 692.353 1549.43 689C1554.16 685.149 1558.64 681.175 1563.5 677.449C1568.35 673.723 1572.59 676.579 1575.95 679.684C1579.19 682.79 1584.29 685.895 1579.56 691.608C1579.19 692.105 1578.56 693.223 1578.81 693.347C1583.29 697.321 1580.43 700.054 1577.44 702.786C1574.7 705.395 1571.72 707.754 1569.22 710.611C1566.73 713.468 1564.74 716.821 1562.63 719.926C1561.26 721.914 1560.38 724.522 1558.64 725.888C1549.55 732.595 1543.95 742.531 1535.98 750.232C1528.51 757.56 1520.17 764.019 1512.95 771.471C1507.84 776.688 1503.61 782.649 1499.25 788.487C1489.79 801.031 1477.34 809.477 1463.52 816.308C1462.77 816.681 1461.77 816.681 1461.52 816.805L1461.28 817.178ZM1503.48 751.226C1504.48 751.847 1505.48 752.468 1506.6 753.089C1508.59 750.232 1510.46 747.375 1512.45 744.519C1510.95 743.773 1508.09 742.283 1508.09 742.407C1506.47 745.264 1505.1 748.245 1503.61 751.102L1503.48 751.226Z" fill="#DD572C"></path>
    <path d="M1717.64 1608.35C1714.65 1611.21 1713.16 1613.82 1710.92 1614.69C1704.07 1617.17 1698.46 1615.31 1695.97 1609.85C1694.48 1606.49 1694.6 1602.52 1693.61 1598.92C1693.11 1596.93 1692.36 1594.94 1691.12 1593.45C1688.88 1590.72 1684.27 1588.36 1684.15 1585.63C1683.9 1580.78 1680.41 1578.67 1678.42 1575.44C1674.93 1569.85 1671.45 1564.26 1668.21 1558.67C1667.09 1556.69 1666.47 1554.33 1665.35 1551.47C1667.09 1549.61 1669.08 1547.37 1672.32 1543.77C1663.85 1546.25 1660.36 1543.77 1658.37 1536.69C1655.88 1527.75 1651.52 1519.18 1648.29 1510.36C1646.92 1506.51 1646.17 1503.03 1641.81 1500.55C1636.21 1497.44 1634.96 1478.07 1639.2 1473.47C1639.82 1472.72 1641.19 1471.86 1642.06 1471.98C1649.66 1473.1 1657.5 1473.35 1664.6 1475.95C1668.33 1477.32 1670.82 1482.29 1673.31 1486.14C1675.68 1489.86 1677.3 1494.09 1679.29 1498.06C1679.91 1499.43 1681.41 1501.17 1681.03 1502.16C1678.17 1509.36 1684.77 1511.6 1687.88 1515.7C1690 1518.56 1691.74 1521.66 1693.24 1524.89C1694.23 1526.75 1694.85 1528.86 1695.1 1530.98C1695.73 1534.95 1695.97 1538.93 1696.22 1542.9C1699.21 1542.28 1705.81 1546.38 1707.3 1551.59C1708.92 1557.56 1709.55 1563.77 1711.66 1569.6C1712.91 1573.08 1716.15 1575.94 1718.51 1579.17C1720 1581.28 1721.62 1583.39 1723.49 1586C1721 1586.87 1719.26 1587.61 1716.39 1588.61C1719.51 1590.22 1721.75 1591.59 1723.49 1592.46C1722.99 1595.31 1722 1597.8 1722.5 1599.78C1725.23 1609.6 1725.11 1609.85 1717.76 1608.35H1717.64Z" fill="#DD572C"></path>
    <path d="M697.284 600.568C694.171 600.319 691.058 600.319 688.07 599.822C679.354 598.456 670.639 596.966 661.923 595.351C656.071 594.233 650.219 592.867 644.367 591.749C643.744 591.749 642.873 592.743 642.126 592.991C637.394 594.482 633.535 594.482 629.426 590.383C626.936 587.899 621.831 586.284 618.095 586.781C609.753 587.899 602.158 586.533 594.065 584.297C587.093 582.31 580.369 576.472 571.902 580.943C570.782 581.564 567.296 577.342 564.556 575.106C563.062 575.603 560.697 576.72 558.331 576.969C556.837 577.093 555.218 575.975 553.849 575.23C553.599 575.23 554.098 572.746 554.72 572.498C556.339 572.001 558.206 572.001 559.949 572.001C560.697 572.001 561.444 572.373 562.938 572.87C562.813 569.641 561.942 566.784 562.689 564.549C563.311 562.81 566.05 560.698 567.669 560.698C570.533 560.698 573.77 561.94 576.011 563.679C580.618 567.157 581.614 564.424 582.237 561.568C585.723 561.319 588.836 560.947 591.824 560.822C599.419 560.574 606.89 560.45 614.485 560.45C615.979 560.45 617.846 561.568 618.967 561.071C624.321 558.711 628.305 559.829 631.792 564.424C632.539 565.418 635.153 565.915 636.398 565.294C648.227 560.326 659.059 563.928 669.642 568.771C672.257 569.889 673.876 570.883 677.238 570.386C682.467 569.641 688.07 571.007 693.299 572.249C699.027 573.74 704.381 577.217 710.731 574.857C711.602 574.485 713.843 575.354 714.217 576.224C716.334 581.316 720.816 579.701 724.676 580.943C732.769 583.552 741.983 586.036 747.834 591.501C751.196 594.606 754.932 599.822 757.422 604.79C759.414 608.765 752.566 614.603 746.714 613.609C742.481 612.864 738.372 611.001 734.263 609.634C733.018 609.262 731.897 608.268 730.528 608.144C722.061 606.654 713.47 605.411 705.128 603.548C702.513 603.052 700.272 600.816 697.906 599.45C697.657 599.822 697.408 600.195 697.159 600.568H697.284Z" fill="#DD572C"></path>
    <path d="M1203.54 693.72C1212.63 692.478 1221.6 696.08 1229.56 702.911C1236.79 708.997 1245.38 713.841 1251.23 720.921C1257.7 728.746 1268.78 727.876 1274.76 735.701C1278.5 740.669 1283.1 745.016 1287.21 749.736C1290.32 753.338 1293.31 756.94 1295.93 760.79C1298.67 764.765 1300.04 770.23 1295.18 772.465C1292.32 773.707 1286.34 771.472 1283.6 768.863C1278.75 764.268 1275.13 758.306 1271.03 752.965C1258.7 755.077 1268.04 761.163 1269.03 766.131C1267.29 766.379 1265.67 767.125 1265.05 766.628C1253.47 757.312 1237.91 755.077 1227.45 743.526C1223.21 738.806 1215.49 737.191 1209.64 733.962C1208.02 733.093 1206.78 731.354 1205.78 729.739C1203.54 726.013 1201.92 723.281 1196.2 724.647C1189.35 726.261 1186.23 719.306 1181.75 715.58C1179.39 713.593 1176.65 711.978 1174.03 710.239C1172.04 708.997 1169.92 707.879 1167.93 706.513C1167.18 706.016 1166.81 704.65 1166.06 704.65C1155.61 703.408 1152.62 694.093 1147.51 687.386C1145.27 684.405 1144.77 680.182 1143.53 676.456C1147.26 675.462 1151.25 672.978 1154.61 673.599C1160.46 674.717 1165.94 677.822 1171.67 680.182C1172.66 680.555 1173.41 681.548 1174.41 681.797C1181.25 683.287 1188.35 684.156 1194.95 686.144C1197.81 687.013 1199.93 690.367 1203.54 693.72Z" fill="#DD572C"></path>
    <path d="M724.8 758.429C721.065 755.573 717.952 753.213 716.084 751.722C719.82 747.375 723.679 742.655 727.664 737.936L726.543 736.445C730.154 736.942 733.889 737.439 738.87 738.184C736.006 736.197 734.014 734.707 732.022 733.34C737.5 726.757 742.605 726.633 749.951 730.732C752.815 732.347 757.297 731.477 761.032 731.229C765.888 730.856 770.744 729.614 775.724 729.614C780.207 729.614 784.814 730.856 789.296 731.477C796.518 732.595 803.615 733.961 810.836 734.955C816.937 735.824 823.038 736.197 829.139 737.066C842.462 738.929 855.784 741.662 869.231 742.904C876.577 743.649 878.445 749.859 882.927 753.461C883.301 753.71 882.056 757.063 880.811 758.057C871.472 765.633 860.516 768.987 848.687 770.974C836.983 772.837 825.404 772.713 813.824 771.222C810.463 770.725 807.35 767.993 805.607 767.124C797.14 767.372 789.919 767.869 782.697 767.62C774.604 767.248 766.386 766.627 758.418 765.012C750.076 763.273 741.982 760.044 733.64 758.057C730.652 757.312 727.29 758.429 724.8 758.554V758.429ZM787.179 735.576C787.179 735.576 785.934 736.321 785.312 736.694C785.81 738.308 785.934 741.165 786.806 741.413C790.666 742.655 794.774 743.028 799.506 743.898C798.634 735.203 788.3 742.656 787.055 735.576H787.179Z" fill="#DD572C"></path>
    <path d="M1544.95 1298.97C1550.55 1297.48 1557.02 1304.31 1554.28 1309.15C1552.54 1312.26 1549.93 1314.99 1548.06 1317.47C1543.58 1316.73 1538.84 1316.48 1534.49 1314.99C1532.74 1314.37 1531.37 1311.51 1530.63 1309.4C1528.39 1302.44 1526.77 1295.24 1524.65 1288.28C1521.79 1279.09 1518.55 1270.03 1515.44 1260.83C1515.06 1259.59 1514.07 1257.85 1514.44 1256.98C1518.3 1250.53 1512.2 1246.68 1510.95 1241.58C1508.96 1234.01 1507.72 1226.18 1507.34 1218.48C1507.22 1215.5 1509.96 1211.9 1512.32 1209.54C1515.44 1206.31 1513.94 1204.82 1511.08 1203.7C1503.61 1200.6 1500.37 1194.39 1502.11 1186.19C1502.36 1184.95 1501.24 1183.58 1500.87 1182.21C1499.25 1175.38 1495.64 1168.43 1502.61 1162.59C1496.89 1155.26 1503.24 1147.19 1516.93 1144.46C1516.68 1146.2 1516.43 1147.81 1516.18 1148.8C1518.55 1150.29 1522.78 1151.66 1522.78 1153.03C1522.78 1155.51 1520.29 1157.87 1518.67 1160.6C1527.64 1162.96 1529.51 1170.04 1530.63 1178.74C1531.75 1187.18 1535.36 1195.38 1537.72 1203.7C1538.35 1205.81 1541.33 1209.04 1535.98 1209.54C1536.11 1210.91 1535.73 1212.77 1536.48 1213.39C1539.22 1215.62 1542.33 1217.36 1544.32 1218.73C1544.07 1227.67 1541.58 1235.99 1546.69 1243.2C1550.67 1248.91 1550.67 1254.75 1549.68 1260.96C1548.68 1267.42 1547.93 1273.63 1551.67 1279.71C1553.29 1282.2 1553.29 1285.68 1553.79 1288.78C1554.28 1291.89 1553.54 1293.75 1549.8 1294.12C1547.69 1294.37 1545.82 1296.23 1543.95 1297.35C1544.2 1297.85 1544.57 1298.34 1544.82 1298.84L1544.95 1298.97ZM1515.31 1177.25C1520.29 1174.89 1523.16 1173.52 1526.02 1172.28L1526.52 1170.17C1523.78 1169.3 1521.16 1168.43 1518.43 1167.43C1517.55 1170.17 1516.68 1172.9 1515.31 1177.25Z" fill="#DD572C"></path>
    <path d="M1859.95 357.626C1861.7 353.279 1859.58 345.951 1869.04 348.435C1865.18 343.716 1868.3 341.604 1871.28 338.375C1878.26 330.923 1884.48 322.725 1890.96 314.776C1891.21 314.403 1891.58 314.031 1891.95 313.907C1900.17 311.423 1902.54 302.728 1908.89 298.381C1911.5 296.642 1914.24 295.152 1917.35 294.158C1924.95 283.725 1934.78 275.404 1947.11 271.305C1951.22 269.939 1956.82 272.919 1961.55 274.286C1962.43 274.534 1963.79 277.018 1963.42 277.515C1960.06 282.607 1963.42 289.687 1957.32 294.158C1952.59 297.636 1949.23 302.853 1944.99 306.951C1943.25 308.69 1940.51 309.435 1939.52 310.056C1937.15 313.41 1935.41 316.018 1933.41 318.378C1927.19 325.458 1921.09 332.661 1914.49 339.368C1909.01 344.833 1902.79 349.677 1896.93 354.894C1896.31 355.515 1895.44 355.888 1894.94 356.509C1890.33 362.346 1886.35 368.681 1881.24 374.145C1876.51 379.238 1870.54 383.337 1865.31 388.056C1862.44 390.665 1859.7 393.645 1857.21 396.626C1852.98 402.091 1847.13 401.098 1841.9 399.856C1839.04 399.235 1835.05 396.13 1834.55 393.645C1833.81 388.801 1834.43 383.585 1840.03 380.356C1842.27 378.989 1844.14 375.884 1845.01 373.152C1847.38 365.203 1850.74 358.62 1859.7 357.502L1859.95 357.626Z" fill="#DD572C"></path>
    <path d="M2244.69 933.558C2230 936.912 2215.31 932.192 2198.62 934.552C2195.01 937.657 2175.84 932.937 2173.1 926.106C2159.65 934.552 2146.58 931.074 2133.5 924.988C2131.51 923.995 2129.89 922.132 2127.9 921.386C2123.17 919.399 2118.81 916.17 2120.93 911.202C2122.3 907.848 2126.9 904.743 2130.64 903.501C2135.25 902.011 2140.6 902.507 2145.21 902.259C2145.95 904.867 2146.45 906.606 2146.95 908.469C2148.07 907.351 2149.32 906.358 2150.31 904.992C2154.3 899.278 2162.26 899.154 2166.62 904.743C2167.74 906.233 2169.11 907.6 2170.61 909.214C2173.97 900.396 2177.45 897.912 2184.8 899.775C2190.28 901.141 2197.62 894.434 2200.86 904.619C2205.84 898.409 2210.82 897.415 2217.67 900.52C2222.28 902.632 2227.88 903.625 2233.48 900.769C2236.22 899.402 2240.46 899.775 2243.82 900.52C2252.04 902.507 2261.12 900.52 2268.72 906.855C2271.83 909.463 2277.93 908.345 2282.42 909.587C2286.15 910.705 2289.76 912.692 2294.24 914.804C2291.38 918.033 2289.89 919.772 2288.02 921.883C2288.64 922.753 2289.51 923.995 2290.38 925.361C2285.28 926.976 2280.55 928.466 2275.69 930.081C2275.69 930.702 2275.94 931.323 2275.94 931.944C2278.06 932.192 2280.3 932.565 2282.42 932.813C2282.42 933.31 2282.66 933.807 2282.79 934.304C2280.8 934.676 2278.31 936.167 2277.06 935.421C2269.59 931.074 2262.37 934.055 2254.9 935.173C2251.66 935.67 2248.18 934.179 2244.81 933.558H2244.69Z" fill="#DD572C"></path>
    <path d="M616.85 252.423C614.609 248.946 610.5 245.344 610.749 242.114C611.123 237.022 615.979 234.29 621.582 234.662C622.204 234.662 622.951 234.911 623.574 234.662C627.309 233.172 632.289 229.197 634.282 230.315C641.13 234.538 646.982 240.5 653.083 245.841C654.203 246.834 654.701 248.822 655.946 249.318C668.646 254.286 676.117 265.589 686.327 273.662C692.677 278.755 700.77 281.86 707.493 286.455C714.217 291.051 722.808 293.659 725.423 302.85C725.672 303.471 726.668 303.968 727.415 304.465C735.881 309.557 743.975 315.27 749.827 323.344C751.321 325.455 752.441 328.809 751.943 331.044C751.445 332.907 748.332 334.522 746.091 335.391C735.757 339.366 727.166 335.019 718.575 329.802C712.972 326.449 706.248 324.834 700.77 321.232C691.805 315.395 683.587 308.191 674.747 302.105C669.393 298.379 663.417 295.646 657.814 292.417C656.693 291.796 654.95 291.051 654.701 290.057C652.336 281.735 643.495 280.493 638.39 275.277C631.791 268.57 624.819 262.235 618.22 255.528C617.597 254.907 618.469 252.92 618.718 251.554L616.726 252.175L616.85 252.423Z" fill="#DD572C"></path>
    <path d="M1153.74 1506.76C1154.11 1507.5 1154.73 1508.12 1154.98 1508.87C1155.73 1510.73 1157.47 1513.84 1156.85 1514.46C1155.11 1516.07 1152.49 1517.32 1150.12 1517.69C1146.89 1518.18 1143.4 1517.81 1139.17 1517.81C1137.42 1512.97 1138.3 1507.63 1140.04 1501.91C1142.16 1494.96 1143.03 1487.75 1144.77 1480.68C1147.01 1472.11 1147.88 1471.86 1155.48 1475.83C1155.73 1475.58 1156.35 1475.09 1156.23 1474.96C1149.63 1463.54 1158.72 1454.84 1161.95 1445.4C1164.94 1436.83 1171.54 1430.99 1180.51 1428.26C1181.38 1428.01 1182.62 1425.65 1182.25 1425.28C1176.4 1418.08 1183.12 1412.24 1184.61 1406.03C1186.86 1397.33 1190.09 1388.89 1193.08 1380.32C1193.58 1378.7 1194.57 1377.21 1195.57 1375.85C1197.31 1373.61 1199.31 1371.5 1201.8 1368.52C1204.04 1369.14 1207.15 1369.14 1204.78 1363.55C1202.05 1357.22 1204.16 1352.37 1209.76 1348.65C1211.13 1347.65 1212.38 1346.16 1213.25 1344.67C1218.61 1335.11 1220.97 1334.86 1229.44 1343.31C1228.44 1344.8 1227.32 1346.41 1225.95 1348.52C1231.68 1353.49 1229.19 1359.83 1227.82 1365.66C1226.57 1371.25 1226.7 1378.95 1215.49 1376.84C1225.58 1385.91 1217.11 1393.48 1215.99 1401.31C1215.37 1405.53 1214.37 1410.5 1211.76 1413.61C1201.3 1426.4 1197.81 1442.3 1190.22 1456.46C1189.84 1457.08 1189.72 1457.7 1189.22 1458.19C1178.89 1470.61 1172.41 1485.15 1166.44 1500.05C1164.19 1505.64 1161.58 1511.85 1153.24 1506.88L1153.74 1506.76Z" fill="#DD572C"></path>
    <path d="M2169.86 271.926C2168.61 281.241 2160.89 283.725 2154.79 288.445C2147.07 294.407 2136.74 295.897 2130.14 301.611C2118.81 311.299 2103.74 311.547 2092.29 320.117C2087.43 323.843 2081.58 327.569 2075.73 328.314C2066.89 329.432 2070.75 318.254 2066.27 315.521C2064.65 320.241 2063.78 325.458 2061.16 329.556C2056.8 336.76 2053.81 336.388 2049.21 328.811C2047.34 330.053 2045.1 330.923 2043.85 332.537C2040.99 336.388 2038.13 334.525 2035.76 332.537C2031.65 329.184 2031.4 319.993 2035.89 316.888C2044.6 310.802 2053.57 305.088 2062.9 299.996C2074.48 293.662 2086.44 288.197 2098.26 282.359C2099.51 281.738 2100.51 280.993 2101.75 280.496C2111.84 276.522 2122.17 273.168 2131.88 268.448C2139.35 264.846 2146.08 259.381 2153.17 254.91C2160.64 250.19 2168.24 245.719 2175.83 241.248C2178.57 239.633 2187.66 244.477 2189.78 248.451C2195.01 258.388 2194.01 261.865 2183.93 268.572C2178.7 272.05 2173.97 273.085 2169.73 271.678L2169.86 271.926Z" fill="#DD572C"></path>
    <path d="M1593.63 1021.87C1603.71 1023.48 1613.3 1043.35 1608.69 1051.8C1615.67 1054.53 1620.77 1066.08 1619.15 1075.4C1625.63 1080.12 1629.74 1086.2 1631.73 1094.15C1632.72 1098.25 1635.84 1101.85 1637.33 1105.95C1641.19 1116.76 1645.3 1127.56 1648.29 1138.62C1651.15 1148.93 1653.14 1159.61 1654.64 1170.17C1655.14 1174.27 1653.14 1178.61 1652.27 1182.59C1647.04 1179.85 1642.93 1177.37 1638.58 1175.51C1630.61 1172.03 1631.35 1163.46 1627.99 1157.5C1625 1152.41 1622.76 1146.94 1620.27 1141.48C1618.65 1138 1616.66 1134.52 1615.79 1130.79C1615.04 1127.19 1615.29 1123.71 1611.56 1120.98C1609.81 1119.62 1610.19 1115.64 1608.94 1113.28C1606.83 1109.18 1602.84 1105.7 1602.09 1101.48C1600.72 1092.91 1595.37 1086.33 1592.88 1078.26C1591.14 1072.54 1587.4 1067.33 1585.16 1061.74C1581.05 1051.8 1577.32 1041.74 1573.58 1031.56C1572.71 1029.07 1572.46 1026.34 1571.96 1023.73C1570.47 1015.78 1576.07 1010.69 1583.92 1012.92C1588.52 1014.29 1595.12 1012.92 1593.75 1021.62L1593.63 1021.87Z" fill="#DD572C"></path>
    <path d="M1710.42 768.366C1702.33 772.465 1696.6 775.446 1690.75 778.427C1689.5 775.073 1688.63 772.713 1687.01 768.615C1685.89 771.72 1685.02 772.838 1685.14 773.583C1687.26 781.408 1683.77 785.01 1676.43 786.252C1674.69 786.5 1672.57 787.121 1671.7 788.363C1666.97 795.443 1658.87 797.803 1652.27 802.398C1648.04 805.255 1642.44 806.124 1637.33 807.739C1636.09 808.112 1634.22 807.366 1633.47 807.987C1627.62 812.459 1625.01 810.223 1624.76 805.131C1621.02 804.385 1617.29 804.758 1615.79 803.019C1614.42 801.405 1614.92 797.554 1615.67 794.946C1616.29 792.462 1617.91 789.854 1619.9 788.239C1626.75 782.898 1632.6 776.564 1642.06 774.825C1647.29 773.831 1651.53 768.366 1656.51 765.634C1666.97 759.921 1677.67 754.704 1688.13 749.115C1691.74 747.128 1695.11 744.395 1699.09 741.663C1699.34 743.65 1699.59 745.513 1699.96 747.376C1700.58 747.376 1701.33 747.749 1701.83 747.5C1702.7 747.003 1703.82 746.382 1704.32 745.513C1709.42 737.315 1715.52 731.726 1726.36 733.217C1728.1 733.465 1730.09 729.863 1732.33 728.745C1736.69 726.51 1741.3 724.895 1745.78 723.032C1746.65 722.659 1747.9 722.411 1748.4 721.666C1750.51 718.188 1754.99 717.691 1757.73 720.424C1759.23 721.914 1761.97 724.274 1762.96 723.777C1765.58 722.535 1767.57 719.927 1770.43 717.194C1772.18 718.561 1779.15 711.605 1779.65 721.666C1781.14 720.424 1782.01 719.182 1783.26 718.809C1784.38 718.436 1786.74 718.561 1786.87 719.058C1788.24 723.156 1789.73 727.255 1789.86 731.478C1789.86 732.968 1786.37 735.08 1784.13 736.073C1774.92 739.924 1765.7 743.65 1756.36 746.879C1754.37 747.624 1751.51 746.01 1749.14 745.885C1747.4 745.885 1744.41 745.886 1744.16 746.631C1741.42 756.567 1732.08 759.051 1724.61 762.653C1720.88 764.392 1715.03 761.784 1710.17 761.163C1707.93 760.79 1705.69 760.417 1703.45 760.045C1704.44 762.404 1705.32 764.764 1706.56 767C1706.93 767.621 1708.18 767.621 1710.54 768.49L1710.42 768.366Z" fill="#DD572C"></path>
    <path d="M1043.67 531.137C1041.18 528.901 1038.69 526.79 1036.2 524.554C1034.83 523.312 1033.83 521.325 1032.46 520.952C1022.88 518.716 1017.52 511.14 1014.29 503.439C1011.8 497.478 1007.56 494.372 1003.21 492.261C995.112 488.162 993.493 479.841 988.762 473.755C986.396 470.65 984.778 466.923 981.416 463.943C982.163 461.583 983.035 459.347 983.408 456.987C983.782 454.751 983.408 452.392 983.906 450.156C984.28 448.169 984.902 445.933 986.147 444.443C987.019 443.449 989.883 442.58 990.63 443.201C992.124 444.567 992.995 446.678 993.991 448.666C994.738 450.156 995.361 451.771 995.984 453.385C998.1 451.398 999.594 450.032 1001.09 448.666C1002.96 451.025 1004.82 453.509 1006.82 455.869C1007.81 457.111 1008.81 458.353 1009.93 459.347C1012.67 461.831 1015.41 464.564 1018.52 466.302C1032.09 474.251 1041.93 486.051 1051.27 498.223C1052.01 499.216 1053.13 500.458 1054.25 500.707C1065.46 503.688 1068.7 514.742 1075.79 521.821C1084.26 530.267 1091.73 539.583 1099.95 548.277C1102.31 550.885 1108.17 563.802 1107.42 567.28C1106.42 572.248 1102.81 573.366 1098.33 570.385C1097.33 569.64 1095.84 568.895 1094.84 569.143C1084.76 571.876 1079.9 563.926 1073.68 558.958C1070.81 556.723 1068.45 553.742 1065.34 552.003C1061.23 549.767 1056.99 548.153 1056 542.812C1055.87 541.942 1053.88 541.321 1052.88 540.452C1049.65 537.72 1046.53 534.863 1043.3 532.006C1043.42 531.758 1043.67 531.509 1043.8 531.261L1043.67 531.137Z" fill="#DD572C"></path>
    <path d="M2278.06 602.678C2274.32 604.914 2272.33 606.653 2270.09 607.274C2265.36 608.392 2260.5 609.137 2255.65 609.634C2248.92 610.503 2244.19 606.653 2240.08 601.933C2239.83 601.56 2239.34 601.064 2239.46 600.815C2240.71 596.592 2241.08 591.748 2243.69 588.643C2245.56 586.283 2250.42 585.29 2253.9 585.538C2260.5 586.035 2265.98 585.787 2268.84 578.707C2269.09 577.962 2270.09 577.092 2270.71 577.092C2278.43 577.465 2284.41 572.745 2291.38 570.882C2295.49 569.764 2300.1 570.261 2304.45 569.64C2310.31 568.771 2316.16 567.653 2322.01 566.535C2326.12 565.79 2330.23 564.92 2334.34 564.175C2336.33 563.803 2338.94 564.299 2340.19 563.182C2347.41 556.599 2355.38 559.828 2363.1 561.07C2364.09 561.194 2365.46 561.194 2366.34 560.697C2375.8 555.605 2376.05 555.729 2380.9 565.293C2381.9 561.443 2382.65 558.71 2383.52 555.108C2387.75 559.455 2391.98 563.057 2395.1 567.28C2396.34 569.019 2396.22 572.745 2395.22 574.857C2394.47 576.471 2391.24 577.341 2389.12 577.589C2387 577.838 2384.76 576.595 2382.52 576.72C2381.03 576.72 2378.91 577.589 2378.29 578.707C2374.06 587.525 2370.57 589.761 2361.23 589.264C2358.62 595.102 2352.02 598.58 2345.54 598.083C2342.68 597.834 2339.57 598.952 2336.7 599.201C2329.36 599.822 2321.89 600.443 2314.54 600.939C2313.54 600.939 2312.42 600.691 2311.43 600.939C2305.2 602.927 2298.98 605.287 2292.75 607.15C2288.14 608.516 2283.54 609.509 2280.55 603.796C2280.05 602.678 2277.93 602.43 2277.93 602.306L2278.06 602.678Z" fill="#DD572C"></path>
    <path d="M1554.03 285.836C1554.53 283.6 1554.91 281.241 1555.65 277.39C1558.64 280.62 1560.51 282.607 1562.75 285.091C1561.88 279.253 1565.12 276.397 1570.35 276.521C1572.71 276.521 1576.45 278.508 1576.94 280.247C1580.06 290.804 1583.05 300.989 1575.2 311.67C1571.59 316.763 1572.46 324.96 1571.09 331.667C1570.59 334.275 1569.97 337.256 1568.48 339.368C1565.74 343.094 1562.38 346.199 1559.26 349.677C1558.77 350.298 1558.02 351.291 1558.27 351.912C1561.51 366.817 1553.66 379.361 1549.93 392.775C1549.3 395.135 1546.07 396.998 1543.58 398.365C1540.59 399.979 1538.72 400.724 1540.34 405.196C1542.08 410.04 1540.34 415.132 1535.23 418.486C1531.87 420.721 1529.13 423.95 1525.9 426.559C1524.9 427.304 1523.53 427.925 1522.28 427.925C1519.17 427.677 1513.32 417.989 1512.57 414.884C1509.46 401.842 1517.3 391.037 1519.67 379.237C1522.16 366.941 1527.89 355.39 1532.12 343.467C1532.74 341.603 1533.12 339.74 1533.62 337.877C1536.48 328.686 1539.59 319.619 1542.21 310.428C1543.2 306.951 1543.7 303.349 1543.82 299.747C1543.95 295.648 1549.43 287.451 1553.91 285.588L1554.03 285.836Z" fill="#DD572C"></path>
    <path d="M1995.92 693.1C1995.8 693.721 1995.17 695.833 1994.43 698.689C1992.68 697.075 1991.56 696.081 1990.44 694.963C1990.19 695.336 1989.82 695.708 1989.94 696.081C1990.19 701.173 1988.95 704.899 1983.72 707.135C1978.24 709.495 1973.51 713.469 1968.15 715.829C1962.8 718.313 1954.46 716.202 1952.22 712.6C1949.35 708.129 1950.47 700.18 1955.7 696.329C1963.17 690.74 1971.27 686.145 1979.11 681.176C1984.84 677.45 1990.57 673.724 1996.42 669.998C2004.01 665.154 2011.48 659.938 2019.45 655.839C2022.44 654.348 2026.67 655.218 2030.78 655.094C2030.29 654.224 2029.54 652.858 2028.92 651.492C2035.02 645.654 2041.99 642.425 2050.46 642.177C2052.32 642.177 2053.94 639.071 2055.69 637.705C2059.3 634.848 2062.41 629.508 2066.77 633.979C2075.61 629.135 2083.58 624.415 2091.92 620.441C2100.76 616.218 2109.85 612.616 2118.94 609.263C2123.54 607.524 2125.78 608.145 2126.66 614.852C2127.4 621.186 2125.16 626.154 2124.54 631.743C2124.54 632.861 2122.8 634.352 2121.55 634.849C2111.71 638.575 2101.75 642.052 2091.92 645.654C2091.67 645.654 2091.42 645.654 2091.29 645.903C2085.44 652.361 2076.48 650.374 2069.75 653.727C2061.29 658.075 2053.82 664.409 2045.72 669.501C2039.13 673.724 2032.28 677.575 2025.3 681.176C2018.33 684.903 2011.24 688.256 2004.01 691.485C2001.9 692.479 1999.41 692.603 1996.04 693.224L1995.92 693.1Z" fill="#DD572C"></path>
    <path d="M1941.63 1399.69C1941.13 1403.79 1940.76 1407.52 1940.14 1413.36C1936.78 1410.38 1934.54 1409.26 1933.54 1407.4C1930.43 1401.43 1924.82 1399.82 1918.97 1398.45C1917.6 1398.08 1915.24 1397.09 1915.24 1396.34C1914.99 1387.52 1906.52 1385.16 1902.04 1379.95C1893.95 1370.63 1884.36 1362.68 1876.76 1352.99C1873.65 1349.02 1871.04 1344.92 1866.55 1342.44C1866.18 1342.19 1865.43 1341.94 1865.56 1341.69C1865.81 1333.99 1858.09 1332.38 1854.72 1327.41C1849.5 1319.71 1848.37 1311.51 1850.12 1302.57C1850.99 1298.1 1853.73 1295.61 1858.09 1296.73C1862.32 1297.85 1869.67 1295.86 1867.55 1304.68C1882.99 1300.95 1914.49 1329.89 1910.75 1342.93C1914.99 1345.42 1919.47 1347.28 1922.96 1350.14C1929.31 1355.48 1919.1 1357.71 1920.22 1363.18C1931.17 1358.83 1936.28 1364.54 1940.89 1373.61C1943.5 1378.7 1949.35 1382.43 1954.46 1385.91C1958.82 1389.01 1958.57 1391.75 1955.83 1395.22C1950.6 1401.68 1946.99 1402.8 1941.63 1399.69Z" fill="#DD572C"></path>
    <path d="M1511.45 611.746C1512.32 613.361 1513.2 615.1 1514.32 616.714C1517.18 620.565 1518.42 623.794 1512.07 625.284C1510.83 625.533 1509.96 627.396 1508.84 628.389C1507.22 629.88 1505.48 631.37 1503.86 632.861C1502.24 629.88 1497.38 627.893 1500.99 623.297C1501.49 622.552 1501.99 621.807 1502.74 620.813C1493.65 613.609 1499.25 605.784 1502.11 598.208C1506.6 586.409 1511.45 574.733 1516.31 562.934C1517.8 559.456 1519.3 555.979 1521.04 552.625C1525.02 544.552 1529.01 536.355 1533.37 528.406C1535.11 525.176 1539.09 522.941 1539.96 519.711C1543.2 508.036 1553.04 501.453 1559.64 492.511C1563.37 487.418 1568.85 485.928 1574.95 490.275C1576.94 491.765 1579.81 491.89 1583.92 493.007C1578.44 498.969 1573.33 504.434 1568.23 509.899C1568.6 510.396 1568.98 510.893 1569.22 511.39C1570.47 510.769 1571.71 510.023 1573.08 509.651C1575.2 509.03 1577.44 508.657 1579.56 508.16C1579.19 510.272 1579.31 512.756 1578.31 514.37C1576.82 516.855 1574.45 518.718 1573.46 520.705C1572.34 525.3 1572.34 530.517 1569.97 534.243C1563.12 545.173 1556.4 555.854 1552.79 568.523C1550.8 575.23 1545.94 581.937 1540.71 586.781C1535.61 591.625 1538.1 598.332 1534.49 602.928C1532.25 605.66 1529.51 608.144 1526.64 610.256C1524.4 611.87 1521.54 613.237 1518.92 613.485C1516.68 613.733 1514.19 612.367 1511.45 611.498V611.746Z" fill="#DD572C"></path>
    <path d="M1280.99 1526.13C1280.11 1526.51 1278.87 1527.13 1277.87 1527.62C1278.5 1538.43 1281.48 1549.61 1272.27 1559.3C1277.13 1564.76 1274.26 1571.59 1272.27 1578.3C1270.03 1586 1267.66 1593.7 1264.8 1601.15C1261.31 1610.1 1258.2 1619.41 1253.22 1627.61C1246.37 1638.91 1238.53 1649.84 1229.81 1659.78C1224.58 1665.74 1216.74 1666.98 1208.77 1661.39C1208.27 1655.18 1207.9 1648.6 1212.63 1642.51C1215.12 1639.28 1215.99 1634.69 1218.11 1631.09C1221.84 1625 1226.08 1619.16 1230.06 1613.08C1231.18 1611.46 1232.3 1609.72 1232.8 1607.86C1233.92 1604.26 1234.42 1600.53 1235.42 1596.81C1236.91 1591.22 1240.52 1586.87 1243.14 1582.03C1246.5 1575.82 1245.87 1567.49 1246.87 1560.17C1248.12 1550.73 1249.24 1541.41 1250.36 1531.97C1250.61 1530.11 1250.73 1528.12 1250.48 1526.26C1249.98 1521.91 1260.19 1505.52 1264.3 1504.27C1269.16 1502.78 1275.51 1507.26 1277.25 1513.47C1278.37 1517.44 1279.62 1521.54 1280.99 1526.13Z" fill="#DD572C"></path>
    <path d="M1010.05 721.667C1003.2 726.262 995.608 724.399 989.631 718.81C983.78 713.345 977.18 708.625 970.208 704.651C963.235 700.676 962.613 700.304 966.597 694.342C962.862 692.727 959.251 690.988 955.516 689.25C954.769 688.877 953.897 688.38 953.026 688.504C950.785 688.753 947.547 690.243 946.427 689.25C942.94 686.269 940.326 682.294 937.462 678.816C936.59 677.699 935.843 676.332 934.723 675.587C930.987 673.476 927.377 666.148 929.493 663.167C932.357 659.316 936.341 658.82 940.824 660.807C942.442 661.552 944.185 661.925 945.929 662.421C954.022 664.781 955.516 667.762 952.279 675.587C951.905 676.581 951.781 677.574 952.777 679.686C953.773 678.816 955.142 678.071 955.64 677.078C959.127 668.632 959.874 668.508 966.846 673.848C969.212 675.711 972.574 676.208 975.437 677.45C980.916 679.81 986.643 681.797 991.748 684.902C993.118 685.648 992.62 689.622 992.993 692.355C1004.32 688.132 1012.04 696.453 1020.26 704.03C1023.25 706.762 1027.11 709.743 1030.97 710.364C1042.92 712.351 1050.77 720.549 1058.36 728.249C1063.22 733.218 1069.57 732.969 1074.17 736.82C1076.79 738.931 1079.15 741.415 1081.4 744.023C1085.13 748.122 1089.11 752.097 1092.1 756.692C1094.47 760.418 1095.71 765.014 1096.83 769.485C1097.08 770.479 1095.22 772.714 1093.97 773.087C1087.87 775.323 1083.64 773.087 1080.27 767.622C1078.28 764.393 1075.29 761.784 1072.68 758.804C1072.06 759.3 1071.43 759.797 1070.94 760.294C1071.68 761.163 1072.31 762.033 1073.05 762.778L1072.55 764.765C1070.31 763.896 1067.82 763.275 1065.83 762.033C1061.97 759.797 1057.74 757.562 1054.5 754.581C1051.26 751.6 1048.9 747.501 1045.29 742.781C1042.8 743.651 1038.56 749.364 1033.33 743.651C1030.1 740.173 1026.24 737.192 1023.37 733.218C1016.4 732.597 1010.67 730.361 1010.18 721.542L1010.05 721.667Z" fill="#DD572C"></path>
    <path d="M1189.1 471.272C1190.34 472.018 1191.84 472.887 1193.21 473.881C1194.45 474.75 1195.57 476.489 1196.82 476.489C1202.54 476.489 1203.66 480.836 1205.91 484.811C1207.52 487.791 1210.89 489.903 1213.38 492.635C1215.74 495.244 1218.73 497.603 1220.1 500.709C1222.09 505.18 1222.84 510.148 1224.46 514.744C1224.83 515.737 1227.2 515.986 1228.57 516.731C1231.06 517.973 1233.92 518.842 1235.79 520.705C1237.41 522.32 1237.53 525.177 1238.65 527.288C1241.27 532.629 1242.51 538.342 1247.49 542.938C1253.84 548.651 1258.08 556.6 1263.06 563.556C1263.55 564.301 1264.18 565.295 1263.93 566.04C1261.56 575.728 1268.04 582.31 1272.64 589.142C1279.86 599.699 1281.11 611.25 1280.61 623.298C1280.36 629.508 1276.13 634.6 1271.02 634.227C1266.92 633.855 1262.06 628.887 1259.69 624.788C1256.21 618.826 1254.96 611.622 1252.22 605.04C1250.73 601.314 1248.24 598.084 1246.62 594.482C1245.25 591.377 1244.5 587.9 1243.13 584.794C1241.89 582.062 1240.4 579.578 1238.65 577.218C1233.3 569.517 1225.83 562.562 1222.84 554.116C1220.1 546.664 1213.63 542.317 1211.26 535.237C1210.26 532.256 1209.14 529.4 1208.02 526.419C1207.15 524.059 1205.78 522.196 1204.04 520.209C1200.05 515.737 1190.84 513.377 1194.45 503.938C1194.82 502.944 1192.83 501.081 1191.96 499.591C1190.72 497.355 1189.72 495.119 1188.47 492.884C1187.98 491.89 1187.35 490.896 1186.48 490.275C1181.5 487.046 1181.13 476.116 1185.98 472.763C1186.73 472.266 1187.6 472.018 1188.97 471.521L1189.1 471.272Z" fill="#DD572C"></path>
    <path d="M1971.77 1150.04C1971.14 1149.8 1969.4 1149.17 1968.53 1148.93C1968.9 1140.23 1969.28 1132.16 1969.77 1123.34C1978.49 1123.22 1987.7 1122.97 1995.3 1130.67C1998.41 1133.77 2002.27 1136.01 2006.01 1138.49C2010.24 1141.35 2014.6 1143.71 2015.72 1149.67C2016.09 1152.03 2019.58 1153.65 2021.32 1155.88C2027.92 1164.58 2034.39 1173.27 2040.62 1182.09C2041.99 1184.08 2042.11 1186.93 2042.24 1187.8C2045.72 1190.16 2048.71 1191.65 2050.95 1193.76C2056.06 1198.61 2060.91 1203.82 2065.65 1209.04C2071.87 1215.75 2071.25 1217.86 2062.53 1221.09C2062.53 1219.22 2062.28 1217.49 2062.16 1216.12C2057.68 1217.24 2053.57 1218.11 2048.71 1219.35C2045.97 1228.04 2058.42 1222.58 2058.92 1229.16C2057.43 1229.29 2055.93 1229.53 2054.19 1229.66C2053.82 1232.39 2053.44 1235.25 2052.82 1239.47C2049.33 1237.11 2046.97 1235.74 2044.73 1234.01C2040.25 1230.53 2035.64 1227.3 2031.78 1223.32C2024.31 1215.75 2017.21 1207.92 2009.99 1200.1C2009.12 1199.1 2008.62 1197.86 2007.75 1196.87C2004.01 1192.48 2002.1 1186.81 2002.02 1179.85C1998.16 1185.19 1995.05 1182.58 1992.06 1179.73C1986.08 1173.89 1979.73 1168.18 1974.38 1161.72C1972.39 1159.36 1972.76 1155.14 1971.89 1150.42L1971.77 1150.04Z" fill="#DD572C"></path>
    <path d="M1410.35 336.262C1412.22 341.23 1413.34 344.459 1414.83 347.688C1417.45 353.526 1421.06 359.239 1422.68 365.325C1424.92 373.895 1428.16 382.465 1425.91 391.781C1425.29 394.265 1427.28 397.246 1427.78 399.978C1428.28 402.835 1427.66 406.188 1428.9 408.672C1437.49 425.067 1436.62 442.456 1435.5 460.093C1434.63 473.258 1435.13 486.548 1430.52 499.093C1429.4 502.322 1427.28 505.303 1425.17 507.911C1422.43 511.14 1419.44 510.395 1416.58 507.539C1415.08 506.048 1413.09 504.93 1410.48 502.943C1411.6 497.478 1412.84 491.019 1414.09 484.437C1406.12 479.717 1403.38 465.93 1411.6 455C1409.85 453.51 1408.11 451.895 1407.86 451.647C1408.48 445.809 1408.73 441.462 1409.36 437.115C1409.98 432.644 1411.1 428.297 1411.85 423.825C1412.59 419.727 1413.22 415.504 1413.46 411.405C1413.46 410.287 1411.97 409.045 1410.48 406.934C1409.6 409.542 1408.98 411.281 1408.36 412.895C1401.88 412.647 1401.64 408.424 1400.64 403.208C1398.52 391.284 1394.91 379.609 1392.3 367.685C1390.55 359.736 1389.31 351.539 1388.44 343.466C1388.44 342.224 1393.29 339.367 1393.42 339.491C1399.27 346.074 1404.25 342.224 1410.48 336.262H1410.35Z" fill="#DD572C"></path>
    <path d="M1012.54 1393.98C1006.19 1391 1002.71 1381.19 1005.57 1375.23C1011.67 1362.68 1016.65 1349.64 1023.87 1337.84C1030.6 1327.03 1031.59 1314.49 1037.07 1303.31C1043.67 1290.02 1049.15 1276.11 1055.62 1262.7C1056.99 1259.84 1059.86 1256.11 1062.59 1255.62C1067.2 1254.75 1073.18 1255.62 1074.92 1261.08C1075.79 1263.94 1074.17 1268.16 1072.43 1271.14C1070.44 1274.5 1067.08 1276.98 1063.84 1280.58C1067.7 1280.09 1070.56 1279.71 1073.92 1279.34C1073.92 1289.65 1073.92 1299.46 1073.92 1309.27C1073.92 1311.01 1072.8 1312.88 1072.18 1314.61C1071.06 1317.47 1070.19 1320.45 1068.57 1322.81C1067.08 1324.92 1064.71 1326.54 1061.85 1327.78C1060.85 1330.51 1056.99 1333.24 1061.22 1337.47C1062.47 1338.71 1059.48 1344.92 1057.74 1348.4C1055.62 1352.62 1052.51 1356.35 1049.89 1360.32C1044.42 1368.77 1038.94 1377.34 1033.33 1385.91C1032.46 1387.15 1031.22 1389.38 1030.47 1389.14C1023.62 1387.65 1018.64 1392.49 1012.67 1393.86H1012.79L1012.54 1393.98Z" fill="#DD572C"></path>
    <path d="M1200.93 90.5872C1204.29 91.4566 1208.15 91.8292 1211.38 93.4439C1215.87 95.8037 1219.85 98.9088 1223.84 102.014C1224.83 102.759 1224.96 104.746 1225.83 106.609C1227.57 105.367 1228.82 104.374 1229.94 103.629C1237.66 111.95 1245.5 119.775 1252.47 128.097C1256.83 133.313 1259.94 139.399 1263.8 144.988C1266.17 148.218 1268.53 152.813 1271.9 153.807C1279.86 156.415 1282.85 162.874 1286.71 168.96C1291.44 176.288 1297.17 182.87 1301.4 190.447C1304.89 196.657 1311.37 201.625 1310.49 210.071C1310.24 212.679 1311.99 215.66 1313.23 218.144C1317.84 227.087 1315.47 232.925 1305.39 236.154C1297.67 225.721 1289.83 215.163 1281.98 204.606C1281.73 204.233 1281.48 203.612 1281.23 203.612C1274.51 201.501 1272.77 195.291 1270.15 189.826C1269.78 189.081 1269.03 188.087 1268.41 187.963C1260.19 187.59 1259.69 179.517 1255.59 175.17C1252.47 171.816 1249.48 168.214 1246.62 164.737C1243.26 160.762 1240.15 156.539 1236.91 152.441C1235.29 150.453 1233.67 148.714 1232.05 146.727C1230.93 145.361 1228.82 143.622 1228.94 142.38C1229.19 140.89 1231.31 139.648 1232.68 138.281C1233.55 137.412 1234.42 136.791 1235.41 136.046C1234.54 135.176 1233.92 133.562 1232.92 133.313C1228.57 132.195 1223.96 131.823 1219.6 130.581C1217.86 130.084 1215.99 128.593 1214.75 127.103C1212.38 124.371 1210.51 121.265 1208.4 118.285C1205.03 113.441 1201.67 108.721 1198.44 103.753C1197.94 102.883 1198.44 101.269 1198.81 99.9024C1199.56 96.4247 1200.43 92.8229 1200.93 90.463V90.5872Z" fill="#DD572C"></path>
    <path d="M1624.51 37.1795C1635.59 46.8674 1638.58 58.0457 1633.47 71.4597C1633.47 74.3164 1633.47 77.5457 1633.47 80.775C1633.47 81.8928 1632.85 83.2591 1633.47 84.0043C1639.45 91.7049 1633.97 99.9024 1634.59 107.727C1634.84 111.205 1634.09 114.807 1633.35 118.16C1632.72 120.893 1631.48 123.501 1630.61 126.109C1628.12 133.065 1625.13 139.896 1623.39 146.976C1621.27 155.67 1618.41 163.743 1612.18 170.45C1610.19 172.561 1609.19 175.418 1607.7 178.026L1609.19 179.641C1605.83 180.635 1602.59 182.125 1599.11 182.374C1591.51 182.995 1587.03 178.399 1586.9 170.823C1586.78 164.116 1587.65 157.905 1590.89 151.571C1593.88 145.609 1594.5 138.405 1596.12 131.823C1596.87 128.842 1596.49 125.364 1597.99 122.88C1606.2 109.342 1604.34 94.5616 1604.46 79.9056C1604.46 73.1986 1602.97 65.9947 1604.46 59.6604C1606.45 51.8355 1611.06 44.7559 1614.8 37.4279C1615.17 36.6827 1617.41 36.5585 1618.9 36.5585C1621.02 36.5585 1623.01 36.8069 1624.63 36.9311L1624.51 37.1795Z" fill="#DD572C"></path>
    <path d="M801.125 1369.14C798.76 1368.15 796.643 1367.15 795.274 1366.41C792.659 1351.5 800.503 1340.95 808.721 1329.39C809.717 1332 810.339 1334.11 811.46 1335.73C811.958 1336.47 813.701 1336.72 814.822 1336.47C815.32 1336.47 816.067 1333.99 815.693 1333.74C805.857 1325.42 813.825 1318.34 818.93 1314.24C825.156 1309.52 828.02 1303.68 831.506 1297.47C834.245 1292.63 838.603 1288.78 843.832 1282.57C844.206 1276.61 847.817 1269.78 855.287 1264.44C858.524 1262.08 860.641 1257.36 861.637 1253.26C862.758 1248.66 864.376 1246.43 869.108 1245.31C874.088 1244.19 878.197 1241.71 879.94 1235.99C880.812 1233.26 883.924 1231.15 886.29 1228.42C883.924 1223.45 888.656 1216 895.006 1216.12C896.375 1216.12 897.994 1215.13 899.239 1214.26C900.982 1213.14 902.476 1211.77 905.091 1209.91C905.838 1216.99 906.336 1222.33 906.834 1227.55C906.336 1227.92 905.838 1228.17 905.216 1228.54C903.348 1225.93 901.356 1223.45 898.741 1219.97C895.753 1219.47 892.018 1220.22 892.765 1226.06C892.889 1227.42 895.006 1229.41 896.375 1229.53C904.967 1230.28 904.967 1230.16 900.982 1239.1C898.866 1238.23 896.749 1237.36 892.889 1235.74C902.103 1249.03 892.889 1255.99 886.041 1263.44C881.559 1268.29 879.193 1267.54 876.827 1261.21C876.329 1259.84 875.707 1258.35 874.088 1256.86C878.072 1267.54 871.598 1276.23 869.855 1286.3C868.361 1285.18 866.991 1284.31 865.248 1283.07C864.625 1284.81 863.505 1286.3 863.754 1287.66C865.248 1299.96 857.902 1307.66 849.933 1315.24C846.82 1318.22 844.081 1321.82 841.84 1325.54C836.113 1334.73 831.63 1345.04 824.782 1353.37C820.673 1358.33 819.677 1367.4 810.09 1367.52C808.098 1367.52 806.355 1372.12 803.989 1374.11C802.371 1375.47 799.88 1375.97 797.888 1376.96C798.635 1374.98 799.258 1372.99 800.005 1370.88C800.254 1370.26 800.627 1369.76 801.125 1368.77V1369.14Z" fill="#DD572C"></path>
    <path d="M546.254 882.635C550.363 875.928 550.114 874.686 542.519 871.333C543.515 870.836 544.013 870.339 544.635 870.339C556.215 869.221 567.794 868.103 579.374 867.11C582.611 866.861 585.973 866.986 589.21 866.861C594.066 866.737 599.046 865.992 603.902 866.489C613.863 867.482 623.326 868.724 633.411 864.998C640.881 862.266 649.597 862.638 657.815 862.763C673.005 862.763 688.071 861.272 703.261 859.782C709.113 859.161 715.338 860.154 721.19 861.396C723.805 861.893 728.163 864.75 728.038 866.365C728.038 869.221 725.672 873.32 723.182 874.562C719.696 876.425 715.089 877.046 711.229 876.673C706.623 876.301 703.012 876.922 698.654 879.157C693.3 881.766 686.701 882.635 680.725 882.759C673.254 882.884 666.032 882.511 659.558 886.982C658.562 887.728 656.819 888.473 655.823 888.1C645.488 883.753 636.275 892.075 625.94 890.584C616.727 889.342 607.139 890.957 597.677 891.329C590.58 891.578 583.607 891.95 576.51 891.95C574.144 891.95 571.405 891.454 569.413 890.46C566.549 888.969 564.557 887.727 561.32 890.212C558.207 892.571 556.713 890.957 551.359 883.38C551.608 885.864 551.857 888.349 552.231 892.447C549.118 890.708 547.001 889.466 544.76 888.224C541.149 890.957 533.554 889.591 530.939 884.622C529.943 882.635 530.815 877.791 532.434 876.673C539.033 872.45 541.896 879.282 546.379 882.635H546.254Z" fill="#DD572C"></path>
    <path d="M1732.58 563.058C1733.7 568.15 1732.58 571.628 1727.23 574.608C1718.76 579.204 1711.54 586.035 1703.07 590.631C1698.34 593.239 1693.24 596.965 1686.64 594.854C1680.79 592.991 1679.17 590.01 1682.4 584.545C1682.78 583.924 1683.03 583.179 1683.52 582.806C1693.24 575.478 1702.95 568.274 1712.66 561.07C1714.28 559.952 1716.52 559.331 1717.76 557.965C1727.35 547.284 1740.3 541.943 1752.38 535.236C1754.62 533.994 1757.36 532.379 1758.48 530.268C1764.08 520.58 1772.92 515.363 1782.76 510.768C1790.85 507.042 1798.07 501.453 1806.17 496.484C1807.16 498.099 1808.03 499.589 1808.91 501.08C1809.78 500.583 1810.52 500.335 1810.52 500.211C1810.52 494.125 1810.52 489.529 1818.62 487.045C1825.34 485.058 1830.57 478.351 1836.42 473.755C1841.28 470.029 1846.01 466.055 1851.24 462.825C1853.23 461.583 1856.84 461.086 1858.96 461.956C1867.43 465.185 1869.29 468.29 1867.18 473.258C1865.06 478.226 1859.08 480.586 1854.23 477.978C1852.98 484.809 1848.75 489.032 1842.9 492.634C1835.92 496.733 1829.82 502.198 1823.1 506.669C1818.24 510.023 1813.01 512.755 1807.91 515.86C1806.54 516.73 1805.42 518.22 1804.17 519.462C1803.18 520.332 1802.18 522.07 1801.19 522.07C1792.22 522.07 1789.11 529.771 1783.63 534.366C1778.4 538.714 1772.67 542.44 1767.2 546.414C1762.34 549.892 1757.61 553.37 1752.75 556.599C1748.89 559.083 1745.16 561.94 1740.92 563.554C1738.56 564.424 1735.45 563.182 1732.33 562.809L1732.58 563.058Z" fill="#DD572C"></path>
    <path d="M737.997 1043.97C734.76 1041.24 732.145 1039.13 728.286 1035.78C727.165 1039.63 725.422 1042.36 726.169 1044.22C728.535 1050.43 723.305 1050.06 720.441 1051.55C718.2 1052.67 714.838 1052.54 713.22 1054.16C708.488 1059 702.637 1060.62 696.287 1061.61C695.166 1061.73 693.921 1063.1 693.174 1064.09C688.816 1069.81 678.731 1071.92 673.501 1067.57C672.381 1066.7 673.377 1063.23 673.377 1060.49C672.132 1060.74 670.14 1060.99 668.023 1061.36C668.272 1052.42 669.019 1051.55 676.738 1048.94C678.98 1046.71 680.723 1043.73 683.462 1042.48C691.431 1038.88 698.901 1035.16 705.749 1029.32C710.107 1025.72 716.831 1021.87 722.434 1026.09C727.289 1023.23 731.274 1020.87 736.503 1017.89C736.254 1021.24 736.13 1022.86 735.881 1025.72C741.11 1022.24 745.468 1019.13 749.95 1016.4C754.184 1013.92 758.79 1011.8 763.273 1009.69C768.627 1007.21 774.23 1005.35 779.459 1002.61C784.066 1000.25 786.431 1001.5 788.05 1005.97C788.673 1007.58 789.669 1009.07 791.785 1010.19C788.673 1003.11 791.536 1000.63 797.264 998.515C804.485 995.783 811.209 991.932 817.932 988.33C821.917 986.095 824.905 985.971 826.773 990.815C829.263 989.076 831.006 987.337 833.123 986.219C838.477 983.487 846.445 988.455 845.076 994.044C844.204 997.894 840.344 1000.87 838.103 1004.48C835.239 1008.95 832.002 1009.69 826.897 1007.95C825.029 1007.33 822.041 1010.31 818.804 1011.93C817.31 1011.18 814.82 1009.94 812.08 1008.58C810.835 1012.92 810.96 1017.89 808.594 1019.88C806.104 1021.99 800.999 1020.5 797.388 1021.62C785.435 1025.22 773.607 1029.19 761.779 1033.17C760.16 1033.66 758.915 1035.28 757.794 1036.65C753.81 1041.24 750.946 1040.74 749.203 1035.53C745.468 1038.26 741.857 1040.99 738.122 1043.73L737.997 1043.97Z" fill="#DD572C"></path>
    <path d="M463.455 1069.44C469.68 1076.02 465.323 1081.98 462.085 1086.58C458.724 1091.3 454.241 1088.19 452 1086.33C452.996 1079.37 453.245 1073.16 454.739 1067.32C455.486 1064.59 457.976 1061.86 460.467 1060.37C464.451 1057.88 469.431 1057.02 473.291 1054.41C478.521 1050.81 482.754 1045.96 487.734 1042.11C490.598 1039.88 494.084 1038.14 497.322 1036.27C500.434 1034.53 503.671 1033.17 506.784 1031.55C509.274 1030.31 511.64 1028.95 514.504 1027.46C514.504 1026.46 514.753 1024.85 515.126 1021.99C517.866 1023.98 519.858 1025.47 522.721 1027.58C521.974 1024.85 521.476 1022.98 521.103 1021.12C521.601 1020.62 521.974 1020.13 522.597 1019.75C529.57 1016.15 536.542 1012.3 543.639 1008.95C549.491 1006.09 555.841 1003.98 561.693 1001.25C568.417 998.019 574.517 994.168 582.611 994.168C587.965 994.168 593.069 989.573 598.672 988.331C601.536 987.71 605.396 989.324 608.135 990.939C608.882 991.436 607.264 995.783 606.641 998.391C604.275 1008.82 595.684 1011.18 587.217 1013.92C584.603 1014.66 582.486 1016.77 580.12 1018.14C578.626 1019.01 577.008 1019.51 575.638 1020.25C570.533 1022.98 565.677 1026.21 560.323 1028.32C550.861 1032.17 546.254 1043.1 535.048 1044.35C531.686 1044.72 527.826 1047.33 525.585 1049.94C519.982 1056.52 516.621 1057.76 507.656 1053.91C505.788 1057.51 503.921 1061.24 502.053 1064.96C502.675 1065.34 503.173 1065.71 503.796 1066.08C501.43 1066.95 499.065 1067.82 496.201 1068.94V1062.23C492.341 1070.31 487.983 1075.27 480.139 1076.64C476.404 1077.38 474.536 1078.25 472.295 1073.91C471.05 1071.55 466.692 1070.93 463.704 1069.56L463.455 1069.44ZM529.694 1042.86C531.562 1039.75 532.931 1037.89 533.554 1035.9C533.803 1035.28 531.313 1033.17 531.188 1033.17C529.196 1034.66 527.204 1036.27 525.461 1038.14C525.461 1038.26 527.328 1040.25 529.569 1042.86H529.694Z" fill="#DD572C"></path>
    <path d="M1379.72 1080.99C1376.23 1079.12 1374.49 1078.25 1371.01 1076.27C1372 1081.86 1373 1085.83 1373.37 1089.93C1373.5 1091.92 1372.25 1094.03 1371.75 1096.14C1371.01 1099.49 1368.76 1104.21 1370.13 1106.07C1373.74 1110.92 1371.63 1114.4 1369.39 1118C1367.27 1121.48 1364.53 1124.46 1361.42 1128.43C1363.04 1134.02 1360.05 1140.23 1353.2 1143.09C1349.71 1144.58 1347.47 1143.09 1347.1 1139.49C1346.35 1133.28 1345.11 1126.94 1345.23 1120.73C1345.23 1108.68 1345.61 1096.51 1346.97 1084.59C1348.34 1072.17 1351.33 1059.87 1353.2 1047.45C1355.19 1034.16 1358.31 1020.75 1358.18 1007.46C1358.18 998.887 1362.17 993.422 1365.9 987.336C1367.27 985.101 1371.63 982.492 1373 983.238C1375.74 984.604 1377.73 987.957 1379.35 990.938C1381.09 994.292 1381.84 998.142 1383.33 1001.74C1384.58 1004.72 1385.95 1006.96 1383.95 1010.81C1382.09 1014.66 1382.96 1020 1383.08 1024.72C1383.08 1029.07 1383.83 1033.42 1384.33 1037.64C1385.57 1047.82 1385.95 1057.76 1381.21 1067.57C1379.6 1071.17 1380.34 1075.89 1379.97 1080.99H1379.72ZM1372.87 998.266C1372.87 998.266 1373.87 997.894 1374.49 997.769V989.82C1372.13 990.193 1370.38 990.441 1367.15 990.938C1369.64 994.043 1371.25 996.155 1372.87 998.266Z" fill="#DD572C"></path>
    <path d="M1737.19 372.157C1736.69 370.542 1736.07 369.051 1735.44 367.188C1734.45 367.561 1733.33 367.934 1733.45 368.058C1734.7 374.641 1729.72 381.969 1736.32 387.93C1737.56 389.172 1737.94 392.774 1737.06 394.513C1735.94 396.749 1733.33 398.239 1731.34 400.102C1730.46 399.73 1729.72 399.357 1728.85 398.985C1729.34 402.711 1729.97 406.561 1730.34 410.287C1730.46 411.778 1730.71 413.392 1730.34 414.758C1727.48 421.59 1724.74 428.545 1721.25 435.004C1719.63 437.984 1716.15 439.848 1713.78 442.456C1712.78 443.449 1712.04 444.816 1711.41 446.182C1709.17 451.895 1707.43 457.857 1704.69 463.322C1703.2 466.179 1700.08 468.29 1697.97 470.898C1694.23 475.494 1690.62 480.089 1687.01 484.685C1686.14 485.803 1684.89 486.548 1683.03 488.287C1682.78 486.175 1682.78 485.182 1682.53 484.312C1682.28 483.319 1681.78 482.325 1681.41 481.332C1680.54 482.077 1679.66 482.698 1678.79 483.443C1676.93 484.809 1674.93 486.051 1673.07 487.293C1671.94 484.933 1669.83 482.698 1669.83 480.338C1669.83 470.277 1669.95 460.093 1675.31 450.777C1678.42 445.437 1680.16 439.227 1682.9 433.637C1684.89 429.663 1690.37 426.93 1696.22 426.309C1698.34 424.074 1691.62 416.87 1702.57 418.981C1700.33 415.007 1698.59 412.523 1697.47 409.79C1696.85 408.3 1696.85 405.816 1697.72 404.698C1701.2 400.475 1705.31 396.749 1709.8 392.029C1709.42 386.067 1708.8 378.615 1714.78 372.529C1717.89 369.3 1719.76 365.574 1718.14 359.985C1717.02 355.886 1719.13 350.297 1721.13 345.95C1723.24 341.478 1731.96 342.72 1734.95 348.682C1738.43 355.762 1740.8 363.711 1737.19 371.908V372.157Z" fill="#DD572C"></path>
    <path d="M1882.87 1051.55C1884.61 1054.04 1886.6 1057.14 1889.22 1060.87C1889.71 1060.87 1891.21 1060.37 1892.58 1060.49C1893.7 1060.74 1895.32 1061.49 1895.57 1062.36C1895.94 1063.35 1895.32 1064.97 1894.57 1065.83C1891.71 1069.06 1889.09 1072.91 1885.48 1074.78C1882.49 1076.27 1877.01 1076.76 1874.65 1075.03C1870.04 1071.67 1866.8 1066.46 1863.07 1061.86C1862.57 1061.24 1862.57 1059.62 1862.07 1059.5C1854.98 1058.51 1853.61 1052.79 1851.74 1047.33C1849.99 1041.99 1846.38 1039.13 1840.28 1038.14C1837.05 1037.64 1834.56 1032.55 1831.82 1029.57C1828.83 1026.34 1825.72 1023.36 1822.98 1020C1818.99 1015.28 1815.26 1010.44 1811.4 1005.72C1807.91 1001.37 1804.92 996.778 1801.06 992.803C1793.22 984.73 1794.09 981.873 1801.44 973.924C1805.17 969.95 1809.65 971.192 1813.39 969.08C1815.01 968.211 1819.99 971.316 1822.1 973.676C1826.09 978.023 1828.33 983.86 1835.05 985.724C1837.79 986.469 1839.79 990.071 1842.15 992.306C1845.01 994.915 1848.25 997.15 1850.99 999.759C1853.36 1002.12 1855.35 1004.98 1857.47 1007.58C1858.21 1008.45 1858.59 1009.94 1859.33 1010.19C1868.17 1012.55 1868.92 1022.49 1875.27 1027.08C1875.39 1027.21 1875.77 1027.33 1875.77 1027.58C1877.26 1034.41 1877.88 1041.74 1884.73 1046.21C1885.11 1046.46 1883.61 1049.56 1882.87 1051.55Z" fill="#DD572C"></path>
    <path d="M1745.53 1112.04C1742.67 1111.54 1740.55 1111.29 1738.43 1110.92C1736.44 1113.03 1734.32 1115.27 1732.33 1117.38C1731.83 1117.01 1731.34 1116.63 1730.84 1116.26C1732.33 1112.16 1730.09 1106.45 1736.57 1104.59C1742.92 1102.85 1751.63 1106.95 1754.62 1112.66C1755.37 1114.03 1756.61 1116.26 1757.61 1116.26C1763.83 1116.26 1764.58 1119.37 1763.83 1124.46C1763.46 1126.82 1764.95 1129.55 1765.58 1132.41C1768.19 1131.91 1770.31 1131.29 1772.42 1131.29C1774.04 1131.29 1776.28 1131.41 1777.28 1132.53C1780.39 1136.01 1784.13 1139.49 1785.62 1143.71C1789.86 1156.01 1801.81 1160.97 1809.03 1170.29C1811.89 1173.89 1815.01 1177.37 1818 1180.72C1818.87 1181.72 1819.86 1182.46 1820.73 1183.33C1823.47 1186.06 1826.21 1188.8 1828.21 1192.15C1835.43 1193.27 1837.17 1199.23 1839.41 1205.19C1840.28 1207.55 1842.77 1209.29 1843.89 1211.65C1845.64 1215.38 1849.37 1220.97 1848 1222.95C1845.51 1226.55 1843.77 1234.38 1835.55 1230.4C1831.07 1228.29 1826.09 1228.04 1824.47 1221.46C1823.72 1218.61 1818.62 1216.87 1815.63 1214.38C1810.77 1210.28 1806.04 1206.06 1801.19 1201.96C1793.09 1195.26 1792.22 1192.15 1796.46 1182.46C1795.83 1182.46 1795.09 1182.09 1794.71 1182.21C1786.62 1186.93 1786.62 1186.69 1781.76 1177.87C1779.77 1174.39 1776.41 1171.16 1772.92 1169.05C1766.2 1165.07 1762.96 1158.86 1758.85 1152.65C1754.74 1146.44 1748.64 1141.6 1743.91 1135.89C1742.54 1134.27 1742.79 1131.41 1742.42 1129.18C1742.42 1128.56 1743.17 1127.69 1742.92 1127.32C1738.06 1121.23 1743.41 1116.88 1745.78 1111.67L1745.53 1112.04Z" fill="#DD572C"></path>
    <path d="M830.882 1142.72C830.508 1136.13 830.135 1130.54 829.761 1125.08C830.508 1124.95 831.131 1124.83 831.878 1124.71C832.998 1126.2 834.119 1127.69 836.111 1130.3C837.481 1127.31 839.224 1125.2 839.473 1122.97C840.344 1113.03 848.437 1108.68 854.787 1103.22C860.141 1098.62 866.367 1097.13 873.713 1096.76C878.195 1096.51 882.18 1090.55 886.662 1087.45C888.654 1086.08 891.269 1085.95 893.385 1084.71C898.241 1081.86 902.973 1078.88 907.58 1075.89C916.42 1070.18 925.384 1064.34 934.474 1058.38C935.47 1060.12 936.466 1061.86 937.462 1063.6C940.824 1059.62 943.936 1055.9 947.049 1052.3C952.154 1046.58 959.5 1045.59 966.473 1045.09C969.212 1044.84 972.076 1047.2 975.313 1045.34C975.935 1044.97 979.92 1048.07 980.169 1049.81C980.418 1052.92 980.044 1057.26 978.052 1059C970.083 1066.08 961.617 1072.79 952.777 1078.88C948.294 1081.98 942.442 1083.22 937.711 1085.95C935.096 1087.45 933.353 1090.43 930.489 1093.41C928.871 1090.67 927.377 1088.31 925.384 1085.09C921.276 1089.93 914.179 1092.04 915.797 1102.1C909.198 1099.62 903.471 1097.38 897.868 1095.27C893.884 1100.49 903.222 1108.06 893.385 1111.66C892.389 1110.17 891.269 1108.81 889.899 1106.82C890.522 1116.14 889.899 1116.38 881.308 1116.14C878.693 1116.14 876.079 1118.87 873.837 1121.73C871.596 1121.1 869.231 1120.48 868.235 1120.11C866.616 1123.46 865.869 1127.07 863.628 1128.93C856.904 1134.52 850.679 1141.47 840.22 1138.99C838.228 1138.49 835.488 1140.85 830.882 1142.72Z" fill="#DD572C"></path>
    <path d="M2167.99 736.57C2170.23 737.44 2172.6 738.309 2174.84 739.179C2174.84 739.8 2174.72 740.545 2174.59 741.166H2160.27C2154.67 746.507 2143.84 747.376 2134.5 742.532C2131.39 740.918 2127.9 740.172 2123.67 738.806C2124.41 735.453 2125.29 731.975 2126.28 728.125C2128.9 729.118 2130.89 729.863 2133.75 730.981C2131.14 722.66 2136.49 723.405 2141.47 722.287C2147.7 720.921 2153.55 718.064 2159.53 715.953C2161.52 715.207 2164.26 713.717 2165.63 714.462C2170.48 716.946 2174.47 714.462 2177.7 712.227C2184.18 707.755 2191.28 706.389 2198.75 705.52C2202.61 705.023 2206.22 702.911 2210.08 702.663C2218.42 701.918 2226.89 702.29 2235.1 701.297C2238.09 700.924 2240.71 698.192 2243.82 696.453C2245.56 700.179 2247.93 702.29 2252.66 699.185C2253.9 698.316 2257.02 700.427 2259.51 701.172C2264.61 697.819 2275.2 699.309 2278.18 705.395C2279.3 707.879 2278.18 713.344 2275.94 715.083C2268.22 721.542 2259.26 726.013 2248.55 725.641C2242.45 725.392 2235.97 724.026 2231.24 729.988C2230.37 731.105 2227.51 730.857 2225.64 731.106C2223.4 731.354 2220.66 730.609 2219.17 731.726C2213.19 736.198 2210.33 733.341 2208.33 727.255C2204.47 728.373 2200.24 730.36 2199.24 724.026C2192.27 726.758 2197.63 729.988 2199 734.832C2195.26 734.583 2192.4 734.335 2189.53 734.086C2185.42 733.714 2180.32 730.236 2179.82 737.813C2175.71 736.695 2171.98 735.577 2168.37 734.583C2168.12 735.328 2167.99 735.949 2167.74 736.695L2167.99 736.57Z" fill="#DD572C"></path>
    <path d="M1002.21 1181.72C1006.07 1180.6 1007.81 1180.1 1008.68 1179.85C1006.57 1177.12 1001.96 1173.4 1002.58 1171.78C1004.08 1168.05 1008.06 1165.2 1011.17 1162.22C1012.54 1160.98 1014.54 1160.23 1015.78 1158.99C1022.01 1153.03 1027.98 1146.94 1034.21 1140.98C1034.83 1140.36 1035.83 1140.11 1036.45 1139.49C1045.29 1130.3 1056.12 1123.71 1066.95 1117.13C1072.68 1113.65 1077.91 1109.18 1083.76 1105.7C1087 1103.84 1091.36 1103.72 1094.72 1101.85C1103.31 1097.26 1111.4 1091.92 1119.99 1087.32C1127.84 1083.1 1130.95 1084.22 1136.06 1091.17C1135.06 1092.91 1133.32 1094.53 1133.44 1096.02C1133.94 1103.97 1128.46 1105.58 1122.49 1106.82C1121.49 1107.07 1120.74 1108.31 1119.75 1109.06C1116.14 1111.79 1112.52 1114.52 1109.04 1117.26C1105.3 1120.24 1101.57 1123.22 1097.96 1126.32C1093.23 1130.3 1089.37 1135.14 1081.9 1134.52C1079.78 1134.4 1077.41 1138.74 1075.05 1140.85C1062.97 1150.91 1050.77 1160.85 1038.81 1171.04C1034.71 1174.64 1031.1 1178.86 1027.36 1182.83C1022.13 1188.3 1015.41 1188.42 1008.81 1187.55C1006.82 1187.31 1005.07 1184.33 1002.21 1181.72Z" fill="#DD572C"></path>
    <path d="M1477.46 1434.22C1475.34 1433.6 1469.87 1433.48 1470.86 1426.03C1472.85 1426.77 1474.35 1427.27 1475.84 1427.89C1476.22 1427.64 1476.71 1427.39 1477.09 1427.02C1475.47 1424.91 1474.1 1422.55 1472.23 1420.69C1470.36 1418.95 1467.75 1417.95 1466.01 1416.09C1464.89 1414.85 1465.01 1412.61 1464.51 1410.75C1466.5 1410.75 1468.62 1410.75 1470.61 1411.12C1471.86 1411.49 1472.98 1412.74 1474.97 1414.23C1472.23 1408.76 1469.99 1404.29 1467.62 1399.57C1461.15 1401.31 1458.04 1399.2 1456.54 1391.37C1456.54 1391.12 1456.54 1390.88 1456.42 1390.75C1446.83 1382.06 1453.8 1373.36 1456.29 1364.55C1464.89 1362.56 1473.35 1366.53 1479.33 1376.47C1483.19 1382.8 1486.05 1389.63 1488.79 1396.47C1489.79 1398.95 1489.29 1402.05 1489.54 1406.03C1493.27 1411.99 1497.51 1419.32 1497.88 1427.89C1498.13 1432.61 1496.76 1437.33 1503.61 1438.45C1504.6 1438.57 1505.35 1440.31 1506.22 1441.3C1501.24 1443.29 1500.37 1448.26 1503.36 1457.45C1504.36 1455.59 1505.1 1454.22 1505.97 1452.61C1510.71 1454.97 1512.95 1457.57 1511.58 1463.29C1510.95 1465.77 1512.32 1469.5 1514.07 1471.73C1516.93 1475.58 1520.67 1478.56 1524.15 1482.04C1524.65 1482.54 1525.27 1483.41 1525.15 1483.66C1520.17 1493.59 1532.25 1496.2 1533.49 1503.4C1534.11 1507.13 1536.6 1510.73 1536.1 1514.21C1535.73 1516.57 1532 1519.68 1529.38 1520.05C1524.03 1520.79 1518.42 1520.42 1513.2 1519.3C1510.08 1518.68 1506.6 1516.45 1509.21 1511.35C1510.83 1508.12 1510.58 1504.15 1511.58 1498.81C1507.97 1500.8 1506.35 1501.67 1504.73 1502.41C1503.11 1498.56 1501.62 1495.08 1499.87 1491.36C1501.86 1490.24 1504.48 1489.12 1506.6 1487.51C1508.09 1486.39 1508.84 1484.53 1509.96 1482.91C1507.97 1481.92 1506.1 1480.92 1504.11 1479.93L1503.11 1481.17C1501.24 1477.82 1499.75 1474.22 1497.51 1471.11C1496.64 1469.87 1494.15 1469.12 1492.4 1469.25C1487.8 1469.25 1486.43 1467.14 1485.68 1462.91C1484.81 1458.19 1482.57 1453.6 1481.2 1449C1479.95 1444.66 1478.96 1440.31 1477.46 1434.1V1434.22ZM1494.77 1453.97C1495.89 1447.39 1490.78 1445.53 1487.3 1442.79C1487.05 1442.54 1485.43 1443.91 1484.43 1444.53C1488.17 1447.89 1491.28 1450.62 1494.89 1453.97H1494.77Z" fill="#DD572C"></path>
    <path d="M2128.27 518.221C2128.27 518.221 2128.27 518.718 2128.27 518.842C2123.29 522.817 2120.31 521.699 2113.21 514.744C2108.97 510.645 2110.84 507.664 2113.58 504.435C2114.33 503.441 2115.82 502.323 2116.82 502.323C2124.54 502.82 2129.15 497.107 2135 493.877C2135.74 493.505 2136.62 492.635 2137.36 492.76C2143.34 493.753 2147.57 490.151 2152.06 487.419C2157.91 483.941 2163.63 480.215 2169.74 477.234C2187.04 468.788 2204.47 460.342 2221.91 452.393C2224.52 451.151 2228.01 451.772 2230.37 450.654C2245.94 442.333 2261.5 433.887 2277.06 425.565C2279.06 429.54 2281.79 432.893 2282.17 436.495C2283.04 443.948 2276.32 450.033 2269.34 453.884C2258.51 459.846 2245.69 460.218 2235.73 468.912C2229.5 474.377 2219.79 475.744 2211.7 479.345C2203.73 482.947 2196.13 487.667 2187.79 490.4C2178.95 493.256 2172.23 500.088 2162.89 501.826C2160.02 502.323 2157.41 504.683 2154.79 506.298C2150.69 508.782 2146.58 511.142 2142.47 513.75C2138.98 515.986 2136.37 515.116 2133.01 512.632C2130.89 511.142 2127.28 511.763 2124.29 511.514C2125.29 513.874 2126.28 516.11 2127.28 518.47C2127.65 518.345 2127.9 518.221 2128.27 518.097V518.221Z" fill="#DD572C"></path>
    <path d="M1291.57 378.865C1293.56 380.604 1295.92 381.97 1297.05 383.957C1301.15 391.409 1304.77 399.11 1308.75 406.686C1311.61 412.275 1307.75 416.995 1304.77 419.479C1302.15 421.591 1296.17 421.094 1292.31 419.852C1290.45 419.231 1289.57 414.263 1289.2 411.158C1288.58 405.817 1290.45 399.855 1283.22 397.371C1282.48 397.123 1281.98 394.639 1282.23 393.397C1282.73 390.416 1283.85 387.559 1285.09 383.336C1282.85 385.944 1281.61 387.559 1279.12 390.664C1276 384.951 1272.39 380.107 1270.77 374.766C1268.91 368.307 1264.3 363.588 1260.56 359.241C1255.71 353.651 1254.84 348.807 1257.82 341.604C1254.84 342.597 1253.09 343.218 1250.73 344.088C1244 335.269 1237.16 326.575 1230.56 317.757C1222.46 306.951 1214.37 296.145 1206.9 284.967C1204.53 281.613 1202.04 276.645 1202.79 273.167C1205.03 263.107 1214.62 261.492 1221.72 270.311C1233.79 285.339 1246.62 300.244 1256.08 317.011C1260.81 325.209 1268.16 331.543 1271.52 339.492C1276.5 351.167 1287.33 358.868 1290.57 371.04C1291.32 373.897 1291.44 377.002 1291.69 379.113L1291.57 378.865Z" fill="#DD572C"></path>
    <path d="M1986.21 945.232C1989.94 946.474 1992.68 947.965 1995.67 948.462C2002.77 949.58 2010.49 949.083 2017.09 951.318C2023.06 953.43 2028.04 958.522 2033.52 962.124C2036.01 963.739 2038.63 965.229 2041.24 966.844C2041.61 967.092 2042.24 966.968 2042.49 967.216C2051.82 977.525 2066.39 982.245 2072.87 995.783C2075.85 1002.12 2075.85 1003.24 2069.13 1005.97C2067.89 1006.46 2066.52 1006.96 2065.64 1007.83C2061.66 1012.05 2057.68 1015.16 2052.32 1009.82C2041.86 1012.8 2036.51 1005.1 2029.79 999.634C2026.3 996.901 2020.32 997.646 2016.09 995.535C2009.74 992.43 2002.27 989.449 1998.41 984.108C1993.55 977.401 1985.83 975.414 1980.98 969.328C1979.61 967.589 1976.87 966.595 1976.25 964.857C1974.75 959.888 1972.14 954.051 1973.76 949.952C1974.88 946.971 1982.1 946.474 1986.08 944.984L1986.21 945.232Z" fill="#DD572C"></path>
    <path d="M1811.02 877.789C1808.03 879.156 1805.92 880.149 1803.18 881.391C1802.93 879.777 1802.8 878.286 1802.55 876.671C1796.2 877.665 1789.11 871.952 1788.11 866.611C1779.77 861.767 1772.8 857.793 1765.7 853.694C1762.84 851.955 1760.1 850.216 1757.36 848.353C1754.24 846.242 1751.01 844.254 1747.89 842.143C1751.26 839.162 1754.62 833.697 1758.1 833.573C1765.58 833.325 1773.79 830.344 1780.77 835.809C1783.5 837.92 1785.99 840.528 1788.73 842.764C1790.48 844.379 1792.1 846.366 1794.21 847.36C1800.69 850.465 1807.54 853.073 1806.79 862.016C1820.11 862.637 1827.46 871.082 1834.3 880.398C1835.8 882.385 1838.54 883.379 1840.78 884.745C1841.65 885.366 1843.02 885.366 1843.77 886.111C1855.97 898.283 1873.77 902.506 1885.23 915.796C1889.71 921.012 1884.98 924.738 1884.61 929.085C1884.48 930.948 1882.37 933.308 1880.5 934.054C1878.51 934.923 1875.02 935.171 1873.53 934.054C1866.05 928.216 1859.21 921.633 1851.86 915.671C1849.49 913.808 1846.01 913.436 1843.64 911.573C1835.67 905.363 1828.08 898.904 1820.24 892.445C1819.36 891.7 1818.49 890.831 1817.5 890.582C1811.15 888.968 1810.65 884.248 1811.15 877.665L1811.02 877.789Z" fill="#DD572C"></path>
    <path d="M856.035 858.165C865 863.754 867.241 856.674 870.976 851.954C868.984 852.203 866.743 853.072 865.124 852.451C862.883 851.706 861.015 849.843 859.023 848.353C860.393 846.738 861.513 844.254 863.257 843.509C868.361 841.397 873.715 839.658 879.069 838.54C882.307 837.795 885.917 838.416 889.155 837.671C892.267 836.677 895.256 835.684 898.368 834.939C903.473 833.572 908.454 831.958 913.683 831.088C923.27 829.474 932.982 828.232 942.569 826.99C952.779 825.623 962.989 823.76 973.323 823.636C982.288 823.388 991.377 824.63 1000.22 826.369C1002.83 826.865 1004.7 831.212 1006.94 833.696C1004.82 835.187 1002.83 837.174 1000.34 838.168C994.614 840.528 988.638 842.391 982.786 844.378C981.541 844.751 979.673 845.372 978.926 844.751C973.323 840.279 968.965 841.894 964.607 846.738C963.611 847.856 961.246 847.607 959.627 848.104C954.149 849.719 948.795 851.582 943.316 853.072C939.955 854.066 936.344 855.681 932.982 855.308C922.523 854.066 912.562 855.308 902.602 858.04C894.135 860.4 885.419 862.139 876.828 864.126C875.583 864.375 874.338 865.12 873.217 865.741C864.128 870.585 861.887 869.84 856.16 858.289L856.035 858.165Z" fill="#DD572C"></path>
    <path d="M1408.86 697.323C1408.11 697.447 1406.49 697.82 1405.99 697.82C1407.49 705.272 1410.1 712.352 1409.98 719.307C1409.98 726.138 1408.11 733.466 1405 739.552C1403.88 741.912 1396.65 742.657 1392.92 741.664C1390.18 741.043 1386.94 736.447 1386.69 733.342C1385.7 724.648 1387.32 715.705 1385.7 707.259C1384.45 700.18 1389.06 691.982 1381.96 685.896C1381.21 685.275 1380.84 683.661 1381.21 682.791C1383.46 676.457 1379.6 671.489 1377.48 666.148C1377.48 665.9 1377.85 665.403 1378.23 664.533C1380.22 665.403 1382.33 666.272 1386.07 667.763C1384.95 664.161 1384.2 662.049 1383.46 659.938C1383.33 659.565 1382.58 659.441 1382.46 659.068C1379.35 649.256 1372.87 641.804 1366.27 634.228C1364.41 631.992 1365.65 627.272 1364.78 623.919C1363.78 620.193 1361.42 616.715 1360.55 612.989C1359.8 610.132 1360.17 606.903 1360.3 603.922C1360.3 602.183 1361.79 600.569 1361.67 598.83C1361.42 595.476 1359.92 591.502 1365.4 591.626C1369.76 591.626 1373.37 593.365 1373 598.83C1373 599.202 1373.25 599.699 1373.25 600.072C1384.95 600.072 1384.95 610.629 1389.43 617.212C1381.21 622.304 1381.21 622.677 1388.56 628.763C1396.03 634.973 1397.15 644.04 1391.8 654.1C1397.11 660.807 1401.55 664.078 1405.12 663.912C1398.89 676.084 1410.47 685.4 1408.98 697.323H1408.86Z" fill="#DD572C"></path>
    <path d="M467.189 744.645C469.804 737.068 477.15 736.696 483.126 734.336C490.597 731.479 497.943 728.498 505.538 726.014C515.499 722.785 525.46 719.183 535.669 717.071C546.377 714.712 557.459 714.215 568.291 712.228C576.757 710.613 581.987 716.575 588.337 719.68C590.952 720.922 588.461 726.884 584.602 728.871C579.995 731.107 575.512 733.342 570.906 735.578C570.158 735.951 569.038 736.572 568.415 736.323C560.198 733.466 553.35 737.813 546.004 740.049C542.268 741.167 537.786 740.298 532.308 740.298C529.195 746.259 522.72 748.495 514.129 749.737C506.659 750.855 499.935 756.693 492.714 759.922C485.865 762.903 478.768 766.008 471.547 767.25C468.31 767.871 464.201 764.269 461.96 763.275C463.827 756.692 465.57 750.606 467.189 744.645Z" fill="#DD572C"></path>
    <path d="M676.367 1306.29C678.484 1298.97 680.102 1291.89 682.717 1285.05C683.837 1282.07 684.086 1280.83 681.596 1278.47C679.106 1275.99 677.612 1272.51 681.098 1268.54C684.709 1264.44 686.826 1259.1 690.312 1254.87C692.429 1252.14 694.794 1249.9 699.028 1248.91C702.265 1248.17 704.132 1241.83 706.498 1237.73C706.996 1236.74 706.125 1235 706.623 1234.01C711.354 1226.55 716.085 1219.1 721.439 1212.15C725.424 1207.18 729.906 1202.21 735.135 1198.73C738.248 1196.62 743.976 1195.75 747.337 1197.12C751.571 1198.86 750.201 1203.83 748.209 1207.68C741.61 1220.22 735.26 1232.89 728.661 1245.43C720.194 1261.46 711.852 1277.6 703.136 1293.5C700.522 1298.22 697.284 1302.69 694.172 1307.16C691.682 1310.64 688.569 1310.89 684.833 1308.78C682.717 1307.66 680.227 1307.29 676.616 1306.17L676.367 1306.29Z" fill="#DD572C"></path>
    <path d="M1977.87 473.258C1980.11 473.382 1981.6 473.506 1983.22 473.63C1983.72 467.296 1986.08 463.073 1991.56 459.347C2000.77 453.013 2008.74 444.815 2017.58 437.736C2025.93 431.029 2034.64 424.818 2043.23 418.608C2050.58 413.392 2057.8 408.051 2065.64 403.704C2068.88 401.841 2073.74 400.723 2077.22 401.716C2082.2 403.083 2081.46 408.299 2080.83 412.646C2079.84 420.471 2076.1 426.681 2069.01 430.035C2063.03 432.892 2059.67 440.841 2051.33 438.978C2050.95 438.978 2050.21 439.723 2049.96 440.344C2046.59 447.92 2039.75 450.28 2032.65 452.764C2030.41 453.509 2027.79 455.869 2027.17 457.981C2024.93 465.433 2018.33 468.041 2012.85 472.016C2009.99 474.127 2007.62 477.108 2005.76 480.213C2003.14 484.312 1990.44 492.137 1985.71 490.646C1982.1 489.528 1974.38 490.274 1978.24 481.828C1979.23 479.716 1978.11 476.611 1977.87 473.134V473.258Z" fill="#DD572C"></path>
    <path d="M1440.61 936.538C1439.11 935.544 1437.74 934.923 1437 933.93C1435.63 932.066 1434.88 929.707 1433.26 928.092C1429.03 924.118 1431.39 919.522 1433.51 916.665C1435 914.554 1441.23 912.939 1442.97 914.181C1453.93 922.254 1464.02 931.321 1465.38 946.35C1465.63 948.71 1468.62 950.821 1469.12 953.305C1470.12 958.025 1475.1 961.751 1472.36 967.589C1471.86 968.707 1474.85 971.315 1476.09 973.426C1478.46 977.401 1481.2 981.251 1482.57 985.598C1483.19 987.834 1481.2 990.815 1480.2 994.044C1486.43 994.044 1485.43 998.391 1484.93 1003.73C1484.43 1009.32 1485.93 1014.91 1485.93 1020.62C1485.93 1027.45 1485.56 1034.29 1484.56 1040.87C1483.81 1046.09 1479.33 1047.33 1476.47 1043.35C1472.86 1038.63 1470.74 1032.55 1468.37 1026.96C1468.12 1026.46 1469.99 1024.72 1471.24 1023.98C1473.1 1022.61 1475.1 1021.49 1477.21 1020.25C1476.47 1019.26 1476.22 1018.64 1475.97 1018.64C1473.48 1018.64 1469.49 1019.75 1468.87 1018.64C1466.01 1014.29 1463.39 1009.45 1462.02 1004.48C1459.41 995.286 1458.41 985.722 1455.42 976.656C1453.68 971.439 1449.57 967.092 1446.46 962.248C1445.34 960.633 1443.84 958.894 1443.6 957.031C1443.1 951.939 1444.47 946.474 1439.74 942.251C1438.99 941.63 1440.48 938.525 1440.98 936.538H1440.61Z" fill="#DD572C"></path>
    <path d="M1657.25 935.421C1655.51 935.421 1653.14 935.793 1650.9 935.421C1641.19 933.682 1633.47 928.217 1625.88 922.131C1622.14 919.15 1616.66 918.529 1611.93 916.79C1610.44 916.293 1608.2 916.293 1607.57 915.3C1603.96 909.214 1597.86 908.717 1592.01 906.978C1586.66 905.239 1586.16 901.886 1590.27 897.911C1588.9 897.042 1587.78 896.172 1586.41 895.303C1583.05 893.316 1582.17 887.23 1585.41 886.236C1590.14 884.87 1596.37 883.255 1600.35 885.118C1614.55 891.453 1628.12 899.153 1641.94 906.481C1648.41 909.959 1660.49 920.144 1661.98 927.472C1663.23 925.484 1664.6 923.497 1666.34 920.765C1670.7 923.87 1678.17 923.497 1677.55 932.191C1687.38 930.701 1695.73 935.048 1696.72 942.004C1697.47 947.054 1700.17 949.828 1704.82 950.325C1703.32 957.281 1696.35 960.261 1690.12 958.523C1682.03 956.287 1674.69 953.306 1668.71 947.344C1664.6 943.246 1660.62 939.023 1657.13 935.296L1657.25 935.421Z" fill="#DD572C"></path>
    <path d="M1450.57 145.237C1450.94 144.243 1451.07 143.001 1451.69 142.132C1452.93 140.269 1454.43 138.654 1455.8 136.915C1456.79 139.027 1457.91 141.138 1458.91 143.25C1459.16 143.747 1458.66 144.74 1458.91 145.237C1466.5 156.291 1461.9 169.705 1465.63 181.505C1466.63 184.858 1465.51 188.957 1465.63 192.559C1465.88 196.409 1466.88 200.135 1466.75 203.861C1466.75 207.09 1464.89 210.32 1464.89 213.673C1464.89 219.387 1464.89 225.348 1465.88 230.938C1467 236.403 1471.36 241.743 1470.86 246.96C1470.61 250.81 1465.63 255.157 1461.65 257.89C1458.29 260.25 1455.67 258.014 1452.81 254.288C1446.09 245.842 1445.46 237.893 1450.44 228.826C1450.94 228.081 1450.82 226.59 1450.44 225.721C1443.1 211.065 1439.86 195.788 1440.98 179.393C1441.48 172.189 1439.98 164.737 1440.11 157.409C1440.11 153.807 1440.98 149.957 1442.6 146.852C1443.47 145.237 1446.83 144.989 1448.95 144.243L1450.32 145.237H1450.57Z" fill="#DD572C"></path>
    <path d="M2231.74 1088.94C2221.78 1088.07 2211.45 1087.32 2201.24 1086.08C2187.29 1084.46 2173.6 1086.45 2159.9 1089.06C2157.04 1089.56 2154.17 1089.68 2151.31 1089.93C2144.09 1090.43 2136.86 1090.8 2129.77 1091.3C2112.96 1092.41 2096.27 1093.78 2079.47 1094.65C2076.1 1094.77 2072.62 1093.41 2069.38 1092.17C2068.38 1091.79 2067.26 1088.44 2067.64 1088.07C2071.12 1085.09 2074.49 1081.61 2078.59 1080.12C2080.84 1079.37 2084.45 1082.35 2087.81 1083.72C2088.8 1079.62 2092.17 1079.62 2097.15 1080.12C2101.5 1080.49 2106.11 1077.88 2110.72 1076.52C2117.57 1074.53 2129.15 1076.02 2133.38 1078.5C2138.61 1076.76 2142.47 1074.4 2146.33 1074.28C2159.9 1074.03 2173.6 1074.78 2187.17 1074.65C2193.27 1074.65 2199.49 1072.79 2205.59 1072.67C2212.82 1072.42 2220.04 1072.79 2227.26 1073.66C2228.75 1073.78 2230.74 1076.64 2231.24 1078.63C2231.99 1081.61 2231.74 1084.84 2231.99 1088.69L2231.74 1088.94Z" fill="#DD572C"></path>
    <path d="M1405.99 1667.85C1405.5 1660.4 1405.74 1653.81 1404.62 1647.48C1403.25 1639.03 1400.64 1630.71 1399.02 1622.27C1398.52 1619.41 1400.39 1615.93 1399.89 1613.08C1398.77 1607.98 1396.03 1603.26 1395.04 1598.05C1393.79 1591.59 1393.42 1584.88 1393.17 1578.17C1393.17 1576.81 1395.53 1574.08 1396.16 1574.2C1399.89 1575.07 1403.63 1576.44 1406.99 1578.3C1407.61 1578.67 1407.36 1583.14 1406.24 1584.01C1402.26 1587.12 1402.76 1589.73 1405.25 1593.58C1408.48 1598.3 1411.72 1603.39 1413.46 1608.73C1415.08 1613.82 1415.08 1619.41 1415.21 1624.88C1415.46 1630.59 1414.83 1636.3 1414.96 1642.02C1414.96 1643.51 1416.33 1645.12 1417.2 1646.49C1420.81 1652.32 1419.94 1656.17 1414.46 1660.02C1411.97 1661.76 1409.98 1664 1405.87 1667.6L1405.99 1667.85Z" fill="#DD572C"></path>
    <path d="M1420.19 1664.5C1421.43 1670.58 1424.54 1676.17 1415.45 1678.65C1413.71 1679.15 1413.59 1685.11 1412.72 1688.59C1413.46 1688.84 1414.33 1689.09 1415.08 1689.21C1415.95 1687.85 1416.82 1686.36 1417.94 1684.62C1428.65 1691.07 1416.58 1701.51 1422.93 1708.34C1414.83 1710.45 1408.73 1704.74 1408.86 1696.17C1408.86 1691.07 1408.86 1685.98 1408.36 1681.01C1407.73 1672.07 1411.47 1666.36 1420.19 1664.37V1664.5Z" fill="#DD572C"></path>
    <path d="M1012.29 1393.86C1009.93 1398.95 1008.18 1404.41 1004.95 1408.89C1002.58 1412.24 997.351 1410 993.865 1404.29C1000.09 1400.94 1006.32 1397.46 1012.54 1393.98L1012.42 1393.86H1012.29Z" fill="#DD572C"></path>
    <path d="M2111.84 521.575C2109.6 522.817 2107.48 525.053 2105.11 525.177C2103.62 525.177 2102 522.445 2100.38 520.954C2102.25 519.464 2103.99 517.228 2105.98 516.731C2107.6 516.359 2109.72 518.222 2111.59 519.091C2111.59 519.961 2111.59 520.706 2111.71 521.575H2111.84Z" fill="#DD572C"></path>
    <path d="M1402.51 1567.12C1400.39 1565.38 1398.27 1563.64 1396.16 1561.9C1397.15 1561.03 1398.89 1559.17 1399.14 1559.42C1401.26 1560.91 1403.13 1562.77 1405.12 1564.51L1402.51 1567.24V1567.12Z" fill="#DD572C"></path>
    <path d="M467.067 744.519C464.327 745.886 461.464 747.252 458.725 748.618C458.351 747.749 458.102 746.755 457.728 745.886C460.343 743.526 462.584 739.8 467.191 744.644V744.519H467.067Z" fill="#DD572C"></path>
  </g>
  <defs>
    <clipPath id="clip0_3131_7943">
      <rect width="1440" height="810" fill="white"></rect>
    </clipPath>
  </defs>
</svg>
